<svg xmlns="http://www.w3.org/2000/svg" viewBox="0 0 750 500"><g id="freepik--background-complete--inject-9"><path d="M515.89,60a22.73,22.73,0,1,0-43.53-5.34h0l0,.1c.25,1.69.87,3.08,1.31,4.92l5.62,21.17a4.11,4.11,0,0,0,6.07,2.47l18.5-11a48.83,48.83,0,0,0,4.71-2.8l.07,0h0A22.69,22.69,0,0,0,515.89,60Zm-24.79.59a10,10,0,1,1,13-5.49A10,10,0,0,1,491.1,60.62Z" style="fill:#ebebeb"></path><path d="M188.11,202.22a19.41,19.41,0,1,0-24.24,28.54h0l.09,0c1.32.62,2.6.83,4.12,1.38l17.74,5.93a3.5,3.5,0,0,0,4.61-3.17l.83-18.37a41.73,41.73,0,0,0,.21-4.68v-.06h0A19.32,19.32,0,0,0,188.11,202.22ZM176.9,220.17a8.54,8.54,0,1,1,2.2-11.87A8.55,8.55,0,0,1,176.9,220.17Z" style="fill:#ebebeb"></path><path d="M719.14,252.71a19.41,19.41,0,1,0-36.13,9.8h0l.06.08c.74,1.25,1.68,2.15,2.62,3.47L696.94,281a3.5,3.5,0,0,0,5.59,0l11.08-14.68a42.67,42.67,0,0,0,2.82-3.73l0-.06h0A19.29,19.29,0,0,0,719.14,252.71Zm-19.4,8.45a8.54,8.54,0,1,1,8.54-8.54A8.55,8.55,0,0,1,699.74,261.16Z" style="fill:#ebebeb"></path><path d="M83.12,103a15.15,15.15,0,1,0-28.21,7.65h0l.05,0c.58,1,1.31,1.68,2,2.71l8.8,11.65a2.73,2.73,0,0,0,4.36,0L78.8,113.6a33.18,33.18,0,0,0,2.2-2.91l0,0h0A15.07,15.07,0,0,0,83.12,103ZM68,109.59a6.67,6.67,0,1,1,6.67-6.67A6.67,6.67,0,0,1,68,109.59Z" style="fill:#ebebeb"></path><path d="M176.44,58.29a16.16,16.16,0,1,1-20-11A16.16,16.16,0,0,1,176.44,58.29Z" style="fill:#ebebeb"></path><g style="opacity:0.1"><path d="M156.41,47.29a16.16,16.16,0,0,0-11,20s11.05-2.69,12.39-7.84S156.41,47.29,156.41,47.29Z" style="fill:#fff"></path></g><path d="M172.41,59.2a12.28,12.28,0,1,1-15.23-8.37A12.28,12.28,0,0,1,172.41,59.2Z" style="fill:#e0e0e0"></path><path d="M173,59.59a12.12,12.12,0,1,1-15-8.25A12.11,12.11,0,0,1,173,59.59Z" style="fill:#f5f5f5"></path><path d="M161.41,61.83l-.86-3h0a6.46,6.46,0,0,1,1.71-.05,6,6,0,0,1,.87.26V59l.15-1.2,0-.28-.7-.4-.22.19a5.76,5.76,0,0,0-2.34,0l-.47-1.64-.63-.26.12.41-.7.21.48,1.66c-2.23.89-2.94,2.53-2.51,4,.6,2,2.51,2.07,4.26,2l.86,3a5.9,5.9,0,0,1-3.27-.26L158,68a6.67,6.67,0,0,0,4,.17l.36,1.24-.58.18.69.22,1.21-.35-.48-1.65c2.25-.91,3-2.53,2.54-4C165.1,61.75,163.17,61.76,161.41,61.83Zm-1.29.05c-.93,0-1.66-.14-1.87-.85s.1-1.31,1.1-1.78Zm.43-3Zm2.14,7.38-.76-2.61c1,0,1.71.14,1.92.87S163.72,65.75,162.69,66.23Z" style="fill:#e0e0e0"></path><path d="M162.54,67.58l.49,1.65-1.21.35L161.34,68a6.74,6.74,0,0,1-4-.18l.23-1.68a5.84,5.84,0,0,0,3.28.26L160,63.4c-1.76.08-3.67.06-4.26-2-.44-1.5.27-3.14,2.5-4l-.48-1.66,1.21-.36.48,1.64a6.6,6.6,0,0,1,3.25,0l-.17,1.67a6.51,6.51,0,0,0-2.62-.11l.87,3c1.75-.07,3.69-.08,4.28,2C165.52,65.05,164.79,66.67,162.54,67.58Zm-3-6L158.73,59c-1,.47-1.29,1.13-1.1,1.78S158.57,61.62,159.5,61.62Zm3.73,2.61c-.21-.73-1-.88-1.91-.87l.76,2.61C163.11,65.5,163.42,64.86,163.23,64.23Z" style="fill:#ebebeb"></path><path d="M149.83,73.93a.72.72,0,0,1-.1-.1l-.29-.3A5.88,5.88,0,0,1,149,73c-.17-.2-.36-.42-.55-.69l-.3-.41c-.11-.14-.2-.3-.31-.46-.21-.32-.41-.67-.62-1a15.74,15.74,0,0,1-1.77-5.28c0-.43-.11-.83-.13-1.21,0-.19,0-.38,0-.55v-.51c0-.33,0-.62,0-.88a5.35,5.35,0,0,1,.06-.66l0-.41q0-.15,0-.15s0,0,0,.15a3.58,3.58,0,0,1,0,.41c0,.18,0,.41,0,.66s0,.55,0,.87,0,.34,0,.51a5.28,5.28,0,0,0,0,.55c0,.38.08.78.14,1.2a17.92,17.92,0,0,0,.66,2.7,18.27,18.27,0,0,0,1.09,2.55c.21.37.4.73.62,1.05l.29.46.3.41c.18.27.37.49.53.69a5.21,5.21,0,0,0,.42.51l.27.31Q149.85,73.93,149.83,73.93Z" style="fill:#fff"></path><path d="M157.12,62.35a1,1,0,0,1-.44-.24,2,2,0,0,1-.66-1,2,2,0,0,1,.1-1.21,1,1,0,0,1,.27-.42s-.09.17-.19.45a2,2,0,0,0,.54,2.14C157,62.25,157.13,62.33,157.12,62.35Z" style="fill:#fff"></path><path d="M158.44,57.07a1.16,1.16,0,0,1-.2-.47,1.26,1.26,0,0,1-.08-.5,1.16,1.16,0,0,1,.2.46A1.11,1.11,0,0,1,158.44,57.07Z" style="fill:#fff"></path><path d="M158.15,50.22a2.16,2.16,0,0,1-.38.1,3.81,3.81,0,0,0-.45.1c-.17,0-.37.09-.59.17l-.7.23c-.25.09-.51.2-.79.32a15.32,15.32,0,0,0-1.71.92A14.28,14.28,0,0,0,152,53.24c-.22.2-.43.39-.61.58s-.36.37-.51.54-.27.33-.39.47-.21.26-.28.36a1.39,1.39,0,0,1-.25.31,2.8,2.8,0,0,1,.21-.33c.07-.11.16-.24.27-.38s.23-.31.38-.48.31-.37.5-.56.39-.39.61-.6A12.73,12.73,0,0,1,153.47,52,13.33,13.33,0,0,1,155.2,51a8.16,8.16,0,0,1,.8-.31c.25-.09.49-.16.71-.22s.42-.11.6-.15l.45-.09Z" style="fill:#fff"></path><path d="M167.1,77l-.25.15c-.17.1-.42.22-.73.36a11.81,11.81,0,0,1-2.57.78,12.14,12.14,0,0,1-2.68.18c-.34,0-.62,0-.81-.08l-.29,0a1.17,1.17,0,0,1,.3,0c.19,0,.47,0,.81,0a12.86,12.86,0,0,0,2.65-.21,13.26,13.26,0,0,0,2.55-.74l.75-.32A1.12,1.12,0,0,1,167.1,77Z" style="fill:#fff"></path><path d="M451.78,301.8a16.16,16.16,0,1,1-20-11A16.16,16.16,0,0,1,451.78,301.8Z" style="fill:#ebebeb"></path><g style="opacity:0.1"><path d="M431.75,290.8a16.17,16.17,0,0,0-11,20s11-2.69,12.39-7.84S431.75,290.8,431.75,290.8Z" style="fill:#fff"></path></g><path d="M447.74,302.71a12.29,12.29,0,1,1-15.23-8.36A12.29,12.29,0,0,1,447.74,302.71Z" style="fill:#e0e0e0"></path><path d="M448.29,303.1a12.12,12.12,0,1,1-15-8.24A12.12,12.12,0,0,1,448.29,303.1Z" style="fill:#f5f5f5"></path><path d="M436.75,305.35l-.87-3h0a6.38,6.38,0,0,1,1.7-.05,5.31,5.31,0,0,1,.88.25v-.1l.15-1.21,0-.28-.69-.4-.22.19a6,6,0,0,0-2.34,0l-.48-1.64-.63-.26.12.41-.7.2.49,1.67c-2.24.89-3,2.52-2.51,4,.6,2.05,2.51,2.07,4.26,2l.86,2.95a5.94,5.94,0,0,1-3.28-.27l-.23,1.69a6.75,6.75,0,0,0,4,.17l.36,1.24-.57.17.69.23L439,313l-.48-1.65c2.24-.91,3-2.53,2.54-4C440.44,305.27,438.5,305.27,436.75,305.35Zm-1.3,0c-.93,0-1.66-.14-1.86-.85s.1-1.31,1.1-1.77Zm.43-3Zm2.15,7.37-.76-2.61c1,0,1.71.15,1.92.87S439.06,309.27,438,309.74Z" style="fill:#e0e0e0"></path><path d="M437.88,311.09l.48,1.66-1.21.35-.48-1.64a6.75,6.75,0,0,1-4-.17l.23-1.68a5.94,5.94,0,0,0,3.28.26l-.86-2.95c-1.75.08-3.66.06-4.26-2-.44-1.5.27-3.13,2.51-4l-.49-1.67,1.21-.35.48,1.64a6.64,6.64,0,0,1,3.26,0l-.17,1.67a6.38,6.38,0,0,0-2.63-.1l.87,3c1.76-.08,3.69-.08,4.29,2C440.86,308.56,440.13,310.18,437.88,311.09Zm-3.05-6-.76-2.62c-1,.46-1.29,1.12-1.1,1.77S433.9,305.13,434.83,305.13Zm3.74,2.61c-.21-.72-1-.87-1.92-.87l.76,2.62C438.44,309,438.75,308.38,438.57,307.74Z" style="fill:#ebebeb"></path><path d="M425.17,317.44l-.11-.09-.29-.3a6.2,6.2,0,0,1-.44-.5c-.16-.2-.36-.42-.55-.68l-.3-.41-.3-.47c-.22-.31-.42-.67-.63-1a18,18,0,0,1-1.11-2.57,18.33,18.33,0,0,1-.66-2.71c0-.43-.11-.84-.13-1.22,0-.19,0-.37,0-.55s0-.35,0-.51c0-.32,0-.62,0-.88s0-.48.05-.66,0-.3.05-.41l0-.14v.14l0,.42a6.12,6.12,0,0,0,0,.66,8.17,8.17,0,0,0,0,.87c0,.16,0,.33,0,.51s0,.36,0,.54c0,.38.09.79.14,1.21a18.21,18.21,0,0,0,.66,2.7,17.62,17.62,0,0,0,1.1,2.54c.21.38.4.73.61,1.05.1.16.2.32.3.46l.29.42c.18.26.37.49.53.69a6.29,6.29,0,0,0,.43.5l.27.32Z" style="fill:#fff"></path><path d="M432.46,305.87a1,1,0,0,1-.44-.25,1.87,1.87,0,0,1-.66-1,1.93,1.93,0,0,1,.09-1.2,1.23,1.23,0,0,1,.28-.43s-.1.17-.2.46a2.05,2.05,0,0,0,0,1.15,2,2,0,0,0,.59,1C432.29,305.76,432.47,305.85,432.46,305.87Z" style="fill:#fff"></path><path d="M433.78,300.58a1.16,1.16,0,0,1-.2-.47c-.08-.26-.12-.49-.08-.5a1.07,1.07,0,0,1,.19.47A1.17,1.17,0,0,1,433.78,300.58Z" style="fill:#fff"></path><path d="M433.49,293.74l-.38.09-.45.11c-.18.05-.38.09-.59.16s-.46.14-.7.24-.52.2-.79.31a13.87,13.87,0,0,0-1.71.93,13.33,13.33,0,0,0-1.55,1.17c-.22.2-.43.39-.62.59s-.35.37-.5.54-.28.33-.39.46-.21.27-.29.37l-.24.31a1.45,1.45,0,0,1,.2-.34c.07-.11.16-.23.27-.38s.23-.31.38-.48.31-.36.5-.55.4-.39.62-.6a12.14,12.14,0,0,1,3.28-2.12l.8-.31c.25-.09.49-.16.71-.22s.42-.11.6-.15a3.44,3.44,0,0,1,.46-.08Z" style="fill:#fff"></path><path d="M442.44,320.48l-.26.16c-.17.09-.41.21-.73.35a11.65,11.65,0,0,1-2.56.79,12.12,12.12,0,0,1-2.68.17c-.34,0-.62,0-.81-.07a1,1,0,0,1-.29-.06h.29l.81,0a14.38,14.38,0,0,0,2.65-.21,13.91,13.91,0,0,0,2.56-.74c.31-.13.57-.24.74-.33A1,1,0,0,1,442.44,320.48Z" style="fill:#fff"></path><circle cx="656.41" cy="109.26" r="24.32" transform="translate(275.77 655.09) rotate(-64.56)" style="fill:#ebebeb"></circle><g style="opacity:0.1"><path d="M670.59,89.51a24.31,24.31,0,0,0-33.94,5.56s13.44,10.59,20.79,7.4S670.59,89.51,670.59,89.51Z" style="fill:#fff"></path></g><path d="M671.34,119.51A18.49,18.49,0,1,1,667.1,93.7,18.5,18.5,0,0,1,671.34,119.51Z" style="fill:#e0e0e0"></path><path d="M671.38,120.52a18.24,18.24,0,1,1-4.18-25.45A18.24,18.24,0,0,1,671.38,120.52Z" style="fill:#f5f5f5"></path><path d="M658,108.94l2.72-3.79h0a9.7,9.7,0,0,1,1.64,2,8,8,0,0,1,.51,1.27l.14-.08,1.56-.94.36-.22L664.8,106l-.43-.09a9.07,9.07,0,0,0-2.18-2.77l1.5-2.08-.28-1-.37.52-.89-.64-1.53,2.13c-3.13-1.83-5.72-1.15-7.1.76-1.87,2.61-.12,4.89,1.6,6.9l-2.7,3.76a8.94,8.94,0,0,1-2.73-4.13l-2.21,1.29a10.14,10.14,0,0,0,3.48,4.86l-1.13,1.58-.74-.52.38,1,1.54,1.1,1.51-2.1c3.16,1.82,5.76,1.18,7.13-.74C661.53,113.23,659.73,110.94,658,108.94Zm-1.26-1.5c-.86-1.11-1.37-2.1-.72-3s1.64-1.1,3.12-.35Zm4-2.3ZM654,114.53l2.39-3.32c.89,1.13,1.41,2.15.75,3.07S655.51,115.31,654,114.53Z" style="fill:#e0e0e0"></path><path d="M652.25,115.61l-1.51,2.1-1.54-1.1,1.5-2.09a10.05,10.05,0,0,1-3.48-4.86l2.2-1.29a8.86,8.86,0,0,0,2.73,4.12l2.7-3.75c-1.72-2-3.47-4.29-1.59-6.9,1.37-1.92,4-2.59,7.1-.77L661.88,99l1.54,1.11-1.5,2.08a9.82,9.82,0,0,1,3,3.89l-2.13,1.34a9.66,9.66,0,0,0-2.31-3.2L657.74,108c1.72,2,3.52,4.3,1.65,6.91C658,116.78,655.42,117.43,652.25,115.61Zm4.23-9.15,2.41-3.34c-1.49-.75-2.54-.48-3.13.35S655.62,105.36,656.48,106.46Zm.38,6.85c.66-.92.15-1.94-.75-3.07l-2.39,3.32C655.24,114.34,656.28,114.12,656.86,113.31Z" style="fill:#ebebeb"></path><path d="M632.93,106.45a.73.73,0,0,1,0-.22c0-.16,0-.37.08-.63s.09-.6.18-1,.16-.81.3-1.28c.07-.24.14-.48.21-.74s.17-.52.26-.79c.17-.55.42-1.11.66-1.71a27.09,27.09,0,0,1,2-3.7,26.23,26.23,0,0,1,2.62-3.3c.45-.46.88-.9,1.31-1.28.22-.19.42-.38.63-.55l.59-.48c.38-.32.75-.56,1.07-.79a7.12,7.12,0,0,1,.83-.54l.54-.33a.78.78,0,0,1,.19-.1l-.18.13-.51.35c-.23.15-.51.34-.82.58s-.67.48-1,.8l-.58.48c-.21.17-.4.37-.62.56-.43.38-.84.83-1.29,1.29a26.79,26.79,0,0,0-2.59,3.28,27.34,27.34,0,0,0-2,3.66c-.24.6-.49,1.16-.67,1.7-.09.27-.19.53-.27.78s-.15.5-.22.73c-.15.47-.23.9-.32,1.28s-.16.7-.21,1l-.12.61Z" style="fill:#fff"></path><path d="M653.41,104.33a1.4,1.4,0,0,1-.12-.74,2.87,2.87,0,0,1,2.11-2.74,1.6,1.6,0,0,1,.76-.07s-.29,0-.72.19a3,3,0,0,0-2,2.62C653.38,104,653.44,104.33,653.41,104.33Z" style="fill:#fff"></path><path d="M660.9,101s.12-.33.37-.67.47-.59.51-.57-.12.33-.37.67S660.94,101,660.9,101Z" style="fill:#fff"></path><path d="M668.74,94.29a3.22,3.22,0,0,1-.47-.36c-.15-.13-.33-.28-.54-.44s-.46-.35-.74-.54-.59-.41-.93-.61-.72-.42-1.11-.64a19.62,19.62,0,0,0-2.68-1.17,21,21,0,0,0-2.83-.75c-.45-.07-.87-.15-1.27-.18s-.77-.08-1.11-.1-.64,0-.91,0-.51,0-.7,0a4.45,4.45,0,0,1-.59,0,3.65,3.65,0,0,1,.59-.07,6.81,6.81,0,0,1,.7,0c.27,0,.58,0,.92,0s.72,0,1.12.08.83.1,1.28.17a19.83,19.83,0,0,1,2.86.74,19.37,19.37,0,0,1,2.7,1.19c.39.23.77.43,1.11.66s.64.43.92.63.52.4.73.57.39.33.53.46A4.21,4.21,0,0,1,668.74,94.29Z" style="fill:#fff"></path><path d="M645.36,129.72a1.79,1.79,0,0,1-.42-.16c-.27-.11-.65-.29-1.1-.53a18.54,18.54,0,0,1-3.31-2.31,18,18,0,0,1-2.69-3c-.3-.43-.52-.78-.67-1a1.94,1.94,0,0,1-.2-.4,2,2,0,0,1,.26.36c.16.24.4.58.71,1a20.14,20.14,0,0,0,2.71,3,19.91,19.91,0,0,0,3.25,2.34c.45.25.81.45,1.07.58A2.23,2.23,0,0,1,645.36,129.72Z" style="fill:#fff"></path><path d="M87.32,231.7a19.66,19.66,0,1,1-4.5-27.44A19.66,19.66,0,0,1,87.32,231.7Z" style="fill:#ebebeb"></path><g style="opacity:0.1"><path d="M82.82,204.26a19.66,19.66,0,0,0-27.44,4.5s10.86,8.56,16.81,6S82.82,204.26,82.82,204.26Z" style="fill:#fff"></path></g><path d="M83.42,228.51A15,15,0,1,1,80,207.65,15,15,0,0,1,83.42,228.51Z" style="fill:#e0e0e0"></path><path d="M83.45,229.34a14.75,14.75,0,1,1-3.37-20.59A14.75,14.75,0,0,1,83.45,229.34Z" style="fill:#f5f5f5"></path><path d="M72.64,220l2.2-3.07h0a7.71,7.71,0,0,1,1.32,1.6,5.94,5.94,0,0,1,.42,1l.11-.07,1.26-.76.3-.18-.14-1-.35-.07A7,7,0,0,0,76,215.26l1.21-1.68-.22-.8-.3.42-.72-.52-1.23,1.72c-2.54-1.48-4.63-.93-5.74.62-1.52,2.11-.1,3.95,1.29,5.57l-2.18,3a7.18,7.18,0,0,1-2.21-3.34l-1.79,1.05A8.22,8.22,0,0,0,67,225.27L66,226.54l-.6-.41.31.82,1.24.9,1.22-1.7c2.56,1.47,4.66.95,5.77-.6C75.49,223.44,74,221.59,72.64,220Zm-1-1.21c-.7-.9-1.11-1.7-.59-2.43s1.33-.89,2.53-.28Zm3.22-1.86Zm-5.46,7.59,1.93-2.68c.73.91,1.15,1.74.61,2.48S70.62,225.12,69.39,224.49Z" style="fill:#e0e0e0"></path><path d="M68,225.36l-1.22,1.7-1.25-.89,1.21-1.69a8.19,8.19,0,0,1-2.81-3.93l1.78-1a7.15,7.15,0,0,0,2.21,3.33l2.18-3c-1.39-1.63-2.8-3.47-1.29-5.58,1.11-1.55,3.21-2.09,5.74-.62l1.23-1.72,1.25.9-1.21,1.68a8.06,8.06,0,0,1,2.42,3.14L76.5,218.7a7.64,7.64,0,0,0-1.87-2.59l-2.2,3.07c1.39,1.62,2.84,3.47,1.33,5.58C72.65,226.31,70.55,226.83,68,225.36ZM71.41,218l1.94-2.71c-1.2-.6-2-.38-2.52.29S70.72,217.08,71.41,218Zm.31,5.53c.53-.74.11-1.57-.61-2.48l-1.93,2.69C70.41,224.34,71.25,224.16,71.72,223.5Z" style="fill:#ebebeb"></path><path d="M52.37,218s0-.06,0-.17,0-.3.07-.51.07-.48.14-.79.13-.66.25-1c0-.19.11-.39.16-.59s.14-.42.22-.64c.14-.45.33-.9.53-1.39a21.14,21.14,0,0,1,1.62-3,20.59,20.59,0,0,1,2.11-2.66,14.72,14.72,0,0,1,1.07-1c.17-.16.33-.31.5-.45l.48-.39c.31-.25.61-.45.86-.63a6.27,6.27,0,0,1,.67-.44l.44-.27.16-.08-.14.11-.42.28a7.16,7.16,0,0,0-.66.47c-.25.18-.54.39-.84.64l-.48.4-.49.45c-.35.3-.69.67-1.05,1a22.05,22.05,0,0,0-2.09,2.65,23.21,23.21,0,0,0-1.62,3c-.2.48-.39.93-.54,1.37-.07.22-.16.42-.22.63s-.12.4-.17.59c-.12.38-.19.73-.27,1a6.79,6.79,0,0,0-.16.78c0,.21-.08.37-.1.5S52.37,218,52.37,218Z" style="fill:#fff"></path><path d="M68.93,216.24a1,1,0,0,1-.1-.6,2.35,2.35,0,0,1,.48-1.39,2.3,2.3,0,0,1,1.23-.82,1.12,1.12,0,0,1,.61-.05s-.23,0-.58.15a2.45,2.45,0,0,0-1.14.81,2.5,2.5,0,0,0-.5,1.31C68.9,216,69,216.24,68.93,216.24Z" style="fill:#fff"></path><path d="M75,213.54a1.43,1.43,0,0,1,.3-.54c.2-.28.38-.48.42-.46s-.11.27-.3.55S75,213.57,75,213.54Z" style="fill:#fff"></path><path d="M81.32,208.13a2.7,2.7,0,0,1-.38-.3c-.12-.1-.26-.22-.44-.35s-.37-.29-.6-.44a8.14,8.14,0,0,0-.75-.49c-.27-.18-.58-.34-.9-.52a16.1,16.1,0,0,0-2.16-.95,18.14,18.14,0,0,0-2.29-.6c-.36-.06-.7-.12-1-.15s-.62-.06-.9-.08-.52,0-.74,0h-.56a3.16,3.16,0,0,1-.49,0l.48-.06.57,0a6.23,6.23,0,0,1,.75,0c.27,0,.58,0,.9.06s.67.08,1,.14a15.29,15.29,0,0,1,2.32.6,17,17,0,0,1,2.18,1c.32.18.62.35.89.53A8.11,8.11,0,0,1,80,207c.23.16.42.32.59.46a4.45,4.45,0,0,1,.43.37A2.82,2.82,0,0,1,81.32,208.13Z" style="fill:#fff"></path><path d="M62.42,236.77a1.24,1.24,0,0,1-.34-.12,8.84,8.84,0,0,1-.89-.44,14.06,14.06,0,0,1-2.68-1.87,14.52,14.52,0,0,1-2.18-2.43,9.26,9.26,0,0,1-.53-.83,1.59,1.59,0,0,1-.17-.32,1.36,1.36,0,0,1,.22.29c.13.19.32.47.57.8a15.49,15.49,0,0,0,2.19,2.38,16.14,16.14,0,0,0,2.63,1.89c.36.21.65.37.86.47A2.21,2.21,0,0,1,62.42,236.77Z" style="fill:#fff"></path><rect x="343.87" y="427.05" width="74.56" height="15.98" transform="translate(762.3 870.08) rotate(180)" style="fill:#f5f5f5"></rect><path d="M411.12,443.14c.17,0,.31-3.55.31-7.93s-.14-7.92-.31-7.92-.31,3.55-.31,7.92S411,443.14,411.12,443.14Z" style="fill:#e0e0e0"></path><path d="M415.2,443.14c.17,0,.31-3.55.31-7.93s-.14-7.92-.31-7.92-.31,3.55-.31,7.92S415,443.14,415.2,443.14Z" style="fill:#e0e0e0"></path><path d="M402.16,443.14c.17,0,.31-3.55.31-7.93s-.14-7.92-.31-7.92-.31,3.55-.31,7.92S402,443.14,402.16,443.14Z" style="fill:#e0e0e0"></path><path d="M406.24,443.14c.17,0,.31-3.55.31-7.93s-.14-7.92-.31-7.92-.31,3.55-.31,7.92S406.07,443.14,406.24,443.14Z" style="fill:#e0e0e0"></path><path d="M393.2,443.14c.18,0,.31-3.55.31-7.93s-.13-7.92-.31-7.92-.31,3.55-.31,7.92S393,443.14,393.2,443.14Z" style="fill:#e0e0e0"></path><path d="M397.28,443.14c.17,0,.31-3.55.31-7.93s-.14-7.92-.31-7.92-.31,3.55-.31,7.92S397.11,443.14,397.28,443.14Z" style="fill:#e0e0e0"></path><path d="M384.25,443.14c.17,0,.31-3.55.31-7.93s-.14-7.92-.31-7.92-.31,3.55-.31,7.92S384.07,443.14,384.25,443.14Z" style="fill:#e0e0e0"></path><path d="M388.32,443.14c.18,0,.31-3.55.31-7.93s-.13-7.92-.31-7.92-.31,3.55-.31,7.92S388.15,443.14,388.32,443.14Z" style="fill:#e0e0e0"></path><path d="M375.29,443.14c.17,0,.31-3.55.31-7.93s-.14-7.92-.31-7.92-.31,3.55-.31,7.92S375.12,443.14,375.29,443.14Z" style="fill:#e0e0e0"></path><path d="M379.36,443.14c.18,0,.32-3.55.32-7.93s-.14-7.92-.32-7.92-.31,3.55-.31,7.92S379.19,443.14,379.36,443.14Z" style="fill:#e0e0e0"></path><path d="M366.33,443.14c.17,0,.31-3.55.31-7.93s-.14-7.92-.31-7.92-.31,3.55-.31,7.92S366.16,443.14,366.33,443.14Z" style="fill:#e0e0e0"></path><path d="M370.41,443.14c.17,0,.31-3.55.31-7.93s-.14-7.92-.31-7.92-.31,3.55-.31,7.92S370.23,443.14,370.41,443.14Z" style="fill:#e0e0e0"></path><path d="M357.37,443.14c.17,0,.31-3.55.31-7.93s-.14-7.92-.31-7.92-.31,3.55-.31,7.92S357.2,443.14,357.37,443.14Z" style="fill:#e0e0e0"></path><path d="M361.45,443.14c.17,0,.31-3.55.31-7.93s-.14-7.92-.31-7.92-.31,3.55-.31,7.92S361.28,443.14,361.45,443.14Z" style="fill:#e0e0e0"></path><path d="M348.41,443.14c.17,0,.31-3.55.31-7.93s-.14-7.92-.31-7.92-.31,3.55-.31,7.92S348.24,443.14,348.41,443.14Z" style="fill:#e0e0e0"></path><path d="M352.49,443.14c.17,0,.31-3.55.31-7.93s-.14-7.92-.31-7.92-.31,3.55-.31,7.92S352.32,443.14,352.49,443.14Z" style="fill:#e0e0e0"></path><rect x="347.07" y="411" width="74.56" height="15.98" transform="translate(768.7 837.97) rotate(180)" style="fill:#f5f5f5"></rect><path d="M414.32,427.08c.18,0,.31-3.54.31-7.92s-.13-7.92-.31-7.92-.31,3.54-.31,7.92S414.15,427.08,414.32,427.08Z" style="fill:#e0e0e0"></path><path d="M418.4,427.08c.17,0,.31-3.54.31-7.92s-.14-7.92-.31-7.92-.31,3.54-.31,7.92S418.23,427.08,418.4,427.08Z" style="fill:#e0e0e0"></path><path d="M405.37,427.08c.17,0,.31-3.54.31-7.92s-.14-7.92-.31-7.92-.32,3.54-.32,7.92S405.19,427.08,405.37,427.08Z" style="fill:#e0e0e0"></path><path d="M409.44,427.08c.17,0,.31-3.54.31-7.92s-.14-7.92-.31-7.92-.31,3.54-.31,7.92S409.27,427.08,409.44,427.08Z" style="fill:#e0e0e0"></path><path d="M396.41,427.08c.17,0,.31-3.54.31-7.92s-.14-7.92-.31-7.92-.31,3.54-.31,7.92S396.24,427.08,396.41,427.08Z" style="fill:#e0e0e0"></path><path d="M400.48,427.08c.18,0,.32-3.54.32-7.92s-.14-7.92-.32-7.92-.31,3.54-.31,7.92S400.31,427.08,400.48,427.08Z" style="fill:#e0e0e0"></path><path d="M387.45,427.08c.17,0,.31-3.54.31-7.92s-.14-7.92-.31-7.92-.31,3.54-.31,7.92S387.28,427.08,387.45,427.08Z" style="fill:#e0e0e0"></path><path d="M391.53,427.08c.17,0,.31-3.54.31-7.92s-.14-7.92-.31-7.92-.31,3.54-.31,7.92S391.35,427.08,391.53,427.08Z" style="fill:#e0e0e0"></path><path d="M378.49,427.08c.17,0,.31-3.54.31-7.92s-.14-7.92-.31-7.92-.31,3.54-.31,7.92S378.32,427.08,378.49,427.08Z" style="fill:#e0e0e0"></path><path d="M382.57,427.08c.17,0,.31-3.54.31-7.92s-.14-7.92-.31-7.92-.31,3.54-.31,7.92S382.4,427.08,382.57,427.08Z" style="fill:#e0e0e0"></path><path d="M369.53,427.08c.17,0,.31-3.54.31-7.92s-.14-7.92-.31-7.92-.31,3.54-.31,7.92S369.36,427.08,369.53,427.08Z" style="fill:#e0e0e0"></path><path d="M373.61,427.08c.17,0,.31-3.54.31-7.92s-.14-7.92-.31-7.92-.31,3.54-.31,7.92S373.44,427.08,373.61,427.08Z" style="fill:#e0e0e0"></path><path d="M360.57,427.08c.17,0,.31-3.54.31-7.92s-.14-7.92-.31-7.92-.31,3.54-.31,7.92S360.4,427.08,360.57,427.08Z" style="fill:#e0e0e0"></path><path d="M364.65,427.08c.17,0,.31-3.54.31-7.92s-.14-7.92-.31-7.92-.31,3.54-.31,7.92S364.48,427.08,364.65,427.08Z" style="fill:#e0e0e0"></path><path d="M351.61,427.08c.17,0,.31-3.54.31-7.92s-.14-7.92-.31-7.92-.31,3.54-.31,7.92S351.44,427.08,351.61,427.08Z" style="fill:#e0e0e0"></path><path d="M355.69,427.08c.17,0,.31-3.54.31-7.92s-.14-7.92-.31-7.92-.31,3.54-.31,7.92S355.52,427.08,355.69,427.08Z" style="fill:#e0e0e0"></path><rect x="348.54" y="443.21" width="74.56" height="15.98" transform="translate(771.65 902.39) rotate(180)" style="fill:#f5f5f5"></rect><path d="M415.8,459.29c.17,0,.31-3.54.31-7.92s-.14-7.92-.31-7.92-.31,3.54-.31,7.92S415.63,459.29,415.8,459.29Z" style="fill:#e0e0e0"></path><path d="M419.87,459.29c.18,0,.32-3.54.32-7.92s-.14-7.92-.32-7.92-.31,3.54-.31,7.92S419.7,459.29,419.87,459.29Z" style="fill:#e0e0e0"></path><path d="M406.84,459.29c.17,0,.31-3.54.31-7.92s-.14-7.92-.31-7.92-.31,3.54-.31,7.92S406.67,459.29,406.84,459.29Z" style="fill:#e0e0e0"></path><path d="M410.92,459.29c.17,0,.31-3.54.31-7.92s-.14-7.92-.31-7.92-.31,3.54-.31,7.92S410.74,459.29,410.92,459.29Z" style="fill:#e0e0e0"></path><path d="M397.88,459.29c.17,0,.31-3.54.31-7.92s-.14-7.92-.31-7.92-.31,3.54-.31,7.92S397.71,459.29,397.88,459.29Z" style="fill:#e0e0e0"></path><path d="M402,459.29c.17,0,.31-3.54.31-7.92s-.14-7.92-.31-7.92-.31,3.54-.31,7.92S401.79,459.29,402,459.29Z" style="fill:#e0e0e0"></path><path d="M388.92,459.29c.17,0,.31-3.54.31-7.92s-.14-7.92-.31-7.92-.31,3.54-.31,7.92S388.75,459.29,388.92,459.29Z" style="fill:#e0e0e0"></path><path d="M393,459.29c.17,0,.31-3.54.31-7.92s-.14-7.92-.31-7.92-.31,3.54-.31,7.92S392.83,459.29,393,459.29Z" style="fill:#e0e0e0"></path><path d="M380,459.29c.17,0,.31-3.54.31-7.92s-.14-7.92-.31-7.92-.31,3.54-.31,7.92S379.79,459.29,380,459.29Z" style="fill:#e0e0e0"></path><path d="M384,459.29c.17,0,.31-3.54.31-7.92s-.14-7.92-.31-7.92-.31,3.54-.31,7.92S383.87,459.29,384,459.29Z" style="fill:#e0e0e0"></path><path d="M371,459.29c.17,0,.31-3.54.31-7.92s-.14-7.92-.31-7.92-.31,3.54-.31,7.92S370.83,459.29,371,459.29Z" style="fill:#e0e0e0"></path><path d="M375.08,459.29c.17,0,.31-3.54.31-7.92s-.14-7.92-.31-7.92-.31,3.54-.31,7.92S374.91,459.29,375.08,459.29Z" style="fill:#e0e0e0"></path><path d="M362,459.29c.18,0,.31-3.54.31-7.92s-.13-7.92-.31-7.92-.31,3.54-.31,7.92S361.87,459.29,362,459.29Z" style="fill:#e0e0e0"></path><path d="M366.12,459.29c.17,0,.31-3.54.31-7.92s-.14-7.92-.31-7.92-.31,3.54-.31,7.92S366,459.29,366.12,459.29Z" style="fill:#e0e0e0"></path><path d="M353.09,459.29c.17,0,.31-3.54.31-7.92s-.14-7.92-.31-7.92-.32,3.54-.32,7.92S352.91,459.29,353.09,459.29Z" style="fill:#e0e0e0"></path><path d="M357.16,459.29c.18,0,.31-3.54.31-7.92s-.13-7.92-.31-7.92-.31,3.54-.31,7.92S357,459.29,357.16,459.29Z" style="fill:#e0e0e0"></path><path d="M348.54,443.21c0,.2,16.81.36,37.54.36s37.55-.16,37.55-.36-16.81-.37-37.55-.37S348.54,443,348.54,443.21Z" style="fill:#e0e0e0"></path><rect x="354.39" y="459.06" width="74.56" height="15.98" transform="translate(783.34 934.09) rotate(180)" style="fill:#f5f5f5"></rect><path d="M421.64,475.14c.17,0,.31-3.55.31-7.92s-.14-7.93-.31-7.93-.31,3.55-.31,7.93S421.47,475.14,421.64,475.14Z" style="fill:#e0e0e0"></path><path d="M425.72,475.14c.17,0,.31-3.55.31-7.92s-.14-7.93-.31-7.93-.31,3.55-.31,7.93S425.55,475.14,425.72,475.14Z" style="fill:#e0e0e0"></path><path d="M412.68,475.14c.17,0,.31-3.55.31-7.92s-.14-7.93-.31-7.93-.31,3.55-.31,7.93S412.51,475.14,412.68,475.14Z" style="fill:#e0e0e0"></path><path d="M416.76,475.14c.17,0,.31-3.55.31-7.92s-.14-7.93-.31-7.93-.31,3.55-.31,7.93S416.59,475.14,416.76,475.14Z" style="fill:#e0e0e0"></path><path d="M403.72,475.14c.18,0,.31-3.55.31-7.92s-.13-7.93-.31-7.93-.31,3.55-.31,7.93S403.55,475.14,403.72,475.14Z" style="fill:#e0e0e0"></path><path d="M407.8,475.14c.17,0,.31-3.55.31-7.92s-.14-7.93-.31-7.93-.31,3.55-.31,7.93S407.63,475.14,407.8,475.14Z" style="fill:#e0e0e0"></path><path d="M394.77,475.14c.17,0,.31-3.55.31-7.92s-.14-7.93-.31-7.93-.32,3.55-.32,7.93S394.59,475.14,394.77,475.14Z" style="fill:#e0e0e0"></path><path d="M398.84,475.14c.17,0,.31-3.55.31-7.92s-.14-7.93-.31-7.93-.31,3.55-.31,7.93S398.67,475.14,398.84,475.14Z" style="fill:#e0e0e0"></path><path d="M385.81,475.14c.17,0,.31-3.55.31-7.92s-.14-7.93-.31-7.93-.31,3.55-.31,7.93S385.63,475.14,385.81,475.14Z" style="fill:#e0e0e0"></path><path d="M389.88,475.14c.18,0,.31-3.55.31-7.92s-.13-7.93-.31-7.93-.31,3.55-.31,7.93S389.71,475.14,389.88,475.14Z" style="fill:#e0e0e0"></path><path d="M376.85,475.14c.17,0,.31-3.55.31-7.92s-.14-7.93-.31-7.93-.31,3.55-.31,7.93S376.68,475.14,376.85,475.14Z" style="fill:#e0e0e0"></path><path d="M380.93,475.14c.17,0,.31-3.55.31-7.92s-.14-7.93-.31-7.93-.31,3.55-.31,7.93S380.75,475.14,380.93,475.14Z" style="fill:#e0e0e0"></path><path d="M367.89,475.14c.17,0,.31-3.55.31-7.92s-.14-7.93-.31-7.93-.31,3.55-.31,7.93S367.72,475.14,367.89,475.14Z" style="fill:#e0e0e0"></path><path d="M372,475.14c.17,0,.31-3.55.31-7.92s-.14-7.93-.31-7.93-.31,3.55-.31,7.93S371.8,475.14,372,475.14Z" style="fill:#e0e0e0"></path><path d="M358.93,475.14c.17,0,.31-3.55.31-7.92s-.14-7.93-.31-7.93-.31,3.55-.31,7.93S358.76,475.14,358.93,475.14Z" style="fill:#e0e0e0"></path><path d="M363,475.14c.17,0,.31-3.55.31-7.92s-.14-7.93-.31-7.93-.31,3.55-.31,7.93S362.84,475.14,363,475.14Z" style="fill:#e0e0e0"></path><path d="M354.39,459.06c0,.2,16.77.36,37.45.36s37.45-.16,37.45-.36-16.76-.37-37.45-.37S354.39,458.85,354.39,459.06Z" style="fill:#e0e0e0"></path><path d="M421.63,427c0,.15-17.42.26-38.91.26s-38.91-.11-38.91-.26,17.42-.26,38.91-.26S421.63,426.83,421.63,427Z" style="fill:#e0e0e0"></path><path d="M372.82,457.43c0,.15,10.72.27,23.94.27s23.93-.12,23.93-.27-10.71-.27-23.93-.27S372.82,457.29,372.82,457.43Z" style="fill:#fff"></path><path d="M427.92,472a26.14,26.14,0,0,0,0-6.92,26.14,26.14,0,0,0,0,6.92Z" style="fill:#fff"></path><path d="M375.17,473.34c0,.15,11.11.27,24.81.27s24.81-.12,24.81-.27-11.11-.27-24.81-.27S375.17,473.19,375.17,473.34Z" style="fill:#fff"></path><rect x="589.05" y="301.44" width="74.56" height="15.98" transform="translate(1252.66 618.85) rotate(180)" style="fill:#f5f5f5"></rect><path d="M656.3,317.52c.17,0,.31-3.54.31-7.92s-.14-7.93-.31-7.93-.31,3.55-.31,7.93S656.13,317.52,656.3,317.52Z" style="fill:#e0e0e0"></path><path d="M660.38,317.52c.17,0,.31-3.54.31-7.92s-.14-7.93-.31-7.93-.31,3.55-.31,7.93S660.21,317.52,660.38,317.52Z" style="fill:#e0e0e0"></path><path d="M647.34,317.52c.17,0,.31-3.54.31-7.92s-.14-7.93-.31-7.93-.31,3.55-.31,7.93S647.17,317.52,647.34,317.52Z" style="fill:#e0e0e0"></path><path d="M651.42,317.52c.17,0,.31-3.54.31-7.92s-.14-7.93-.31-7.93-.31,3.55-.31,7.93S651.25,317.52,651.42,317.52Z" style="fill:#e0e0e0"></path><path d="M638.38,317.52c.18,0,.31-3.54.31-7.92s-.13-7.93-.31-7.93-.31,3.55-.31,7.93S638.21,317.52,638.38,317.52Z" style="fill:#e0e0e0"></path><path d="M642.46,317.52c.17,0,.31-3.54.31-7.92s-.14-7.93-.31-7.93-.31,3.55-.31,7.93S642.29,317.52,642.46,317.52Z" style="fill:#e0e0e0"></path><path d="M629.43,317.52c.17,0,.31-3.54.31-7.92s-.14-7.93-.31-7.93-.31,3.55-.31,7.93S629.25,317.52,629.43,317.52Z" style="fill:#e0e0e0"></path><path d="M633.5,317.52c.18,0,.31-3.54.31-7.92s-.13-7.93-.31-7.93-.31,3.55-.31,7.93S633.33,317.52,633.5,317.52Z" style="fill:#e0e0e0"></path><path d="M620.47,317.52c.17,0,.31-3.54.31-7.92s-.14-7.93-.31-7.93-.31,3.55-.31,7.93S620.3,317.52,620.47,317.52Z" style="fill:#e0e0e0"></path><path d="M624.54,317.52c.18,0,.32-3.54.32-7.92s-.14-7.93-.32-7.93-.31,3.55-.31,7.93S624.37,317.52,624.54,317.52Z" style="fill:#e0e0e0"></path><path d="M611.51,317.52c.17,0,.31-3.54.31-7.92s-.14-7.93-.31-7.93-.31,3.55-.31,7.93S611.34,317.52,611.51,317.52Z" style="fill:#e0e0e0"></path><path d="M615.59,317.52c.17,0,.31-3.54.31-7.92s-.14-7.93-.31-7.93-.31,3.55-.31,7.93S615.41,317.52,615.59,317.52Z" style="fill:#e0e0e0"></path><path d="M602.55,317.52c.17,0,.31-3.54.31-7.92s-.14-7.93-.31-7.93-.31,3.55-.31,7.93S602.38,317.52,602.55,317.52Z" style="fill:#e0e0e0"></path><path d="M606.63,317.52c.17,0,.31-3.54.31-7.92s-.14-7.93-.31-7.93-.31,3.55-.31,7.93S606.46,317.52,606.63,317.52Z" style="fill:#e0e0e0"></path><path d="M593.59,317.52c.17,0,.31-3.54.31-7.92s-.14-7.93-.31-7.93-.31,3.55-.31,7.93S593.42,317.52,593.59,317.52Z" style="fill:#e0e0e0"></path><path d="M597.67,317.52c.17,0,.31-3.54.31-7.92s-.14-7.93-.31-7.93-.31,3.55-.31,7.93S597.5,317.52,597.67,317.52Z" style="fill:#e0e0e0"></path><rect x="593.72" y="317.6" width="74.56" height="15.98" transform="translate(1262.01 651.17) rotate(180)" style="fill:#f5f5f5"></rect><path d="M661,333.68c.17,0,.31-3.55.31-7.92s-.14-7.93-.31-7.93-.31,3.55-.31,7.93S660.81,333.68,661,333.68Z" style="fill:#e0e0e0"></path><path d="M665.06,333.68c.17,0,.31-3.55.31-7.92s-.14-7.93-.31-7.93-.32,3.55-.32,7.93S664.88,333.68,665.06,333.68Z" style="fill:#e0e0e0"></path><path d="M652,333.68c.17,0,.31-3.55.31-7.92s-.14-7.93-.31-7.93-.31,3.55-.31,7.93S651.85,333.68,652,333.68Z" style="fill:#e0e0e0"></path><path d="M656.1,333.68c.17,0,.31-3.55.31-7.92s-.14-7.93-.31-7.93-.31,3.55-.31,7.93S655.93,333.68,656.1,333.68Z" style="fill:#e0e0e0"></path><path d="M643.06,333.68c.17,0,.31-3.55.31-7.92s-.14-7.93-.31-7.93-.31,3.55-.31,7.93S642.89,333.68,643.06,333.68Z" style="fill:#e0e0e0"></path><path d="M647.14,333.68c.17,0,.31-3.55.31-7.92s-.14-7.93-.31-7.93-.31,3.55-.31,7.93S647,333.68,647.14,333.68Z" style="fill:#e0e0e0"></path><path d="M634.1,333.68c.17,0,.31-3.55.31-7.92s-.14-7.93-.31-7.93-.31,3.55-.31,7.93S633.93,333.68,634.1,333.68Z" style="fill:#e0e0e0"></path><path d="M638.18,333.68c.17,0,.31-3.55.31-7.92s-.14-7.93-.31-7.93-.31,3.55-.31,7.93S638,333.68,638.18,333.68Z" style="fill:#e0e0e0"></path><path d="M625.14,333.68c.17,0,.31-3.55.31-7.92s-.14-7.93-.31-7.93-.31,3.55-.31,7.93S625,333.68,625.14,333.68Z" style="fill:#e0e0e0"></path><path d="M629.22,333.68c.17,0,.31-3.55.31-7.92s-.14-7.93-.31-7.93-.31,3.55-.31,7.93S629.05,333.68,629.22,333.68Z" style="fill:#e0e0e0"></path><path d="M616.18,333.68c.17,0,.31-3.55.31-7.92s-.14-7.93-.31-7.93-.31,3.55-.31,7.93S616,333.68,616.18,333.68Z" style="fill:#e0e0e0"></path><path d="M620.26,333.68c.17,0,.31-3.55.31-7.92s-.14-7.93-.31-7.93-.31,3.55-.31,7.93S620.09,333.68,620.26,333.68Z" style="fill:#e0e0e0"></path><path d="M607.22,333.68c.18,0,.31-3.55.31-7.92s-.13-7.93-.31-7.93-.31,3.55-.31,7.93S607.05,333.68,607.22,333.68Z" style="fill:#e0e0e0"></path><path d="M611.3,333.68c.17,0,.31-3.55.31-7.92s-.14-7.93-.31-7.93-.31,3.55-.31,7.93S611.13,333.68,611.3,333.68Z" style="fill:#e0e0e0"></path><path d="M598.27,333.68c.17,0,.31-3.55.31-7.92s-.14-7.93-.31-7.93-.31,3.55-.31,7.93S598.09,333.68,598.27,333.68Z" style="fill:#e0e0e0"></path><path d="M602.34,333.68c.18,0,.31-3.55.31-7.92s-.13-7.93-.31-7.93-.31,3.55-.31,7.93S602.17,333.68,602.34,333.68Z" style="fill:#e0e0e0"></path><path d="M593.72,317.6c0,.2,16.81.36,37.54.36s37.55-.16,37.55-.36-16.81-.37-37.55-.37S593.72,317.39,593.72,317.6Z" style="fill:#e0e0e0"></path><rect x="599.57" y="333.44" width="74.56" height="15.98" transform="translate(1273.7 682.86) rotate(180)" style="fill:#f5f5f5"></rect><path d="M666.82,349.53c.17,0,.31-3.55.31-7.92s-.14-7.93-.31-7.93-.31,3.55-.31,7.93S666.65,349.53,666.82,349.53Z" style="fill:#e0e0e0"></path><path d="M670.9,349.53c.17,0,.31-3.55.31-7.92s-.14-7.93-.31-7.93-.31,3.55-.31,7.93S670.73,349.53,670.9,349.53Z" style="fill:#e0e0e0"></path><path d="M657.86,349.53c.17,0,.31-3.55.31-7.92s-.14-7.93-.31-7.93-.31,3.55-.31,7.93S657.69,349.53,657.86,349.53Z" style="fill:#e0e0e0"></path><path d="M661.94,349.53c.17,0,.31-3.55.31-7.92s-.14-7.93-.31-7.93-.31,3.55-.31,7.93S661.77,349.53,661.94,349.53Z" style="fill:#e0e0e0"></path><path d="M648.9,349.53c.18,0,.31-3.55.31-7.92s-.13-7.93-.31-7.93-.31,3.55-.31,7.93S648.73,349.53,648.9,349.53Z" style="fill:#e0e0e0"></path><path d="M653,349.53c.17,0,.31-3.55.31-7.92s-.14-7.93-.31-7.93-.31,3.55-.31,7.93S652.81,349.53,653,349.53Z" style="fill:#e0e0e0"></path><path d="M640,349.53c.17,0,.31-3.55.31-7.92s-.14-7.93-.31-7.93-.32,3.55-.32,7.93S639.77,349.53,640,349.53Z" style="fill:#e0e0e0"></path><path d="M644,349.53c.18,0,.31-3.55.31-7.92s-.13-7.93-.31-7.93-.31,3.55-.31,7.93S643.85,349.53,644,349.53Z" style="fill:#e0e0e0"></path><path d="M631,349.53c.17,0,.31-3.55.31-7.92s-.14-7.93-.31-7.93-.31,3.55-.31,7.93S630.82,349.53,631,349.53Z" style="fill:#e0e0e0"></path><path d="M635.06,349.53c.18,0,.32-3.55.32-7.92s-.14-7.93-.32-7.93-.31,3.55-.31,7.93S634.89,349.53,635.06,349.53Z" style="fill:#e0e0e0"></path><path d="M622,349.53c.17,0,.31-3.55.31-7.92s-.14-7.93-.31-7.93-.31,3.55-.31,7.93S621.86,349.53,622,349.53Z" style="fill:#e0e0e0"></path><path d="M626.11,349.53c.17,0,.31-3.55.31-7.92s-.14-7.93-.31-7.93-.31,3.55-.31,7.93S625.93,349.53,626.11,349.53Z" style="fill:#e0e0e0"></path><path d="M613.07,349.53c.17,0,.31-3.55.31-7.92s-.14-7.93-.31-7.93-.31,3.55-.31,7.93S612.9,349.53,613.07,349.53Z" style="fill:#e0e0e0"></path><path d="M617.15,349.53c.17,0,.31-3.55.31-7.92s-.14-7.93-.31-7.93-.31,3.55-.31,7.93S617,349.53,617.15,349.53Z" style="fill:#e0e0e0"></path><path d="M604.11,349.53c.17,0,.31-3.55.31-7.92s-.14-7.93-.31-7.93-.31,3.55-.31,7.93S603.94,349.53,604.11,349.53Z" style="fill:#e0e0e0"></path><path d="M608.19,349.53c.17,0,.31-3.55.31-7.92s-.14-7.93-.31-7.93-.31,3.55-.31,7.93S608,349.53,608.19,349.53Z" style="fill:#e0e0e0"></path><path d="M599.57,333.44c0,.21,16.77.37,37.45.37s37.45-.16,37.45-.37-16.76-.36-37.45-.36S599.57,333.24,599.57,333.44Z" style="fill:#e0e0e0"></path><path d="M618,331.82c0,.15,10.72.27,23.94.27s23.93-.12,23.93-.27-10.71-.27-23.93-.27S618,331.67,618,331.82Z" style="fill:#fff"></path><path d="M673.1,346.34a26.07,26.07,0,0,0,0-6.91,26.07,26.07,0,0,0,0,6.91Z" style="fill:#fff"></path><path d="M620.35,347.73c0,.14,11.11.26,24.81.26s24.81-.12,24.81-.26-11.11-.27-24.81-.27S620.35,347.58,620.35,347.73Z" style="fill:#fff"></path></g><g id="freepik--Table--inject-9"><path d="M729.36,476.06c0,.14-158.66.26-354.34.26s-354.38-.12-354.38-.26,158.63-.26,354.38-.26S729.36,475.92,729.36,476.06Z" style="fill:#263238"></path></g><g id="freepik--Containers--inject-9"><rect x="58.15" y="390.23" width="276.61" height="85.56" style="fill:#407BFF"></rect><g style="opacity:0.30000000000000004"><rect x="235.77" y="390.23" width="98.99" height="85.56"></rect></g><path d="M230.53,471.53s0-.47,0-1.37,0-2.23,0-4c0-3.5,0-8.63-.05-15.24,0-13.2-.06-32.29-.1-55.86l.19.18-167.59.08h0l.26-.26c0,26.87,0,52.73,0,76.44l-.25-.25,120.31.12,34.77.07,9.29,0h2.4l.83,0h-.8l-2.37,0-9.24,0-34.72.07-120.47.11h-.25v-.24c0-23.71,0-49.57,0-76.44v-.26h.27l167.59.07h.19v.19c-.05,23.62-.08,42.75-.11,56,0,6.59,0,11.71,0,15.19,0,1.72,0,3,0,3.94S230.53,471.53,230.53,471.53Z" style="fill:#263238"></path><path d="M328.89,471.53s0-.5,0-1.42,0-2.32,0-4.1c0-3.59,0-8.84,0-15.52,0-13.35-.07-32.43-.12-55.4l.22.22-86.6,0h0l.26-.26c0,27.78,0,53.94,0,76.44l-.23-.23,62.62.11,17.68.06,4.69,0h1.21l.41,0h-1.57l-4.64,0-17.63.06-62.77.12h-.23v-.23c0-22.5,0-48.66,0-76.44v-.26h.27l86.6,0h.22v.23c0,23-.08,42.15-.11,55.54,0,6.66,0,11.89-.06,15.47,0,1.76,0,3.12,0,4S328.89,471.53,328.89,471.53Z" style="fill:#263238"></path><path d="M72.72,471.47c-.14,0-.26-17-.26-38.05s.12-38.05.26-38.05.26,17,.26,38.05S72.86,471.47,72.72,471.47Z" style="fill:#263238"></path><path d="M85.14,471.47c-.14,0-.26-17-.26-38.05s.12-38.05.26-38.05.26,17,.26,38.05S85.28,471.47,85.14,471.47Z" style="fill:#263238"></path><path d="M97.56,471.47c-.14,0-.26-17-.26-38.05s.12-38.05.26-38.05.26,17,.26,38.05S97.71,471.47,97.56,471.47Z" style="fill:#263238"></path><path d="M110,471.47c-.14,0-.26-17-.26-38.05s.12-38.05.26-38.05.26,17,.26,38.05S110.13,471.47,110,471.47Z" style="fill:#263238"></path><path d="M122.4,471.47c-.14,0-.26-17-.26-38.05s.12-38.05.26-38.05.26,17,.26,38.05S122.55,471.47,122.4,471.47Z" style="fill:#263238"></path><path d="M134.82,471.47c-.14,0-.26-17-.26-38.05s.12-38.05.26-38.05.26,17,.26,38.05S135,471.47,134.82,471.47Z" style="fill:#263238"></path><path d="M147.24,471.47c-.14,0-.26-17-.26-38.05s.12-38.05.26-38.05.26,17,.26,38.05S147.39,471.47,147.24,471.47Z" style="fill:#263238"></path><path d="M159.66,471.47c-.14,0-.26-17-.26-38.05s.12-38.05.26-38.05.27,17,.27,38.05S159.81,471.47,159.66,471.47Z" style="fill:#263238"></path><path d="M172.09,471.47c-.15,0-.27-17-.27-38.05s.12-38.05.27-38.05.26,17,.26,38.05S172.23,471.47,172.09,471.47Z" style="fill:#263238"></path><path d="M184.51,471.47c-.15,0-.26-17-.26-38.05s.11-38.05.26-38.05.26,17,.26,38.05S184.65,471.47,184.51,471.47Z" style="fill:#263238"></path><path d="M196.93,471.47c-.15,0-.26-17-.26-38.05s.11-38.05.26-38.05.26,17,.26,38.05S197.07,471.47,196.93,471.47Z" style="fill:#263238"></path><path d="M209.35,471.47c-.15,0-.26-17-.26-38.05s.11-38.05.26-38.05.26,17,.26,38.05S209.49,471.47,209.35,471.47Z" style="fill:#263238"></path><path d="M221.77,471.47c-.15,0-.26-17-.26-38.05s.11-38.05.26-38.05.26,17,.26,38.05S221.91,471.47,221.77,471.47Z" style="fill:#263238"></path><path d="M254,471.47c-.14,0-.26-17-.26-38.05s.12-38.05.26-38.05.26,17,.26,38.05S254.12,471.47,254,471.47Z" style="fill:#263238"></path><path d="M279.63,471.47c-.14,0-.26-17-.26-38.05s.12-38.05.26-38.05.26,17,.26,38.05S279.78,471.47,279.63,471.47Z" style="fill:#263238"></path><path d="M293.23,471.47c-.14,0-.26-17-.26-38.05s.12-38.05.26-38.05.26,17,.26,38.05S293.38,471.47,293.23,471.47Z" style="fill:#263238"></path><path d="M306.83,471.47c-.14,0-.26-17-.26-38.05s.12-38.05.26-38.05.26,17,.26,38.05S307,471.47,306.83,471.47Z" style="fill:#263238"></path><path d="M320.43,471.47c-.14,0-.26-17-.26-38.05s.12-38.05.26-38.05.26,17,.26,38.05S320.58,471.47,320.43,471.47Z" style="fill:#263238"></path><path d="M266.68,471.47c-.15,0-.26-17-.26-38.05s.11-38.05.26-38.05.26,17,.26,38.05S266.82,471.47,266.68,471.47Z" style="fill:#263238"></path><rect x="51.56" y="338.2" width="168.19" height="52.02" style="fill:#455a64"></rect><g style="opacity:0.30000000000000004"><rect x="159.56" y="338.2" width="60.19" height="52.02"></rect></g><path d="M156.37,387.64s0-.29,0-.84,0-1.37,0-2.42c0-2.14,0-5.26-.05-9.27,0-8-.06-19.63-.1-33.95l.19.19-101.9.07h0l.26-.26c0,16.34,0,32.06,0,46.48l-.24-.25,73.11.12,21.15.07,5.66,0h1.47l.51,0h-.48l-1.44,0-5.61,0-21.09.07-73.28.12h-.25v-.25c0-14.42,0-30.14,0-46.48v-.26h.27l101.9.07h.19v.19c0,14.37-.08,26-.1,34.06,0,4,0,7.1-.05,9.23,0,1,0,1.83,0,2.39S156.37,387.64,156.37,387.64Z" style="fill:#263238"></path><path d="M216.18,387.64s0-.31,0-.88,0-1.42,0-2.49c0-2.2,0-5.39-.06-9.45,0-8.13-.06-19.71-.11-33.66l.22.22-52.66,0,.25-.25h0V365.6c0,7.8,0,15.2,0,22l-.23-.23,38.05.11,10.76.07,2.86,0,.74,0h-.69l-2.81,0-10.71.06-38.2.12h-.23v-.23c0-6.84,0-14.24,0-22v-12c0-2,0-4.1,0-6.18v-6.26h0l.27-.27,52.66,0h.22v.22c-.05,14-.09,25.64-.11,33.8,0,4,0,7.21-.06,9.4,0,1.05,0,1.88,0,2.45S216.18,387.64,216.18,387.64Z" style="fill:#263238"></path><path d="M60.42,387.6c-.15,0-.26-10.36-.26-23.13s.11-23.14.26-23.14.26,10.36.26,23.14S60.56,387.6,60.42,387.6Z" style="fill:#263238"></path><path d="M68,387.6c-.14,0-.26-10.36-.26-23.13s.12-23.14.26-23.14.26,10.36.26,23.14S68.11,387.6,68,387.6Z" style="fill:#263238"></path><path d="M75.52,387.6c-.14,0-.26-10.36-.26-23.13s.12-23.14.26-23.14.26,10.36.26,23.14S75.66,387.6,75.52,387.6Z" style="fill:#263238"></path><path d="M83.07,387.6c-.14,0-.26-10.36-.26-23.13s.12-23.14.26-23.14.26,10.36.26,23.14S83.22,387.6,83.07,387.6Z" style="fill:#263238"></path><path d="M90.63,387.6c-.15,0-.26-10.36-.26-23.13s.11-23.14.26-23.14.26,10.36.26,23.14S90.77,387.6,90.63,387.6Z" style="fill:#263238"></path><path d="M98.18,387.6c-.15,0-.26-10.36-.26-23.13s.11-23.14.26-23.14.26,10.36.26,23.14S98.32,387.6,98.18,387.6Z" style="fill:#263238"></path><path d="M105.73,387.6c-.14,0-.26-10.36-.26-23.13s.12-23.14.26-23.14.26,10.36.26,23.14S105.87,387.6,105.73,387.6Z" style="fill:#263238"></path><path d="M113.28,387.6c-.14,0-.26-10.36-.26-23.13s.12-23.14.26-23.14.26,10.36.26,23.14S113.43,387.6,113.28,387.6Z" style="fill:#263238"></path><path d="M120.83,387.6c-.14,0-.26-10.36-.26-23.13s.12-23.14.26-23.14.26,10.36.26,23.14S121,387.6,120.83,387.6Z" style="fill:#263238"></path><path d="M128.39,387.6c-.15,0-.26-10.36-.26-23.13s.11-23.14.26-23.14.26,10.36.26,23.14S128.53,387.6,128.39,387.6Z" style="fill:#263238"></path><path d="M135.94,387.6c-.14,0-.26-10.36-.26-23.13s.12-23.14.26-23.14.26,10.36.26,23.14S136.08,387.6,135.94,387.6Z" style="fill:#263238"></path><path d="M143.49,387.6c-.14,0-.26-10.36-.26-23.13s.12-23.14.26-23.14.26,10.36.26,23.14S143.63,387.6,143.49,387.6Z" style="fill:#263238"></path><path d="M151,387.6c-.14,0-.26-10.36-.26-23.13s.12-23.14.26-23.14.26,10.36.26,23.14S151.19,387.6,151,387.6Z" style="fill:#263238"></path><path d="M170.63,387.6c-.15,0-.26-10.36-.26-23.13s.11-23.14.26-23.14.26,10.36.26,23.14S170.77,387.6,170.63,387.6Z" style="fill:#263238"></path><path d="M186.23,387.6c-.15,0-.26-10.36-.26-23.13s.11-23.14.26-23.14.26,10.36.26,23.14S186.37,387.6,186.23,387.6Z" style="fill:#263238"></path><path d="M194.5,387.6c-.15,0-.26-10.36-.26-23.13s.11-23.14.26-23.14.26,10.36.26,23.14S194.64,387.6,194.5,387.6Z" style="fill:#263238"></path><path d="M202.77,387.6c-.15,0-.26-10.36-.26-23.13s.11-23.14.26-23.14.26,10.36.26,23.14S202.91,387.6,202.77,387.6Z" style="fill:#263238"></path><path d="M211,387.6c-.15,0-.26-10.36-.26-23.13s.11-23.14.26-23.14.26,10.36.26,23.14S211.18,387.6,211,387.6Z" style="fill:#263238"></path><path d="M178.35,387.6c-.14,0-.26-10.36-.26-23.13s.12-23.14.26-23.14.26,10.36.26,23.14S178.49,387.6,178.35,387.6Z" style="fill:#263238"></path><rect x="441.2" y="399.01" width="249.11" height="77.05" style="fill:#455a64"></rect><g style="opacity:0.30000000000000004"><rect x="601.16" y="399.01" width="89.15" height="77.05"></rect></g><path d="M596.44,472.23s0-.43,0-1.23,0-2,0-3.58c0-3.15,0-7.77,0-13.72,0-11.9-.06-29.08-.11-50.31l.19.19-150.92.07h0l.26-.26c0,24.2,0,47.49,0,68.84l-.24-.25,108.33.12,31.32.07,8.37,0h2.17l.74,0h-.71l-2.14,0-8.32,0-31.26.07-108.5.12h-.25v-.25c0-21.35,0-44.64,0-68.84v-.26h.27l150.92.07h.19v.19c0,21.28-.08,38.5-.1,50.42,0,5.93,0,10.54,0,13.68,0,1.55,0,2.73,0,3.54S596.44,472.23,596.44,472.23Z" style="fill:#263238"></path><path d="M685,472.23s0-.45,0-1.28,0-2.09,0-3.69c0-3.24,0-8-.06-14,0-12-.06-29.21-.11-49.89l.22.22-78,0h0l.26-.26c0,25,0,48.58,0,68.84L607,472l56.4.11,15.92.07,4.22,0,1.09,0h0l-1.07,0-4.17,0-15.87.06-56.55.12h-.23v-.23c0-20.26,0-43.82,0-68.84v-.26H607l78,0h.22v.22c0,20.74-.09,38-.11,50,0,6,0,10.7-.06,13.92,0,1.59,0,2.81,0,3.65S685,472.23,685,472.23Z" style="fill:#263238"></path><path d="M454.32,472.17c-.14,0-.26-15.34-.26-34.26s.12-34.27.26-34.27.26,15.34.26,34.27S454.47,472.17,454.32,472.17Z" style="fill:#263238"></path><path d="M465.51,472.17c-.15,0-.26-15.34-.26-34.26s.11-34.27.26-34.27.26,15.34.26,34.27S465.65,472.17,465.51,472.17Z" style="fill:#263238"></path><path d="M476.69,472.17c-.14,0-.26-15.34-.26-34.26s.12-34.27.26-34.27S477,419,477,437.91,476.84,472.17,476.69,472.17Z" style="fill:#263238"></path><path d="M487.88,472.17c-.14,0-.26-15.34-.26-34.26s.12-34.27.26-34.27.26,15.34.26,34.27S488,472.17,487.88,472.17Z" style="fill:#263238"></path><path d="M499.07,472.17c-.15,0-.26-15.34-.26-34.26s.11-34.27.26-34.27.26,15.34.26,34.27S499.21,472.17,499.07,472.17Z" style="fill:#263238"></path><path d="M510.25,472.17c-.14,0-.26-15.34-.26-34.26s.12-34.27.26-34.27.26,15.34.26,34.27S510.4,472.17,510.25,472.17Z" style="fill:#263238"></path><path d="M521.44,472.17c-.15,0-.26-15.34-.26-34.26s.11-34.27.26-34.27.26,15.34.26,34.27S521.58,472.17,521.44,472.17Z" style="fill:#263238"></path><path d="M532.62,472.17c-.14,0-.26-15.34-.26-34.26s.12-34.27.26-34.27.26,15.34.26,34.27S532.77,472.17,532.62,472.17Z" style="fill:#263238"></path><path d="M543.81,472.17c-.14,0-.26-15.34-.26-34.26s.12-34.27.26-34.27.26,15.34.26,34.27S544,472.17,543.81,472.17Z" style="fill:#263238"></path><path d="M555,472.17c-.15,0-.26-15.34-.26-34.26s.11-34.27.26-34.27.26,15.34.26,34.27S555.14,472.17,555,472.17Z" style="fill:#263238"></path><path d="M566.18,472.17c-.14,0-.26-15.34-.26-34.26s.12-34.27.26-34.27.26,15.34.26,34.27S566.33,472.17,566.18,472.17Z" style="fill:#263238"></path><path d="M577.37,472.17c-.15,0-.26-15.34-.26-34.26s.11-34.27.26-34.27.26,15.34.26,34.27S577.51,472.17,577.37,472.17Z" style="fill:#263238"></path><path d="M588.55,472.17c-.14,0-.26-15.34-.26-34.26s.12-34.27.26-34.27.26,15.34.26,34.27S588.7,472.17,588.55,472.17Z" style="fill:#263238"></path><path d="M617.56,472.17c-.15,0-.26-15.34-.26-34.26s.11-34.27.26-34.27.26,15.34.26,34.27S617.7,472.17,617.56,472.17Z" style="fill:#263238"></path><path d="M640.67,472.17c-.15,0-.26-15.34-.26-34.26s.11-34.27.26-34.27.26,15.34.26,34.27S640.81,472.17,640.67,472.17Z" style="fill:#263238"></path><path d="M652.91,472.17c-.14,0-.26-15.34-.26-34.26s.12-34.27.26-34.27.26,15.34.26,34.27S653.06,472.17,652.91,472.17Z" style="fill:#263238"></path><path d="M665.16,472.17c-.14,0-.26-15.34-.26-34.26s.12-34.27.26-34.27.26,15.34.26,34.27S665.31,472.17,665.16,472.17Z" style="fill:#263238"></path><path d="M677.41,472.17c-.14,0-.26-15.34-.26-34.26s.12-34.27.26-34.27.26,15.34.26,34.27S677.55,472.17,677.41,472.17Z" style="fill:#263238"></path><path d="M629,472.17c-.15,0-.26-15.34-.26-34.26s.11-34.27.26-34.27.26,15.34.26,34.27S629.14,472.17,629,472.17Z" style="fill:#263238"></path><rect x="75.46" y="286.18" width="168.19" height="52.02" style="fill:#e0e0e0"></rect><g style="opacity:0.30000000000000004"><rect x="183.46" y="286.18" width="60.19" height="52.02"></rect></g><path d="M180.27,335.62s0-.29,0-.84,0-1.37,0-2.42c0-2.14,0-5.26,0-9.27,0-8-.06-19.63-.1-33.95l.18.19-101.89.07h0l.26-.26c0,16.34,0,32.06,0,46.48l-.25-.25,73.12.12,21.15.07,5.66,0h1.47l.5,0h-.47l-1.44,0-5.61,0-21.1.07-73.28.11h-.25v-.25c0-14.42,0-30.14,0-46.48v-.26h.27l101.89.07h.19v.19c0,14.37-.07,26-.1,34.06,0,4,0,7.1-.05,9.23,0,1,0,1.83,0,2.39S180.27,335.62,180.27,335.62Z" style="fill:#263238"></path><path d="M240.08,335.62s0-.31,0-.88,0-1.42,0-2.5c0-2.2,0-5.38-.05-9.44,0-8.13-.07-19.72-.12-33.66l.22.22-52.66,0c-.06.05.49-.49.26-.25h0V301.6c0,4.08,0,8.08,0,12,0,7.8,0,15.2,0,22l-.23-.23,38.05.11,10.76.06,2.86,0h.74l.25,0h-.94l-2.81,0-10.71.06-38.2.12h-.23v-.23c0-6.84,0-14.24,0-22,0-3.9,0-7.9,0-12V289.16h0c-.23.22.31-.33.26-.27l52.66,0h.23v.22c0,14-.08,25.64-.11,33.8,0,4,0,7.21-.06,9.39,0,1.06,0,1.88,0,2.46S240.08,335.62,240.08,335.62Z" style="fill:#263238"></path><path d="M84.32,335.58c-.14,0-.26-10.36-.26-23.13s.12-23.14.26-23.14.26,10.36.26,23.14S84.47,335.58,84.32,335.58Z" style="fill:#263238"></path><path d="M91.87,335.58c-.14,0-.26-10.36-.26-23.13s.12-23.14.26-23.14.26,10.36.26,23.14S92,335.58,91.87,335.58Z" style="fill:#263238"></path><path d="M99.43,335.58c-.15,0-.26-10.36-.26-23.13s.11-23.14.26-23.14.26,10.36.26,23.14S99.57,335.58,99.43,335.58Z" style="fill:#263238"></path><path d="M107,335.58c-.15,0-.26-10.36-.26-23.13s.11-23.14.26-23.14.26,10.36.26,23.14S107.12,335.58,107,335.58Z" style="fill:#263238"></path><path d="M114.53,335.58c-.14,0-.26-10.36-.26-23.13s.12-23.14.26-23.14.26,10.36.26,23.14S114.67,335.58,114.53,335.58Z" style="fill:#263238"></path><path d="M122.08,335.58c-.14,0-.26-10.36-.26-23.13s.12-23.14.26-23.14.26,10.36.26,23.14S122.23,335.58,122.08,335.58Z" style="fill:#263238"></path><path d="M129.63,335.58c-.14,0-.26-10.36-.26-23.13s.12-23.14.26-23.14.26,10.36.26,23.14S129.78,335.58,129.63,335.58Z" style="fill:#263238"></path><path d="M137.19,335.58c-.15,0-.26-10.36-.26-23.13s.11-23.14.26-23.14.26,10.36.26,23.14S137.33,335.58,137.19,335.58Z" style="fill:#263238"></path><path d="M144.74,335.58c-.14,0-.26-10.36-.26-23.13s.12-23.14.26-23.14.26,10.36.26,23.14S144.88,335.58,144.74,335.58Z" style="fill:#263238"></path><path d="M152.29,335.58c-.14,0-.26-10.36-.26-23.13s.12-23.14.26-23.14.26,10.36.26,23.14S152.43,335.58,152.29,335.58Z" style="fill:#263238"></path><path d="M159.84,335.58c-.14,0-.26-10.36-.26-23.13s.12-23.14.26-23.14.26,10.36.26,23.14S160,335.58,159.84,335.58Z" style="fill:#263238"></path><path d="M167.4,335.58c-.15,0-.26-10.36-.26-23.13s.11-23.14.26-23.14.26,10.36.26,23.14S167.54,335.58,167.4,335.58Z" style="fill:#263238"></path><path d="M175,335.58c-.15,0-.26-10.36-.26-23.13s.11-23.14.26-23.14.26,10.36.26,23.14S175.09,335.58,175,335.58Z" style="fill:#263238"></path><path d="M194.53,335.58c-.14,0-.26-10.36-.26-23.13s.12-23.14.26-23.14.26,10.36.26,23.14S194.67,335.58,194.53,335.58Z" style="fill:#263238"></path><path d="M210.13,335.58c-.14,0-.26-10.36-.26-23.13s.12-23.14.26-23.14.26,10.36.26,23.14S210.28,335.58,210.13,335.58Z" style="fill:#263238"></path><path d="M218.4,335.58c-.14,0-.26-10.36-.26-23.13s.12-23.14.26-23.14.26,10.36.26,23.14S218.55,335.58,218.4,335.58Z" style="fill:#263238"></path><path d="M226.67,335.58c-.14,0-.26-10.36-.26-23.13s.12-23.14.26-23.14.26,10.36.26,23.14S226.81,335.58,226.67,335.58Z" style="fill:#263238"></path><path d="M234.94,335.58c-.14,0-.26-10.36-.26-23.13s.12-23.14.26-23.14.26,10.36.26,23.14S235.08,335.58,234.94,335.58Z" style="fill:#263238"></path><path d="M202.25,335.58c-.14,0-.26-10.36-.26-23.13s.12-23.14.26-23.14.26,10.36.26,23.14S202.4,335.58,202.25,335.58Z" style="fill:#263238"></path><rect x="504.46" y="346.37" width="168.19" height="52.02" style="fill:#e0e0e0"></rect><g style="opacity:0.30000000000000004"><rect x="612.46" y="346.37" width="60.19" height="52.02"></rect></g><path d="M609.27,395.8s0-.29,0-.84,0-1.37,0-2.42c0-2.14,0-5.26-.05-9.27,0-8,0-19.63-.1-33.95l.19.19-101.9.07h0l.26-.26c0,16.34,0,32.06,0,46.48l-.24-.25,73.11.12,21.16.07,5.66,0h1.46l.51,0-.48,0h-1.43l-5.61,0-21.1.07-73.28.12h-.25v-.25c0-14.42,0-30.14,0-46.48v-.26h.26l101.9.07h.19v.19c0,14.37-.08,26-.1,34.06,0,4,0,7.11-.05,9.23,0,1,0,1.84,0,2.39S609.27,395.8,609.27,395.8Z" style="fill:#263238"></path><path d="M669.08,395.8s0-.31,0-.87,0-1.42,0-2.5c0-2.2,0-5.39,0-9.45,0-8.12-.07-19.71-.12-33.66l.22.22-52.66,0c-.06.06.49-.49.26-.25h0v6.26q0,3.12,0,6.18v12c0,7.79,0,15.19,0,22l-.23-.23,38.05.12,10.76.06,2.85,0,.74,0h0l-.72,0-2.81,0-10.7.06-38.2.12h-.23v-.23c0-6.84,0-14.24,0-22V349.34h0c-.24.23.31-.33.26-.27l52.66,0h.22v.22c0,14-.08,25.64-.11,33.8,0,4,0,7.21-.06,9.4,0,1.06,0,1.88,0,2.45S669.08,395.8,669.08,395.8Z" style="fill:#263238"></path><path d="M513.32,395.76c-.14,0-.26-10.36-.26-23.13s.12-23.14.26-23.14.26,10.36.26,23.14S513.46,395.76,513.32,395.76Z" style="fill:#263238"></path><path d="M520.87,395.76c-.14,0-.26-10.36-.26-23.13s.12-23.14.26-23.14.26,10.36.26,23.14S521,395.76,520.87,395.76Z" style="fill:#263238"></path><path d="M528.42,395.76c-.14,0-.26-10.36-.26-23.13s.12-23.14.26-23.14.26,10.36.26,23.14S528.57,395.76,528.42,395.76Z" style="fill:#263238"></path><path d="M536,395.76c-.15,0-.26-10.36-.26-23.13s.11-23.14.26-23.14.26,10.36.26,23.14S536.12,395.76,536,395.76Z" style="fill:#263238"></path><path d="M543.53,395.76c-.15,0-.26-10.36-.26-23.13s.11-23.14.26-23.14.26,10.36.26,23.14S543.67,395.76,543.53,395.76Z" style="fill:#263238"></path><path d="M551.08,395.76c-.14,0-.26-10.36-.26-23.13s.12-23.14.26-23.14.26,10.36.26,23.14S551.22,395.76,551.08,395.76Z" style="fill:#263238"></path><path d="M558.63,395.76c-.14,0-.26-10.36-.26-23.13s.12-23.14.26-23.14.26,10.36.26,23.14S558.78,395.76,558.63,395.76Z" style="fill:#263238"></path><path d="M566.18,395.76c-.14,0-.26-10.36-.26-23.13s.12-23.14.26-23.14.26,10.36.26,23.14S566.33,395.76,566.18,395.76Z" style="fill:#263238"></path><path d="M573.74,395.76c-.15,0-.26-10.36-.26-23.13s.11-23.14.26-23.14.26,10.36.26,23.14S573.88,395.76,573.74,395.76Z" style="fill:#263238"></path><path d="M581.29,395.76c-.14,0-.26-10.36-.26-23.13s.12-23.14.26-23.14.26,10.36.26,23.14S581.43,395.76,581.29,395.76Z" style="fill:#263238"></path><path d="M588.84,395.76c-.14,0-.26-10.36-.26-23.13s.12-23.14.26-23.14.26,10.36.26,23.14S589,395.76,588.84,395.76Z" style="fill:#263238"></path><path d="M596.39,395.76c-.14,0-.26-10.36-.26-23.13s.12-23.14.26-23.14.26,10.36.26,23.14S596.54,395.76,596.39,395.76Z" style="fill:#263238"></path><path d="M604,395.76c-.15,0-.26-10.36-.26-23.13s.11-23.14.26-23.14.26,10.36.26,23.14S604.09,395.76,604,395.76Z" style="fill:#263238"></path><path d="M623.53,395.76c-.15,0-.26-10.36-.26-23.13s.11-23.14.26-23.14.26,10.36.26,23.14S623.67,395.76,623.53,395.76Z" style="fill:#263238"></path><path d="M639.13,395.76c-.14,0-.26-10.36-.26-23.13s.12-23.14.26-23.14.26,10.36.26,23.14S639.27,395.76,639.13,395.76Z" style="fill:#263238"></path><path d="M647.4,395.76c-.14,0-.26-10.36-.26-23.13s.12-23.14.26-23.14.26,10.36.26,23.14S647.54,395.76,647.4,395.76Z" style="fill:#263238"></path><path d="M655.67,395.76c-.14,0-.26-10.36-.26-23.13s.12-23.14.26-23.14.26,10.36.26,23.14S655.81,395.76,655.67,395.76Z" style="fill:#263238"></path><path d="M663.94,395.76c-.15,0-.26-10.36-.26-23.13s.11-23.14.26-23.14.26,10.36.26,23.14S664.08,395.76,663.94,395.76Z" style="fill:#263238"></path><path d="M631.25,395.76c-.14,0-.26-10.36-.26-23.13s.12-23.14.26-23.14.26,10.36.26,23.14S631.4,395.76,631.25,395.76Z" style="fill:#263238"></path></g><g id="freepik--Characters--inject-9"><path d="M361.53,340.31s3.36-1.74,6.33-1.08,13.76,7.68,13.76,7.68l15.14-2.83,4.89,27.22-40.12,12.61Z" style="fill:#ffbf9d"></path><path d="M335,348.31s9.2-.43,12-1.84,9.52-7.35,10.93-7.24,6.49,1.08,6.49,1.08l-2.06,6.16s10.17,6.17,13.2,8.44,12.55,12.44,13,14.93-.32,5.41-1.51,6.38-5.52-1-5.52-1a5.42,5.42,0,0,1-1,4.44c-1.62,2.16-5.41,1.4-5.41,1.4s-.33,3.57-2.06,4.22-5.62-1.3-5.62-1.3-1.18,3-2.59,3.36-5.42-2.06-5.42-2.06-20.82-13.93-24.71-15.77L332.93,372Z" style="fill:#ae7461"></path><path d="M367.48,384c-.08,0-.13-.3-.31-.76a14.64,14.64,0,0,0-.87-1.72,11.33,11.33,0,0,1-1.34-2.47,6,6,0,0,1,1.79,2.21,6.32,6.32,0,0,1,.77,1.88C367.63,383.68,367.54,384,367.48,384Z" style="fill:#6f4439"></path><path d="M374.67,381.91a27.23,27.23,0,0,1-2.18-3.27c-1.19-1.8-2.45-3-2.36-3.11a7.59,7.59,0,0,1,2.79,2.82A10.3,10.3,0,0,1,374.67,381.91Z" style="fill:#6f4439"></path><path d="M381.62,375.67c-.16,0-.64-1.84-1.84-3.86s-2.57-3.36-2.46-3.48a10.68,10.68,0,0,1,4.3,7.34Z" style="fill:#6f4439"></path><path d="M376.55,362.16a9.95,9.95,0,0,1,.26,5.85,53.52,53.52,0,0,1-.26-5.85Z" style="fill:#6f4439"></path><path d="M351.36,352.42s2.7-8.65,3.68-9.73,10-3.46,10-3.46l2.8,7.24-2,2.13-4.32-.29S358.82,355.45,351.36,352.42Z" style="fill:#ffbf9d"></path><path d="M334.76,369.54s-1.24.95,0,3.22,4.59.65,5.67,0c0,0-1.62,3.79.44,5a8,8,0,0,0,4.54.86s-.11,2.28,2.81,3.79,3.68,0,3.68,0,.32,3.79,3.68,4.11,4.53-.83,4.53-.83l-1.5-2.23s1.94-4,.43-5.7a5.19,5.19,0,0,0-4-1.52s.66-3.51-1.27-4.49a3.55,3.55,0,0,0-5.12,1.57s-.21-3.85-3-3.76a6.26,6.26,0,0,0-4.33,1.82Z" style="fill:#ffbf9d"></path><path d="M348.65,373.3a8.15,8.15,0,0,1-1.29,2.89,8.31,8.31,0,0,1-1.89,2.53,11.6,11.6,0,0,1,1.45-2.8A12,12,0,0,1,348.65,373.3Z" style="fill:#ff9a6c"></path><path d="M355.11,376.71a12,12,0,0,1-3.73,5.46,17.15,17.15,0,0,1,1.82-2.76A18.15,18.15,0,0,1,355.11,376.71Z" style="fill:#ff9a6c"></path><path d="M473,164.24a8.1,8.1,0,0,1-3.74-15.69,8.44,8.44,0,0,1,7.08-14.36,10.09,10.09,0,0,1,15.06-8.56,11.33,11.33,0,0,1,14-.55,8.07,8.07,0,0,1,7.39,13.55" style="fill:#263238"></path><path d="M471.82,165.41a34.41,34.41,0,0,1,33.64-32.33l1.78,0c19.23.74,29.35,17.47,28.08,36.67l1.15,68.5h0L489.75,255l-.41-24.67s-18.52-2.5-19.12-20.95C469.93,200.45,470.82,182.05,471.82,165.41Z" style="fill:#ffbf9d"></path><path d="M489.19,230.28a44.77,44.77,0,0,0,24-7.57s-5.42,13.4-23.87,12.12Z" style="fill:#ff9a6c"></path><path d="M477,182.09a2.63,2.63,0,0,0,2.59,2.61,2.52,2.52,0,0,0,2.67-2.43,2.64,2.64,0,0,0-2.59-2.61A2.52,2.52,0,0,0,477,182.09Z" style="fill:#263238"></path><path d="M476,174.35c.34.34,2.3-1.18,5.14-1.23s4.94,1.33,5.24,1c.15-.16-.19-.78-1.11-1.42a7.26,7.26,0,0,0-4.21-1.2,7,7,0,0,0-4.08,1.41C476.09,173.58,475.81,174.2,476,174.35Z" style="fill:#263238"></path><path d="M502.85,182.09a2.63,2.63,0,0,0,2.59,2.61,2.52,2.52,0,0,0,2.67-2.43,2.64,2.64,0,0,0-2.59-2.61A2.52,2.52,0,0,0,502.85,182.09Z" style="fill:#263238"></path><path d="M503.86,174.32c.34.33,2.31-1.19,5.14-1.24s5,1.33,5.25,1c.14-.16-.2-.77-1.12-1.42a7.34,7.34,0,0,0-4.21-1.2,7,7,0,0,0-4.08,1.41C504,173.54,503.7,174.17,503.86,174.32Z" style="fill:#263238"></path><path d="M494,195.56c0-.16-1.76-.43-4.62-.74-.73-.06-1.42-.19-1.55-.68a3.66,3.66,0,0,1,.44-2.16q1-2.64,2-5.55c2.81-7.92,4.83-14.42,4.51-14.53S492,178.12,489.14,186l-1.94,5.59a4.19,4.19,0,0,0-.32,2.85,1.8,1.8,0,0,0,1.22,1,4.38,4.38,0,0,0,1.23.15C492.21,195.75,494,195.72,494,195.56Z" style="fill:#263238"></path><path d="M502.81,164.68c.39.71,2.8-.12,5.79-.28s5.52.29,5.78-.46c.11-.36-.43-1-1.52-1.55a9,9,0,0,0-4.51-.85A8.67,8.67,0,0,0,504,163C503.06,163.64,502.63,164.34,502.81,164.68Z" style="fill:#263238"></path><path d="M475.42,164.32c.61.63,2.94-.08,5.76-.17s5.2.32,5.74-.36c.23-.33-.16-1-1.21-1.56a9.13,9.13,0,0,0-4.7-1,9,9,0,0,0-4.56,1.39C475.47,163.34,475.15,164,475.42,164.32Z" style="fill:#263238"></path><path d="M473.42,156.9s4.64-11.65,10.16-14.46c6.68-3.41,9.73,3.94,16.13,2s12.77-5.19,19.44-.35c7.3,5.29,4,9.18,4.62,17.36,2.48,33.16,8.73,42.43,10.14,26.75.16-1.71,4.88-3.17,5.44-10.43.72-9.4.85-20.81-1.38-27.43-1.88-5.58-5.16-9.39-11-13.55-9.2-6.57-21.65-6.46-30.09-5.44S472.36,142.45,473.42,156.9Z" style="fill:#263238"></path><path d="M532.72,187.74A5,5,0,0,1,538,182.8c3.44.25,7.32,2.13,7.23,9.25-.14,12.63-12.79,9.87-12.81,9.51S532.62,193,532.72,187.74Z" style="fill:#ffbf9d"></path><path d="M535.26,196.84c.06,0,.22.16.59.33a2.21,2.21,0,0,0,1.65.06c1.34-.48,2.48-2.58,2.57-4.86a7.12,7.12,0,0,0-.58-3.15,2.53,2.53,0,0,0-1.63-1.71,1.12,1.12,0,0,0-1.31.59c-.17.35-.09.6-.16.62s-.27-.21-.16-.73a1.37,1.37,0,0,1,.5-.79,1.72,1.72,0,0,1,1.22-.31,3.1,3.1,0,0,1,2.28,2,7.47,7.47,0,0,1,.72,3.53c-.11,2.54-1.44,4.91-3.27,5.41a2.38,2.38,0,0,1-2-.35C535.28,197.15,535.22,196.87,535.26,196.84Z" style="fill:#ff9a6c"></path><path d="M532,163.29a12.07,12.07,0,0,1-5.29,2.58c-2,.23-4.26-.85-4.63-2.8-.17-.88,0-1.9-.56-2.57s-2-.52-3-.38a8.07,8.07,0,0,1-8.48-5.61c-.91,1.42-3.09,1.41-4.53.52s-2.37-2.36-3.51-3.6-2.71-2.35-4.37-2.08c-.93.15-1.79.72-2.73.66-1.66-.11-2.51-2-2.8-3.68s-.52-3.55-1.94-4.42-3-.29-4.51,0-3.5-.06-3.92-1.55a3,3,0,0,1,.52-2.3,8.18,8.18,0,0,1,9.58-3.29,11.08,11.08,0,0,1,20.31-2.56,11.24,11.24,0,0,1,18,3.73,8.15,8.15,0,0,1,9.43,11.67c2.3,1.25,4.29,3.46,4.39,6.07s-2.4,5.27-4.93,4.63a4.51,4.51,0,0,1-7.71,4.66" style="fill:#263238"></path><path d="M490.92,138.47a.64.64,0,0,0,0,.24c0,.15,0,.38.09.67a7.87,7.87,0,0,0,1,2.41,9,9,0,0,0,2.86,2.93,8.45,8.45,0,0,0,5.2,1.37l-.22-.28a4.57,4.57,0,0,0,.32,3.48,13,13,0,0,0,2.22,3.06,10.21,10.21,0,0,0,1.44,1.42,4.52,4.52,0,0,0,2,.7,4.61,4.61,0,0,0,4-1.54l-.47-.12a9.46,9.46,0,0,0,4.14,6.46,6.88,6.88,0,0,0,4.18,1.28,12.53,12.53,0,0,0,4.06-1l-.34-.14a9.93,9.93,0,0,0,3.07,3.83,5.29,5.29,0,0,0,4.42,1.11,7,7,0,0,0,5.24-5.55l-.28.14a6.55,6.55,0,0,0,4.35.55,7.25,7.25,0,0,0,3-1.41,6.31,6.31,0,0,0,1.38-1.57,3.85,3.85,0,0,0,.31-.66,7.83,7.83,0,0,1-1.82,2.06,7.18,7.18,0,0,1-2.92,1.28,6.29,6.29,0,0,1-4.11-.59l-.24-.13,0,.27a6.56,6.56,0,0,1-5,5.14,4.79,4.79,0,0,1-4-1.05,9.53,9.53,0,0,1-2.88-3.64l-.1-.23-.24.09a12.1,12.1,0,0,1-3.89.93,6.39,6.39,0,0,1-3.85-1.18,9,9,0,0,1-3.92-6.1l-.09-.59-.39.47a4.08,4.08,0,0,1-3.56,1.35,3.89,3.89,0,0,1-1.78-.6,9,9,0,0,1-1.36-1.33,12.81,12.81,0,0,1-2.18-2.93,4.13,4.13,0,0,1-.33-3.15l.09-.3-.31,0a8.08,8.08,0,0,1-5-1.24,8.84,8.84,0,0,1-2.84-2.76A9.81,9.81,0,0,1,490.92,138.47Z" style="fill:#455a64"></path><path d="M503.78,196.54c-.45.05.07,3-2.11,5.59s-5.39,2.79-5.34,3.21c0,.2.8.46,2.15.26a7.53,7.53,0,0,0,4.49-2.52,6.56,6.56,0,0,0,1.58-4.65C504.44,197.16,504,196.48,503.78,196.54Z" style="fill:#263238"></path><path d="M388.05,341.76c1.6-.64,67.06-8.61,67.06-8.61L476.55,315l-2,52.55-77.87,7.51Z" style="fill:#407BFF"></path><path d="M467.07,323c-.64.32-5.94,5-5.94,5l1.62,40.47Z" style="opacity:0.30000000000000004"></path><path d="M557.11,418.2H467.85s4.72,25.18,6.47,36.79a148.19,148.19,0,0,0,4.31,19.84h80.85s6-14.63,7.08-24S557.11,418.2,557.11,418.2Z" style="fill:#263238"></path><path d="M461.19,421.24s-2.49,28.71,0,53.59h30.93V451.9Z" style="fill:#263238"></path><path d="M478.37,280.5,488,259.44l1.2-13s18.44-11.6,27.2-16a190.64,190.64,0,0,1,20.54-8.34V234.4Z" style="fill:#ebebeb"></path><path d="M558.78,388.09s5.23-70.21,5.58-75.43c0,0,3.09-37.52-3.58-51.81S539.21,234,539.21,234l-1.37-7.5-29.12,18.35-13.45,11.71a135,135,0,0,0-12.7,15.8c-3.83,5.29-8.07,12.09-10,20.64-.69,3.13-8.71,40.51-8.94,66.56,0,0-1.24,22.73-2.55,35.61-1.62,15.93-4.1,52.26-3.56,73.79l94.35-2.89c23.32-3.55,19.22-5.87,19.22-5.87Z" style="fill:#407BFF"></path><path d="M536.93,234.4s-.22.11-.66.29l-1.92.81c-.82.4-1.82.92-3,1.53s-2.47,1.42-3.86,2.41a107,107,0,0,0-20.73,19.16l-.06.06-.08,0-9.05,1.66.2-.22c-.15,4.2-.29,8.62-.45,13.18v.11l-.08.07a125,125,0,0,0-13.31,14.59,58.42,58.42,0,0,0-4.57,6.9l-.49.89-.38.93a16.79,16.79,0,0,0-.68,1.88c-.4,1.28-.8,2.55-1.13,3.83-1.4,5.1-2.55,10.08-3.63,14.82-2.15,9.49-3.94,18.06-5.42,25.27C464.67,357,463,366,463,366a14,14,0,0,1,.2-1.64c.17-1.07.44-2.64.8-4.67.73-4.05,1.84-9.9,3.27-17.12s3.19-15.81,5.31-25.31c1.07-4.75,2.21-9.73,3.61-14.85.33-1.28.73-2.56,1.13-3.85a16,16,0,0,1,.7-1.93l.39-1,.5-.9a57.73,57.73,0,0,1,4.6-7,123.72,123.72,0,0,1,13.39-14.65l-.08.18c.16-4.57.32-9,.47-13.19v-.19l.19,0,9.05-1.63-.13.08a105.22,105.22,0,0,1,20.93-19.1c1.41-1,2.77-1.68,3.91-2.37s2.21-1.1,3-1.48l2-.74A6.49,6.49,0,0,1,536.93,234.4Z" style="fill:#263238"></path><path d="M505.25,289.88l1.13,93.7-14.26,91.25h37.61s17.1-69.28,21.08-83.85c3.86-14.13,9.65-85.3,10.17-88.8.2-1.37,4.28-25.95-7.73-37.54" style="fill:#407BFF"></path><path d="M553.25,264.64l.79.78a20.48,20.48,0,0,1,2.05,2.53,31.2,31.2,0,0,1,4.7,11.54,64.64,64.64,0,0,1,.72,19.77c-.57,3.84-.85,7.94-1.27,12.32s-.81,9-1.25,13.83c-.9,9.7-1.91,20.32-3.14,31.72-.63,5.7-1.28,11.6-2.08,17.65a145,145,0,0,1-3.31,18.58c-6.29,25-13.2,52.57-20.48,81.54l-.05.19H491.81l.05-.3c5.28-33.65,10.15-64.72,14.31-91.25v0c-.3-28.37-.56-51.79-.73-68.13-.07-8.16-.13-14.55-.17-18.91,0-2.17,0-3.83,0-5s0-1.7,0-1.7,0,.58.06,1.7.05,2.79.09,5c.06,4.36.16,10.75.28,18.9.22,16.34.54,39.76.92,68.13v0c-4.13,26.53-9,57.6-14.22,91.26l-.25-.29h37.61l-.25.2L550,393.23a144.2,144.2,0,0,0,3.32-18.51c.81-6.05,1.47-11.94,2.11-17.63,1.24-11.4,2.27-22,3.19-31.71.46-4.85.89-9.47,1.3-13.83s.73-8.51,1.3-12.32a64.86,64.86,0,0,0-.62-19.7A31.77,31.77,0,0,0,556,268a21.56,21.56,0,0,0-2-2.55Z" style="fill:#263238"></path><path d="M525.14,392.8a16.27,16.27,0,0,1-2.9-.84c-1.77-.61-4.19-1.53-6.79-2.68s-4.91-2.34-6.55-3.24a16,16,0,0,1-2.57-1.59,18.75,18.75,0,0,1,2.74,1.26c1.68.82,4,1.94,6.59,3.09s5,2.12,6.71,2.81A19.07,19.07,0,0,1,525.14,392.8Z" style="fill:#263238"></path><path d="M460.75,399a.93.93,0,0,1,0-.25c0-.19,0-.42,0-.71,0-.68.08-1.6.14-2.76.16-2.44.38-5.89.65-10.13.58-8.55,1.4-20.36,2.55-33.39s2.49-24.8,3.57-33.3c.55-4.25,1-7.69,1.36-10.06.17-1.15.31-2.06.41-2.73,0-.29.08-.52.11-.71a.13.13,0,1,1,.06,0c0,.19,0,.43-.07.71-.08.67-.18,1.59-.31,2.75-.29,2.42-.69,5.85-1.19,10.07-1,8.51-2.26,20.28-3.42,33.31s-2,24.82-2.7,33.37c-.34,4.24-.62,7.68-.81,10.11-.11,1.16-.19,2.08-.25,2.75,0,.29-.05.53-.08.72A.92.92,0,0,1,460.75,399Z" style="fill:#263238"></path><path d="M536.93,252.82a49.75,49.75,0,0,0-3.54-7.47,48.71,48.71,0,0,0-5.19-6.42,8.16,8.16,0,0,1,1.9,1.54,24.89,24.89,0,0,1,6.26,10A8.16,8.16,0,0,1,536.93,252.82Z" style="fill:#263238"></path><path d="M470.55,369.23s.13.23.1.68a2.78,2.78,0,0,1-.82,1.7,2.58,2.58,0,0,1-2.71.61,3,3,0,0,1-1.4-1,2.7,2.7,0,0,1-.56-1.75,3.65,3.65,0,0,1,.72-2.18,2.19,2.19,0,0,1,.88-.69c.36-.14.62-.2.92-.3h.07a3.22,3.22,0,0,1,1.81.52,2.33,2.33,0,0,1,.84,1.2,2.26,2.26,0,0,1,.15,1.22c-.06,0-.11-.44-.4-1.13a2.21,2.21,0,0,0-.8-1,2.86,2.86,0,0,0-1.6-.37h.07c-.28.09-.62.2-.87.3a1.77,1.77,0,0,0-.67.56,3.12,3.12,0,0,0-.6,1.87,2.37,2.37,0,0,0,1.6,2.3,2.23,2.23,0,0,0,2.3-.43,2.8,2.8,0,0,0,.87-1.46A5.36,5.36,0,0,1,470.55,369.23Z" style="fill:#263238"></path><path d="M469.15,402.36s.13.23.1.68a2.78,2.78,0,0,1-.82,1.7,2.58,2.58,0,0,1-2.71.61,3,3,0,0,1-1.4-1,2.8,2.8,0,0,1-.56-1.76,3.65,3.65,0,0,1,.72-2.18,2.19,2.19,0,0,1,.88-.69c.36-.14.62-.2.92-.3h.07a3.14,3.14,0,0,1,1.81.53,2.76,2.76,0,0,1,1,2.41c-.06,0-.11-.44-.4-1.13a2.21,2.21,0,0,0-.8-1,2.86,2.86,0,0,0-1.6-.37h.07c-.28.09-.62.2-.87.3a1.77,1.77,0,0,0-.67.56,3.18,3.18,0,0,0-.6,1.87,2.37,2.37,0,0,0,1.6,2.3,2.23,2.23,0,0,0,2.3-.43,2.74,2.74,0,0,0,.87-1.46A5.36,5.36,0,0,1,469.15,402.36Z" style="fill:#263238"></path><path d="M549,259.09c-.06.09-1.3-.7-3.49-1.54a24.15,24.15,0,0,0-4-1.13,27,27,0,0,0-5-.45,27.31,27.31,0,0,0-5,.59,24,24,0,0,0-3.92,1.23c-2.17.91-3.39,1.73-3.45,1.65a4.26,4.26,0,0,1,.83-.63,9.16,9.16,0,0,1,1-.63,14.83,14.83,0,0,1,1.44-.72,22.41,22.41,0,0,1,4-1.37,23.19,23.19,0,0,1,10.22-.14,20.9,20.9,0,0,1,4,1.26,12.65,12.65,0,0,1,1.46.68,9.07,9.07,0,0,1,1,.6A3.93,3.93,0,0,1,549,259.09Z" style="fill:#263238"></path><g style="opacity:0.30000000000000004"><path d="M466.63,346.74c4.07-5.93,5.57-11.52,7.74-18.38,3.24-10.19,4.14-21.7,9.22-31.11,3-5.54,6.5-11.23,11.7-14.78s5.82-7.87,5.72-19.79c3.62,0,7.46-2.75,7.91-3.24a20.26,20.26,0,0,0,4.45-8.33l-6.79,7.35s-9.19,1.71-9.05,1.65c-.23,4.58-.24,8.6-.46,13.19,0,0-17.63,18.7-19,22.46S466.63,346.74,466.63,346.74Z"></path></g><g style="opacity:0.30000000000000004"><path d="M532.09,463.53c22.34-42.29,29.29-97.9,28-150.87,0,0-6.42,64.38-8.58,75.43S532.09,463.53,532.09,463.53Z"></path></g><path d="M535.5,227.59a2.73,2.73,0,0,1-.5.38l-1.49,1L528,232.62l-18.34,11.82-7.92,5h0l-2.53,2a19.38,19.38,0,0,0-2.25,1.92c-1.39,1.34-2.62,2.64-3.73,3.82l-.2.22-.12-.27c-1.19-2.77-2.17-5-2.88-6.67-.31-.75-.57-1.35-.76-1.82A2.82,2.82,0,0,1,489,248a5.33,5.33,0,0,1,.33.61l.85,1.79,3,6.6-.31-.05c1.09-1.21,2.31-2.52,3.69-3.89a22.39,22.39,0,0,1,2.29-2l2.51-2h0l7.91-5.07,18.43-11.7,5.61-3.49,1.54-.93A2.94,2.94,0,0,1,535.5,227.59Z" style="fill:#263238"></path><path d="M213.71,205c-2.58-7.08-5.14-14.21-6.47-21.63s-1.39-15.21,1-22.37c.36-1.08,3.49-8.39,4.63-8.31.82.05-1,6.82-.59,7.51,4.16,6.59,5.52,14.65,5.17,22.44A101.66,101.66,0,0,1,213.71,205" style="fill:#263238"></path><path d="M216.14,245.13l-2.76-68.42c-1.29-18.86,7.16-35.79,26.05-36.56l2,0a33.47,33.47,0,0,1,32.83,31.36c1,16.43,2,34.68,1.72,43.49-.54,18.14-18.73,20.65-18.73,20.65s.77,13.14.91,18.46c0,0-1.92,1.4-18.81,2S216.14,245.13,216.14,245.13Z" style="fill:#ae7461"></path><path d="M257.3,235.69a43.83,43.83,0,0,1-23.5-7.4s5.53,13.29,23.66,12Z" style="fill:#6f4439"></path><path d="M268.79,188.64a2.6,2.6,0,0,1-2.54,2.57,2.47,2.47,0,0,1-2.63-2.38,2.58,2.58,0,0,1,2.54-2.57A2.48,2.48,0,0,1,268.79,188.64Z" style="fill:#263238"></path><path d="M243.69,189.3a2.6,2.6,0,0,1-2.55,2.57,2.47,2.47,0,0,1-2.62-2.38,2.58,2.58,0,0,1,2.54-2.57A2.48,2.48,0,0,1,243.69,189.3Z" style="fill:#263238"></path><path d="M269.73,181.54c-.32.34-2.26-1.15-5.05-1.19s-4.85,1.32-5.15,1c-.15-.15.19-.76,1.09-1.39a7.18,7.18,0,0,1,4.13-1.2,6.84,6.84,0,0,1,4,1.38C269.61,180.78,269.89,181.4,269.73,181.54Z" style="fill:#263238"></path><path d="M242.9,182.26c-.33.33-2.27-1.15-5.05-1.19s-4.86,1.31-5.15,1c-.15-.16.18-.76,1.09-1.39a7.09,7.09,0,0,1,4.13-1.2,6.84,6.84,0,0,1,4,1.38C242.78,181.5,243.06,182.11,242.9,182.26Z" style="fill:#263238"></path><path d="M252.74,203.51c0-.16,1.73-.43,4.54-.74.72-.06,1.39-.19,1.52-.67a3.59,3.59,0,0,0-.44-2.12l-2-5.46c-2.79-7.77-4.79-14.15-4.48-14.26s2.83,6.1,5.62,13.87l1.92,5.48a4.17,4.17,0,0,1,.32,2.8,1.81,1.81,0,0,1-1.19,1,4.63,4.63,0,0,1-1.21.14C254.5,203.68,252.75,203.67,252.74,203.51Z" style="fill:#263238"></path><path d="M242.92,172.31c-.34.73-3.08.12-6.38.22s-6,.75-6.38,0c-.16-.34.36-1,1.49-1.64a11.06,11.06,0,0,1,9.72-.19C242.52,171.32,243.07,172,242.92,172.31Z" style="fill:#263238"></path><path d="M270,170.36c-.53.67-2.8.15-5.48.3s-4.92.74-5.49.12c-.24-.31.07-1,1-1.63a9.08,9.08,0,0,1,8.84-.34C269.87,169.4,270.22,170,270,170.36Z" style="fill:#263238"></path><path d="M214.63,190c-.31-.14-12.4-3.9-12.22,8.5s12.6,9.67,12.61,9.32S214.63,190,214.63,190Z" style="fill:#ae7461"></path><path d="M211,203.26c-.06,0-.22.15-.58.33a2.13,2.13,0,0,1-1.62,0c-1.31-.46-2.45-2.52-2.54-4.76a7,7,0,0,1,.56-3.1,2.51,2.51,0,0,1,1.6-1.69,1.11,1.11,0,0,1,1.29.58c.17.34.09.59.16.61s.26-.21.16-.72a1.41,1.41,0,0,0-.5-.77,1.63,1.63,0,0,0-1.2-.3,3,3,0,0,0-2.24,2,7.36,7.36,0,0,0-.69,3.47c.11,2.5,1.43,4.82,3.23,5.31a2.32,2.32,0,0,0,2-.36C210.94,203.56,211,203.28,211,203.26Z" style="fill:#6f4439"></path><path d="M265.82,151.48c2-1.16-4.19-7.52-9.18-9.64-7.54-3.21-19-5-25.8-2.92-8.23,2.54-15,6.82-19,14.45s-5.34,16.45-4.89,25c.13,2.63.47,5.36,1.92,7.54,1.8,2.71,5.16,4.36,5.1,8.14a5.21,5.21,0,0,0,1.38,3.76c2.33,2.36,5,0,6.28-2.28,2.61-4.92,2.78-10.73,2.89-16.3.08-4,.14-8-1.06-11.78-.66-2.05-1.68-4-2.22-6.07a7.46,7.46,0,0,1,.74-6.22,7.26,7.26,0,0,1,1-1,12.93,12.93,0,0,1,12.78-2.74c7,2.31,19.06,5.72,22.12,3.28,4.4-3.52,5.42-5.77,5.42-5.77Z" style="fill:#263238"></path><path d="M243,204.66c.45-.06.7,3,3.44,4.89s5.93,1.34,6,1.76c0,.19-.67.64-2,.79a7.52,7.52,0,0,1-5-1.31,6.56,6.56,0,0,1-2.69-4.1C242.55,205.44,242.82,204.66,243,204.66Z" style="fill:#263238"></path><path d="M188,416.11s-10.5,24.62-9.45,34.59,6.95,25.08,6.95,25.08h83.13s.41-8.33,2.16-20.64,2.83-39,2.83-39Z" style="fill:#263238"></path><path d="M265.37,264.19c0,1.68,5.56,38.86,6.52,48.47,1.52,15.17,5.53,90.32,4.19,96.82s-1.64,7.69-1.64,7.69-72.72,2.73-81.6,3.51-12.64.52-14.8-9.62.39-59,.39-71.83c0-13.85-1.73-24.91-2.45-43.83-.64-16.4,3.38-26.46,11.18-36s22.41-19.94,22.41-19.94l6.12-8.93L259,253.49l1-5.22,2.63,8.13Z" style="fill:#455a64"></path><g style="opacity:0.30000000000000004"><path d="M284,377.09c-.72-1.84-3.06-2.3-5-2.52-18.37-2-37.49-6.62-50.9-19.33-5.25-5-9.38-11-13.37-17C206,325.05,197.8,311.53,189.6,298l-6.36,2.4c3.9,19.08,7.74,32.9,14.1,48.54s11.28,30.81,27.39,35.93c10.41,3.31,30.18.78,41.07-.08a63.1,63.1,0,0,0,13.49-2.11,8.74,8.74,0,0,0,3.65-1.86A3.57,3.57,0,0,0,284,377.09Z"></path></g><path d="M181,295.44c.48.84,37.23,79.34,53.64,82.57s67.41,4,77.36,2.1,21.18-5.05,21.18-5.05l2-29.39-16.58-.47s-38.09-2.05-43.47-3.52-10-6.52-14.87-6.25l-29-67.43S212.48,250.51,199,255.89,177.06,288.43,181,295.44Z" style="fill:#455a64"></path><path d="M227.47,262.71s-.52-.48-1.43-1.32a27.46,27.46,0,0,0-11.34-6.26,26.43,26.43,0,0,0-9.45-.83,26.73,26.73,0,0,0-9.1,2.68,27.4,27.4,0,0,0-6.38,4.44,27.05,27.05,0,0,0-3.49,3.94c-.73,1-1.1,1.6-1.14,1.58a2.06,2.06,0,0,1,.22-.46c.17-.28.39-.72.75-1.23a24,24,0,0,1,3.41-4.09,25.8,25.8,0,0,1,25.31-6.5,26.8,26.8,0,0,1,7.2,3.24,24.32,24.32,0,0,1,4.15,3.34,12.38,12.38,0,0,1,1,1.07A2,2,0,0,1,227.47,262.71Z" style="fill:#263238"></path><path d="M260.17,335.49a35.8,35.8,0,0,1-1.85,5.69,33.43,33.43,0,0,1-2.35,5.51,35.29,35.29,0,0,1,1.86-5.69A34.44,34.44,0,0,1,260.17,335.49Z" style="fill:#263238"></path><path d="M260.07,256.1a7.38,7.38,0,0,1-1-.51L256.35,254l.19-.09c-.54,2.74-1.06,6.76-2,11.58l-.06.32-.28-.18c-4-2.53-8.85-5.43-14-8.55-3.84-2.29-7.43-4.62-10.74-6.62s-6.36-3.71-8.92-5.15L214.5,242l-1.65-.93a2.79,2.79,0,0,1-.56-.35,2.54,2.54,0,0,1,.61.26l1.69.84c1.46.74,3.57,1.84,6.15,3.23s5.64,3.09,9,5.06l10.76,6.59c5.15,3.11,10,6,14,8.61l-.34.15c1-4.79,1.55-8.81,2.17-11.54l0-.18.15.1,2.68,1.66A5.69,5.69,0,0,1,260.07,256.1Z" style="fill:#263238"></path><g style="opacity:0.30000000000000004"><path d="M218.38,243.93,241,260.78c5,3.71,10.08,7.48,16,9.38l-.33-15.72-2.32,11Z"></path></g><path d="M333.18,375.06s0-.18,0-.52,0-.88.08-1.53c.08-1.37.2-3.34.35-5.87.33-5.11.8-12.45,1.39-21.48l.18.21L280.58,343l-7.66-.42h-.13l-.07-.1a18,18,0,0,0-5.45-5.45,9.31,9.31,0,0,0-7-1.26l-.23.07-.08-.2L242.83,295.3l-4.93-11.71c-.56-1.35-1-2.41-1.3-3.14-.13-.35-.24-.62-.32-.82s-.1-.28-.1-.28a1.21,1.21,0,0,1,.14.26l.36.8c.33.73.79,1.77,1.38,3.11l5.06,11.66,17.28,40.21-.31-.14a9.7,9.7,0,0,1,7.45,1.29,18.61,18.61,0,0,1,5.61,5.6L273,342l7.66.42,54.6,3h.2v.2c-.66,9-1.19,16.36-1.56,21.47-.2,2.52-.35,4.49-.46,5.86-.05.65-.1,1.15-.13,1.52A4.05,4.05,0,0,1,333.18,375.06Z" style="fill:#263238"></path><polygon points="272.04 418.93 284.19 475.78 267.46 475.78 272.04 418.93" style="fill:#263238"></polygon><path d="M270.77,439.47c.15,0-.49,8.17-1.41,18.22s-1.79,18.18-1.93,18.16.49-8.16,1.41-18.21S270.63,439.46,270.77,439.47Z" style="fill:#455a64"></path></g></svg>
