<svg xmlns="http://www.w3.org/2000/svg" viewBox="0 0 500 500"><g id="freepik--background-complete--inject-44"><path d="M185.37,118.5a57.25,57.25,0,1,1-40.29-70.13A57.19,57.19,0,0,1,185.37,118.5Z" style="fill:#f5f5f5"></path><path d="M173.59,115.91a43.63,43.63,0,1,1-30.7-53.44A43.59,43.59,0,0,1,173.59,115.91Z" style="fill:#f5f5f5"></path><path d="M172.22,114.93a4.61,4.61,0,0,1,.11-.7c.09-.5.23-1.18.39-2,.09-.45.2-.94.31-1.49s.12-1.17.2-1.83a31,31,0,0,0,.28-4.57,41.32,41.32,0,0,0-1.67-12.39,43.3,43.3,0,0,0-45.31-31.34,44.43,44.43,0,0,0-6.08.91c-1,.23-2,.56-3,.84a21.48,21.48,0,0,0-3,1,48,48,0,0,0-5.82,2.73,47.35,47.35,0,0,0-5.39,3.71,41.63,41.63,0,0,0-9.08,9.84,46.07,46.07,0,0,0-5.72,12.54A45.72,45.72,0,0,0,87,105.9,41.63,41.63,0,0,0,89.89,119a49.35,49.35,0,0,0,2.78,5.93,48,48,0,0,0,3.64,5.29,43.69,43.69,0,0,0,4.22,4.66,44.36,44.36,0,0,0,4.78,3.86,43.44,43.44,0,0,0,21.4,7.77,43.57,43.57,0,0,0,33.54-11.89,41.37,41.37,0,0,0,7.71-9.85,32.15,32.15,0,0,0,2.07-4.09c.27-.6.54-1.15.75-1.67l.49-1.45.69-2a5.87,5.87,0,0,1,.26-.66,3.2,3.2,0,0,1-.17.68c-.15.49-.35,1.15-.6,2l-.46,1.47c-.19.53-.46,1.08-.71,1.7a31,31,0,0,1-2,4.16,41.37,41.37,0,0,1-7.66,10,43.93,43.93,0,0,1-34,12.29,44.27,44.27,0,0,1-21.81-7.84,45.13,45.13,0,0,1-4.89-3.92,44.47,44.47,0,0,1-4.32-4.75,49,49,0,0,1-3.72-5.39,49.19,49.19,0,0,1-2.85-6A42.4,42.4,0,0,1,86.13,106a46.68,46.68,0,0,1,1.44-14,46.83,46.83,0,0,1,5.84-12.81,42.76,42.76,0,0,1,9.28-10,49.27,49.27,0,0,1,5.51-3.77,48.32,48.32,0,0,1,5.94-2.77,22,22,0,0,1,3-1.06c1-.28,2-.62,3.07-.85a44.93,44.93,0,0,1,29,3.36,43.9,43.9,0,0,1,23.08,27.77,41.16,41.16,0,0,1,1.54,12.54,30.49,30.49,0,0,1-.37,4.6c-.09.66-.15,1.27-.25,1.83s-.24,1-.35,1.49l-.48,2A4.13,4.13,0,0,1,172.22,114.93Z" style="fill:#e0e0e0"></path><path d="M171.77,115.28c-.25-.06.07-2,.28-5.36a46.61,46.61,0,0,0-1.31-14.21,44.42,44.42,0,0,0-3.44-9.15A43.31,43.31,0,0,0,161,77.38a40,40,0,0,0-4.33-4.18,40.36,40.36,0,0,0-5.09-3.65,42.76,42.76,0,0,0-5.77-2.93,44.82,44.82,0,0,0-6.35-2.05,45.54,45.54,0,0,0-6.59-1,42.45,42.45,0,0,0-6.48,0,42.47,42.47,0,0,0-11.94,2.75,43.74,43.74,0,0,0-9.78,5.35,45.12,45.12,0,0,0-7.2,6.62,46.54,46.54,0,0,0-7.57,12.1c-1.36,3.14-1.92,5-2.18,4.91s0-2,1-5.36a40.74,40.74,0,0,1,7-13.15,43.81,43.81,0,0,1,17.66-13.32,43.54,43.54,0,0,1,12.8-3.15,42.85,42.85,0,0,1,7-.08,47.35,47.35,0,0,1,7.12,1.09,48.4,48.4,0,0,1,6.84,2.23,44.23,44.23,0,0,1,6.2,3.21,43.34,43.34,0,0,1,5.44,4,42,42,0,0,1,4.57,4.58,44.24,44.24,0,0,1,6.49,10A43.75,43.75,0,0,1,173,95.17a40.78,40.78,0,0,1,.31,14.89C172.72,113.53,172,115.33,171.77,115.28Z" style="fill:#e0e0e0"></path><path d="M128.06,129.91l-1.89,7.36-6.57-1.69,1.84-7.16c-6.41-2.06-12.13-5.7-15-9.45l5.66-7.09a27.46,27.46,0,0,0,11.56,7.93l2.81-11c-6.84-3.64-14.37-8.16-12-17.56,1.78-7,8.38-11.66,19.06-10.18l1.87-7.3L142,75.48l-1.84,7.16a30.72,30.72,0,0,1,12.32,7.43l-5.36,7.24a27.79,27.79,0,0,0-9.18-6l-2.86,11.17c6.86,3.58,14.25,8.07,11.88,17.34C145.21,126.66,138.7,131.3,128.06,129.91Zm.87-30.74,2.39-9.34c-3.69-.1-5.56,1.45-6.11,3.62S126.27,97.51,128.93,99.17Zm7.25,18.74c.59-2.31-1-4-3.57-5.75l-2.33,9.07C133.75,121.35,135.64,120,136.18,117.91Z" style="fill:#e0e0e0"></path><path d="M99.59,203.49a38.41,38.41,0,1,1-49.44-22.34A38.37,38.37,0,0,1,99.59,203.49Z" style="fill:#f5f5f5"></path><path d="M92.17,206.71a29.27,29.27,0,1,1-37.68-17A29.24,29.24,0,0,1,92.17,206.71Z" style="fill:#f5f5f5"></path><path d="M91,206.71a2.45,2.45,0,0,1-.22-.42c-.14-.31-.34-.73-.58-1.27l-.42-.93c-.17-.33-.39-.68-.61-1.07a21.17,21.17,0,0,0-1.64-2.6,27.64,27.64,0,0,0-5.77-6.08,29.18,29.18,0,0,0-23.16-5.82,29.24,29.24,0,0,0-13.79,6.54,29.76,29.76,0,0,0-3,2.89c-.46.52-.87,1.09-1.31,1.64a12.54,12.54,0,0,0-1.21,1.74,31.85,31.85,0,0,0-2.1,3.76,34.34,34.34,0,0,0-1.48,4.13,28.25,28.25,0,0,0-1.07,8.92,28.55,28.55,0,0,0,6.42,17.08,28,28,0,0,0,6.69,6,33.71,33.71,0,0,0,3.84,2.14,32.67,32.67,0,0,0,4,1.45,26.69,26.69,0,0,0,8.25,1.1,29.18,29.18,0,0,0,14.68-4.17,28.84,28.84,0,0,0,9.54-9.34,29.34,29.34,0,0,0,4-10.3,27.73,27.73,0,0,0,.32-8.38,20.52,20.52,0,0,0-.48-3c-.09-.44-.15-.84-.25-1.21s-.2-.68-.29-1l-.4-1.33a3.17,3.17,0,0,1-.11-.46,2.32,2.32,0,0,1,.17.44l.46,1.32c.09.29.2.62.32,1s.18.77.28,1.21a20.08,20.08,0,0,1,.54,3,27.6,27.6,0,0,1-.23,8.46,29.43,29.43,0,0,1-13.65,20,29,29,0,0,1-23.36,3.19,32.44,32.44,0,0,1-4.14-1.47,34.14,34.14,0,0,1-3.92-2.17,28.51,28.51,0,0,1-6.83-6.12,29,29,0,0,1-6.56-17.45,28.22,28.22,0,0,1,1.11-9.1,32,32,0,0,1,1.51-4.22A32.47,32.47,0,0,1,38.89,201a13.8,13.8,0,0,1,1.24-1.78c.45-.55.87-1.13,1.34-1.67a30.77,30.77,0,0,1,3-2.93A29.62,29.62,0,0,1,58.55,188a29.4,29.4,0,0,1,23.46,6,27.31,27.31,0,0,1,5.75,6.21,20.91,20.91,0,0,1,1.61,2.65c.21.4.42.75.58,1.09l.4.95c.22.55.4,1,.53,1.29A3.63,3.63,0,0,1,91,206.71Z" style="fill:#e0e0e0"></path><path d="M90.93,207.08c-.16.06-.73-1.09-2-3a31.57,31.57,0,0,0-6.29-7.22,30,30,0,0,0-5.47-3.62,29.13,29.13,0,0,0-7-2.52,28.55,28.55,0,0,0-8.19-.56,27.88,27.88,0,0,0-4.29.67,32,32,0,0,0-4.26,1.37,31,31,0,0,0-4,2,27.84,27.84,0,0,0-3.52,2.56,26.91,26.91,0,0,0-3,3,27.27,27.27,0,0,0-2.43,3.23,28.83,28.83,0,0,0-3.22,6.75A30.41,30.41,0,0,0,36,216.12a31.22,31.22,0,0,0,.63,9.55c.49,2.23.91,3.46.74,3.52s-.8-1.06-1.57-3.29a27.36,27.36,0,0,1-1.37-9.9,30.33,30.33,0,0,1,1.13-6.87,29.6,29.6,0,0,1,3.25-7.3,29.17,29.17,0,0,1,5.73-6.74,30.06,30.06,0,0,1,3.77-2.78,32.2,32.2,0,0,1,4.3-2.2,30,30,0,0,1,4.6-1.47,29.41,29.41,0,0,1,9.16-.65,29.4,29.4,0,0,1,4.28.69,30,30,0,0,1,7.45,2.89,29.24,29.24,0,0,1,5.64,4.08,27.22,27.22,0,0,1,6,8C90.76,205.75,91.05,207,90.93,207.08Z" style="fill:#e0e0e0"></path><path d="M72.89,232.19l1.87,4.74-4.24,1.66L68.71,234c-4.3,1.39-8.84,1.66-11.88.75l.29-6.08a18.51,18.51,0,0,0,9.41-.22l-2.78-7.08c-5.16.71-11,1.2-13.4-4.86-1.77-4.49,0-9.62,6.37-13l-1.84-4.7,4.23-1.66,1.82,4.62a20.46,20.46,0,0,1,9.61-.8l-.07,6a18.6,18.6,0,0,0-7.35.34l2.83,7.2c5.14-.75,10.92-1.21,13.27,4.76C81,223.69,79.23,228.77,72.89,232.19ZM61.3,215.12l-2.36-6c-2,1.39-2.46,3-1.91,4.37S59.2,215.26,61.3,215.12Zm11.3,7.35c-.58-1.48-2.13-1.8-4.2-1.72l2.3,5.84C72.63,225.3,73.13,223.83,72.6,222.47Z" style="fill:#e0e0e0"></path><path d="M476.93,289.53a38.35,38.35,0,0,1-22.45,49.38,39.21,39.21,0,0,1-6.52,1.83,38.33,38.33,0,1,1,29-51.21Z" style="fill:#f5f5f5"></path><path d="M469.5,292.75a29.26,29.26,0,1,1-37.67-17A29.23,29.23,0,0,1,469.5,292.75Z" style="fill:#f5f5f5"></path><path d="M468.38,292.75a2.36,2.36,0,0,1-.22-.43c-.15-.31-.34-.72-.58-1.26l-.43-.93c-.17-.33-.39-.68-.6-1.07a21.63,21.63,0,0,0-1.64-2.6,28.38,28.38,0,0,0-5.77-6.09,29.08,29.08,0,0,0-36.95.73,30.8,30.8,0,0,0-2.95,2.88c-.46.53-.87,1.1-1.31,1.64a13.86,13.86,0,0,0-1.21,1.74,32.8,32.8,0,0,0-2.1,3.77,33.73,33.73,0,0,0-1.48,4.13,28,28,0,0,0-1.07,8.92,28.55,28.55,0,0,0,6.42,17.08,27.78,27.78,0,0,0,6.69,6A32.75,32.75,0,0,0,429,329.4a33.4,33.4,0,0,0,4.06,1.45,31.66,31.66,0,0,0,4.13.88,30,30,0,0,0,4.12.22,29.09,29.09,0,0,0,28.26-23.81,27.45,27.45,0,0,0,.33-8.38,20.52,20.52,0,0,0-.48-3c-.09-.44-.16-.85-.25-1.21l-.3-1c-.16-.56-.29-1-.39-1.33a3.17,3.17,0,0,1-.11-.46,3,3,0,0,1,.17.44l.45,1.32.33,1c.1.36.18.77.28,1.21a19.85,19.85,0,0,1,.54,3.05,27.6,27.6,0,0,1-.23,8.46,29.38,29.38,0,0,1-13.65,20,29,29,0,0,1-23.36,3.2,34.06,34.06,0,0,1-4.14-1.47,32.76,32.76,0,0,1-3.92-2.18,28.26,28.26,0,0,1-6.83-6.11,31.51,31.51,0,0,1-4.72-8.19,31,31,0,0,1-1.84-9.26,28.49,28.49,0,0,1,1.1-9.1,33.59,33.59,0,0,1,1.52-4.22,34.93,34.93,0,0,1,2.14-3.84,15.68,15.68,0,0,1,1.25-1.77c.45-.56.87-1.13,1.34-1.67a30.77,30.77,0,0,1,3-2.93,29.62,29.62,0,0,1,14.07-6.61,29.4,29.4,0,0,1,23.46,6.05,27.31,27.31,0,0,1,5.75,6.21,20.91,20.91,0,0,1,1.61,2.65c.21.4.42.75.58,1.09l.4.95c.22.55.4,1,.53,1.29A3.05,3.05,0,0,1,468.38,292.75Z" style="fill:#e0e0e0"></path><path d="M468.27,293.11c-.16.07-.73-1.09-2-3a31.24,31.24,0,0,0-6.28-7.22,29.5,29.5,0,0,0-5.47-3.62,29.13,29.13,0,0,0-7-2.52,28.55,28.55,0,0,0-8.19-.56,27.88,27.88,0,0,0-4.29.67,30.57,30.57,0,0,0-4.26,1.37,31.78,31.78,0,0,0-4,2,28.46,28.46,0,0,0-3.51,2.56,26.07,26.07,0,0,0-3,2.95,27.27,27.27,0,0,0-2.43,3.23,28.83,28.83,0,0,0-3.22,6.75,29.84,29.84,0,0,0-1.32,6.42,31.26,31.26,0,0,0,.63,9.56c.49,2.23.91,3.46.74,3.52s-.81-1.06-1.58-3.29a27.44,27.44,0,0,1-1.36-9.9,29.38,29.38,0,0,1,4.38-14.18,29.41,29.41,0,0,1,5.73-6.73,28.73,28.73,0,0,1,3.77-2.79,31.61,31.61,0,0,1,4.3-2.2,32.62,32.62,0,0,1,4.59-1.47,31.33,31.33,0,0,1,4.64-.69,29.82,29.82,0,0,1,8.81.74,29.38,29.38,0,0,1,13.09,7,27.48,27.48,0,0,1,6,8C468.1,291.79,468.39,293.07,468.27,293.11Z" style="fill:#e0e0e0"></path><path d="M450.23,318.23l1.86,4.74-4.23,1.66L446,320c-4.29,1.39-8.83,1.66-11.88.75l.3-6.08a18.47,18.47,0,0,0,9.4-.22l-2.78-7.08c-5.15.7-11,1.2-13.4-4.86-1.76-4.49,0-9.63,6.38-13l-1.85-4.7,4.24-1.66,1.82,4.61a20.58,20.58,0,0,1,9.61-.79l-.07,6a18.59,18.59,0,0,0-7.35.35l2.83,7.2c5.14-.75,10.92-1.21,13.27,4.76C458.29,309.73,456.56,314.81,450.23,318.23Zm-11.59-17.07-2.37-6c-2,1.39-2.45,3-1.9,4.36S436.54,301.3,438.64,301.16Zm11.3,7.35c-.59-1.48-2.13-1.8-4.2-1.73l2.29,5.85C450,311.33,450.47,309.87,449.94,308.51Z" style="fill:#e0e0e0"></path><polygon points="11.48 470.75 142.34 237.18 355.92 219.4 400.56 99.82 441.37 123.1 381.43 266.15 180.22 283.93 73 471 11.48 470.75" style="fill:#e0e0e0"></polygon><polygon points="358.31 105.03 450.27 32.1 472.43 147.34 358.31 105.03" style="fill:#e0e0e0"></polygon></g><g id="freepik--Floor--inject-44"><path d="M465.64,470.76c0,.14-97.89.26-218.63.26s-218.65-.12-218.65-.26,97.87-.26,218.65-.26S465.64,470.62,465.64,470.76Z" style="fill:#263238"></path></g><g id="freepik--piggy-bank--inject-44"><polygon points="93.15 448.75 103.16 470.86 108 470.86 108.69 469.18 109.55 470.86 112.72 470.86 112.35 457.95 112.19 450.33 93.15 448.75" style="fill:#455a64"></polygon><g style="opacity:0.30000000000000004"><polygon points="93.15 448.75 103.16 470.86 108 470.86 108.69 469.18 109.55 470.86 112.72 470.86 112.35 457.95 112.19 450.33 93.15 448.75"></polygon></g><polygon points="136.98 451.12 146.75 470.86 151.58 470.86 152.28 469.32 153.13 470.86 156.31 470.86 155.94 459.05 155.78 452.06 136.98 451.12" style="fill:#455a64"></polygon><g style="opacity:0.30000000000000004"><polygon points="136.98 451.12 146.75 470.86 151.58 470.86 152.28 469.32 153.13 470.86 156.31 470.86 155.94 459.05 155.78 452.06 136.98 451.12"></polygon></g><path d="M187.76,412.93c1.45,32.82-26.06,49.19-57.2,49.19S74.18,440.8,74.18,414.5s25.24-47.62,56.38-47.62S186.59,386.66,187.76,412.93Z" style="fill:#455a64"></path><g style="opacity:0.30000000000000004"><path d="M126.63,378.64s3.74-1.19,7.24,2.77,8.37,10.69,8.37,10.69A6.46,6.46,0,0,1,138,397Z"></path></g><ellipse cx="93.48" cy="433.82" rx="19.31" ry="14.8" style="fill:#455a64"></ellipse><path d="M111.49,394.27s11.32-17.56,16.5-15.65S138,397,138,397" style="fill:#455a64"></path><path d="M98.69,390.25l-.52-4.76a98,98,0,0,0-13.43-4.41c-6.35-1.45-7.6,0-7.6,0l10,14.06Z" style="fill:#455a64"></path><g style="opacity:0.30000000000000004"><path d="M113.8,373.41l3.75,2.23s18.19-4.81,32.15,0l-5.12-4.36S127.64,367.64,113.8,373.41Z"></path></g><g style="opacity:0.30000000000000004"><ellipse cx="93.48" cy="433.82" rx="19.31" ry="14.8"></ellipse></g><ellipse cx="88.58" cy="433.82" rx="18.09" ry="14.8" style="fill:#455a64"></ellipse><g style="opacity:0.30000000000000004"><rect x="79.69" y="426.88" width="3.87" height="13.88" rx="1.81"></rect></g><g style="opacity:0.30000000000000004"><rect x="90.09" y="426.88" width="3.87" height="13.88" rx="1.81"></rect></g><g style="opacity:0.30000000000000004"><path d="M97.6,390.71a3.61,3.61,0,0,0,1.88-4.55,105.47,105.47,0,0,0-14.74-5.08c-6.35-1.45-7.6,0-7.6,0l10,14.06Z"></path></g><path d="M98.17,391.1l-1.27-.85c-3.74-2.5-14.68-9.65-17.45-9.73-3.81-.11-3.81,3.17-3.81,5.71,0,1.8,1.48,17.45,1.48,17.45" style="fill:#455a64"></path><path d="M138,397s0,0,0-.11l-.11-.32c-.1-.3-.24-.71-.41-1.24-.37-1.08-.91-2.63-1.66-4.53a58.77,58.77,0,0,0-3-6.48,23,23,0,0,0-2.3-3.52,8.49,8.49,0,0,0-1.57-1.54,3,3,0,0,0-2.06-.7,5.17,5.17,0,0,0-2.12.74,13.62,13.62,0,0,0-1.82,1.25,31.47,31.47,0,0,0-3.06,2.89c-1.83,2-3.34,3.86-4.58,5.47s-2.18,3-2.83,3.89l-.75,1.08-.2.28-.07.09.06-.1.18-.29c.16-.26.4-.63.71-1.1.64-.95,1.57-2.3,2.79-3.93a69.19,69.19,0,0,1,4.56-5.51,29.53,29.53,0,0,1,3.07-2.91,13.49,13.49,0,0,1,1.85-1.28,5.35,5.35,0,0,1,2.19-.76,2.49,2.49,0,0,1,1.18.16,4.89,4.89,0,0,1,1,.58,8.82,8.82,0,0,1,1.6,1.57,22.53,22.53,0,0,1,2.3,3.55,56.62,56.62,0,0,1,2.94,6.52c.73,1.9,1.25,3.47,1.6,4.55.17.54.3,1,.38,1.26l.09.32Z" style="fill:#263238"></path><path d="M144.58,371.28l.09.06.26.21,1,.83,3.61,3.06.23.2-.3-.08a55.5,55.5,0,0,0-6.63-1.45,57.11,57.11,0,0,0-8.27-.67,59.28,59.28,0,0,0-16.86,2.26h0L114.8,374l-.75-.45-.19-.12-.06,0,.07,0,.2.1.77.43,2.88,1.63h0a55.8,55.8,0,0,1,7.2-1.63c1.44-.24,3-.41,4.61-.56s3.33-.19,5.08-.16a55.12,55.12,0,0,1,14.94,2.18l-.06.12-3.57-3.1-1-.86-.25-.22A.45.45,0,0,1,144.58,371.28Z" style="fill:#263238"></path><g style="opacity:0.2"><path d="M123.67,420c-.09.53-.64.93-1.41,1.2a9.64,9.64,0,0,1-2.89.42,9.23,9.23,0,0,1-2.9-.36c-.78-.25-1.33-.63-1.43-1.16s.3-1.09,1.08-1.55a6.66,6.66,0,0,1,3.21-.79,6.56,6.56,0,0,1,3.22.72C123.34,419,123.75,419.51,123.67,420Z" style="fill:#fff"></path></g><path d="M99.37,422l-.11-.07-.3-.2-.48-.32-.7-.39A16.39,16.39,0,0,0,93,419.34a24.42,24.42,0,0,0-3.49-.32,25.72,25.72,0,0,0-4,.29A20.32,20.32,0,0,0,77,422.62a17.22,17.22,0,0,0-1.87,1.52,15.2,15.2,0,0,0-3.74,5.57,13.32,13.32,0,0,0-.47,7.38,12.21,12.21,0,0,0,1,2.71,11.49,11.49,0,0,0,1.19,1.82l.51.61.42.41.25.25.08.09-.09-.07-.27-.25-.43-.39-.53-.6a11,11,0,0,1-1.22-1.82,12.18,12.18,0,0,1-1-2.73,13.42,13.42,0,0,1,.43-7.47,14.89,14.89,0,0,1,.93-2A15.08,15.08,0,0,1,75,424a17.85,17.85,0,0,1,1.89-1.54,20.42,20.42,0,0,1,8.58-3.32,23.7,23.7,0,0,1,4-.28,23,23,0,0,1,3.5.35,15.76,15.76,0,0,1,4.79,1.69c.26.15.49.28.69.41l.47.34.29.22Z" style="fill:#263238"></path><path d="M83.45,428.18a2.81,2.81,0,0,1,0,.59c0,.42,0,1,.07,1.61.05,1.37.16,3.24.21,5.32,0,.52,0,1,0,1.52a7.34,7.34,0,0,1-.11,1.43,2.69,2.69,0,0,1-1.31,2,1.59,1.59,0,0,1-1.59-.08,1,1,0,0,1-.32-.32.51.51,0,0,1-.07-.14,1.67,1.67,0,0,0,.43.39,1.53,1.53,0,0,0,1.49,0,2.57,2.57,0,0,0,1.2-1.89,7.91,7.91,0,0,0,.09-1.4c0-.49,0-1,0-1.51,0-2.08-.14-4-.16-5.32,0-.68,0-1.23,0-1.62A4.63,4.63,0,0,1,83.45,428.18Z" style="fill:#263238"></path><path d="M93.71,428.18a3.49,3.49,0,0,1,0,.59c0,.42,0,1,.07,1.61.06,1.37.17,3.24.22,5.32,0,.52,0,1,0,1.52a8.21,8.21,0,0,1-.11,1.43,2.71,2.71,0,0,1-1.31,2,1.61,1.61,0,0,1-1.6-.08,1.19,1.19,0,0,1-.32-.32c0-.08-.07-.13-.06-.14a1.34,1.34,0,0,0,.42.39,1.54,1.54,0,0,0,1.49,0,2.57,2.57,0,0,0,1.2-1.89,7.89,7.89,0,0,0,.1-1.4c0-.49,0-1,0-1.51,0-2.08-.14-4-.17-5.32,0-.68,0-1.23,0-1.62A3.06,3.06,0,0,1,93.71,428.18Z" style="fill:#263238"></path><path d="M106.45,437.05a2.09,2.09,0,0,1-.08.25c-.07.16-.14.41-.28.72a14.62,14.62,0,0,1-1.35,2.47,18,18,0,0,1-2.75,3.14,19.32,19.32,0,0,1-1.94,1.54,21.07,21.07,0,0,1-2.28,1.35A20.24,20.24,0,0,1,93,448.26a19.16,19.16,0,0,1-4.15.42c-1.19,0-2.15-.07-2.81-.12l-.77-.06-.26,0a1.1,1.1,0,0,1,.27,0l.76,0c.66,0,1.62.06,2.81.05a19.7,19.7,0,0,0,4.12-.45,21.08,21.08,0,0,0,4.76-1.74A20.71,20.71,0,0,0,99.94,445a20.17,20.17,0,0,0,1.93-1.51,18.2,18.2,0,0,0,2.75-3.09A15.09,15.09,0,0,0,106,438c.15-.3.24-.54.31-.7S106.44,437,106.45,437.05Z" style="fill:#263238"></path><path d="M83.23,427.77a4.23,4.23,0,0,0-.25-.37,1.53,1.53,0,0,0-1.06-.48,2.08,2.08,0,0,0-2,1.61,4.7,4.7,0,0,0-.11,1.14c0,1.59,0,3,0,4.09l0,1.24a2.71,2.71,0,0,1,0,.45,1.66,1.66,0,0,1,0-.45c0-.33,0-.75,0-1.24,0-1.05,0-2.49-.07-4.09a5.14,5.14,0,0,1,.12-1.18,2.26,2.26,0,0,1,.53-1,2.17,2.17,0,0,1,1.7-.71,1.54,1.54,0,0,1,1.11.56,1.07,1.07,0,0,1,.17.3Q83.25,427.77,83.23,427.77Z" style="fill:#fff"></path><path d="M90,428.63s.09,1.95.09,4.36,0,4.37-.09,4.37-.1-1.95-.1-4.37S90,428.63,90,428.63Z" style="fill:#fff"></path><path d="M86.91,420.2s-.07,0-.22,0H86a16.59,16.59,0,0,0-2.37.26,15.72,15.72,0,0,0-12.45,11.82c-.08.27-.11.49-.15.63a.66.66,0,0,1-.06.22.73.73,0,0,1,0-.22c0-.15,0-.37.11-.65a14.64,14.64,0,0,1,.68-2.31,15.29,15.29,0,0,1,11.82-9.62,13.29,13.29,0,0,1,2.4-.2,5.85,5.85,0,0,1,.66,0Z" style="fill:#fff"></path><path d="M77.21,401.3s0,.08-.06.21l-.23.59c-.11.25-.23.57-.36.93s-.29.78-.43,1.25-.32,1-.47,1.53-.3,1.15-.45,1.77a38.26,38.26,0,0,0-.68,4.15,38.76,38.76,0,0,0-.19,4.19c0,.65,0,1.26.08,1.83s.09,1.11.14,1.6.12.92.17,1.3.1.72.15,1l.11.62a.73.73,0,0,1,0,.22.64.64,0,0,1-.06-.21l-.14-.62c-.06-.26-.13-.59-.19-1s-.14-.82-.2-1.31-.12-1-.16-1.59-.07-1.2-.1-1.84a36.75,36.75,0,0,1,.18-4.22,36.19,36.19,0,0,1,.7-4.17c.15-.63.3-1.23.47-1.78s.33-1.06.49-1.53.32-.87.46-1.24.27-.67.39-.92.19-.42.26-.57Z" style="fill:#fff"></path><path d="M77.77,382s-.15.2-.38.59a5.91,5.91,0,0,0-.62,1.78,17.42,17.42,0,0,0-.22,2.81c0,1.07,0,2.24,0,3.47.06,2.46.26,4.68.44,6.28l.24,1.89c0,.21,0,.38.07.52s0,.18,0,.18,0-.06,0-.17l-.1-.51c-.08-.45-.19-1.09-.3-1.89a58,58,0,0,1-.5-6.3c0-1.23,0-2.41,0-3.48a15.45,15.45,0,0,1,.27-2.83,5.46,5.46,0,0,1,.69-1.79,3.27,3.27,0,0,1,.31-.42Z" style="fill:#fff"></path><path d="M113.88,370.39l-.24.09-.68.25-2.55.87a86.73,86.73,0,0,0-8.24,3.24,38.76,38.76,0,0,0-7.56,4.58c-.88.71-1.57,1.32-2,1.76-.23.21-.4.39-.52.5l-.2.17.17-.2c.11-.12.27-.31.5-.53a25.27,25.27,0,0,1,2-1.8,36,36,0,0,1,7.56-4.65,73.18,73.18,0,0,1,8.28-3.2c1.08-.35,1.95-.63,2.56-.81l.7-.21A.8.8,0,0,1,113.88,370.39Z" style="fill:#fff"></path><path d="M126.79,379.59l-.16.13-.5.35c-.43.29-1,.74-1.79,1.3s-1.62,1.27-2.56,2.08-1.92,1.75-2.92,2.77-1.88,2.06-2.66,3-1.45,1.86-2,2.63-1,1.41-1.24,1.85l-.33.51a1.8,1.8,0,0,1-.12.17s0-.07.09-.19l.3-.53c.26-.46.66-1.1,1.19-1.88s1.18-1.69,2-2.67,1.67-2,2.67-3,2-2,2.94-2.78,1.82-1.5,2.59-2.05,1.39-1,1.83-1.25l.52-.32Z" style="fill:#fff"></path><path d="M184,405.4a4.18,4.18,0,0,1,.44.93,19.19,19.19,0,0,1,.77,2.38,20.51,20.51,0,0,1,.46,2.45,5.28,5.28,0,0,1,.06,1,6,6,0,0,1-.2-1c-.11-.62-.27-1.49-.51-2.42s-.5-1.78-.71-2.38A8.75,8.75,0,0,1,184,405.4Z" style="fill:#fff"></path><path d="M175.1,447.93l-.19.13-.54.39-.89.63-.57.4-.67.43a74.26,74.26,0,0,1-8.22,4.7q-1.35.64-2.85,1.32l-1.54.66-.79.33-.81.31-1.68.65-1.75.6c-.59.21-1.2.4-1.82.58s-1.23.4-1.87.57a77.18,77.18,0,0,1-8.1,1.82,69.65,69.65,0,0,1-8.86.95,59.54,59.54,0,0,1-8.91-.28L124,462c-.35,0-.7-.1-1-.15l-2.08-.29-2-.38-1-.18-1-.22a71.43,71.43,0,0,1-13.35-4.35A56.55,56.55,0,0,1,95.15,452c-1-.58-1.64-1.13-2.12-1.46l-.54-.4-.18-.14.19.13.55.38c.49.32,1.18.85,2.14,1.43a58.6,58.6,0,0,0,8.36,4.41,72.78,72.78,0,0,0,13.34,4.29l1,.22,1,.19,2,.37,2.07.29,1,.14,1.07.1a60.49,60.49,0,0,0,8.88.28,69.33,69.33,0,0,0,8.84-.95,76.82,76.82,0,0,0,8.08-1.81c.64-.16,1.26-.37,1.87-.55s1.23-.37,1.82-.58l1.74-.6,1.68-.64.81-.31.8-.33,1.53-.64c1-.45,1.95-.88,2.85-1.32a76.57,76.57,0,0,0,8.24-4.64c.24-.14.46-.29.67-.42l.58-.39.9-.61.55-.37A1.31,1.31,0,0,1,175.1,447.93Z" style="fill:#263238"></path><polygon points="159.12 451.9 166.57 470.96 171.67 470.96 172.78 469.31 174.09 470.96 175.89 470.96 176.56 440.75 159.12 451.9" style="fill:#455a64"></polygon><path d="M112.28,454.58l6.3,16.38h5.79l1.18-1.89L126.7,471h1.43s.63-18.48,0-19S112.28,454.58,112.28,454.58Z" style="fill:#455a64"></path><path d="M185.9,418v.11l0,.32c0,.29-.06.7-.11,1.22,0,.27-.06.57-.09.89s-.11.67-.17,1c-.13.75-.24,1.61-.48,2.53-.11.46-.22.95-.34,1.46s-.3,1-.46,1.56c-.29,1.08-.73,2.2-1.17,3.39a48.33,48.33,0,0,1-3.7,7.31,47.34,47.34,0,0,1-5,6.51c-.88.91-1.7,1.79-2.55,2.52-.42.38-.81.76-1.21,1.09l-1.17.94c-.73.61-1.46,1.08-2.07,1.52l-.87.61-.76.46-1.05.63-.28.16-.1,0,.09-.07.27-.17,1-.67.75-.47c.27-.18.55-.4.86-.61.6-.45,1.32-.93,2-1.55l1.16-.95c.4-.33.78-.71,1.2-1.09.84-.73,1.65-1.61,2.53-2.52a45.14,45.14,0,0,0,8.67-13.77c.44-1.18.88-2.29,1.18-3.37.16-.54.34-1.05.46-1.55s.24-1,.36-1.45c.25-.92.36-1.77.5-2.52.07-.37.14-.71.19-1s.07-.61.1-.88c.07-.51.12-.92.15-1.21,0-.13,0-.24,0-.32S185.89,418,185.9,418Z" style="fill:#fff"></path><g style="opacity:0.2"><path d="M177.83,401.88a18.52,18.52,0,0,0-9.65-9.89,5.52,5.52,0,0,0-7.54,4.82v.08a14.79,14.79,0,0,0,2.21,7.65,65.72,65.72,0,0,1,3.85,7.09,18,18,0,0,1,.15,13c-1,2.64-2.64,5.46-1.15,8.09a5.05,5.05,0,0,0,4.93,2.4c3.79-.35,5.75-3.77,7.55-6.88a22.09,22.09,0,0,0,2.7-9.32A41.14,41.14,0,0,0,177.83,401.88Z" style="fill:#fff"></path></g><g style="opacity:0.2"><path d="M163.64,391.06l.29,0h-.29Z" style="fill:#fff"></path></g><path d="M92.23,411.46a2.67,2.67,0,1,1-2.66-2.66A2.67,2.67,0,0,1,92.23,411.46Z" style="fill:#263238"></path><path d="M118.79,411.46a2.67,2.67,0,1,1-2.66-2.66A2.67,2.67,0,0,1,118.79,411.46Z" style="fill:#263238"></path><path d="M177,389.15s-.07-.06-.19-.2l-.49-.6c-.22-.26-.48-.58-.8-.94s-.66-.78-1.08-1.22-.85-.93-1.35-1.43-1-1-1.61-1.59c-1.17-1.09-2.5-2.24-3.95-3.37s-2.91-2.11-4.26-3c-.68-.42-1.32-.82-1.94-1.16s-1.2-.67-1.73-.95-1-.52-1.46-.73-.8-.39-1.11-.53l-.7-.33c-.16-.08-.25-.12-.24-.13l.25.09.72.3c.32.13.7.29,1.13.5s.93.43,1.47.71,1.13.58,1.75.93,1.27.74,2,1.15c1.35.85,2.81,1.84,4.28,3s2.78,2.29,3.95,3.39c.57.56,1.12,1.08,1.6,1.61s1,1,1.35,1.45.75.87,1.06,1.24.56.7.76,1,.36.46.47.62S177,389.15,177,389.15Z" style="fill:#fff"></path><path d="M148.91,377.16l-.29-.08-.81-.28c-.36-.13-.79-.28-1.3-.43s-1.08-.35-1.73-.51l-1-.26c-.35-.09-.73-.17-1.11-.25-.76-.19-1.59-.32-2.46-.48a50.63,50.63,0,0,0-5.71-.54,47.69,47.69,0,0,0-5.74.22c-.87.1-1.71.19-2.48.32-.39.07-.77.12-1.12.19l-1,.21c-.66.12-1.24.28-1.76.41s-1,.24-1.31.35l-.83.23-.29.07a1.28,1.28,0,0,1,.28-.11L121,376c.35-.12.79-.26,1.31-.39s1.09-.3,1.75-.43l1-.23,1.12-.19c.78-.15,1.61-.24,2.49-.35a46,46,0,0,1,5.76-.23,46.54,46.54,0,0,1,5.74.56c.87.16,1.7.3,2.47.49l1.11.26,1,.28c.65.17,1.22.38,1.73.54s.93.32,1.28.46l.8.31Z" style="fill:#fff"></path><path d="M176.13,445.59a1.31,1.31,0,0,1,.13-.21l.43-.6c.39-.52,1-1.29,1.67-2.29a58.06,58.06,0,0,0,5.23-9,45.22,45.22,0,0,0,3.93-14.82,42.16,42.16,0,0,0-2.62-18.5,44.39,44.39,0,0,0-10.19-15.69,57.44,57.44,0,0,0-12.24-9.29,68.31,68.31,0,0,0-9.4-4.46c-1.15-.45-2-.75-2.67-1l-.7-.23-.23-.09a.68.68,0,0,1,.25,0l.71.18c.63.18,1.55.45,2.71.87a62.46,62.46,0,0,1,9.51,4.33,56.26,56.26,0,0,1,12.4,9.27A44.41,44.41,0,0,1,185.38,400,42.13,42.13,0,0,1,188,418.73a44.45,44.45,0,0,1-4.07,14.92,54.34,54.34,0,0,1-5.39,9c-.74,1-1.34,1.73-1.75,2.23l-.48.57C176.2,445.54,176.14,445.6,176.13,445.59Z" style="fill:#263238"></path></g><g id="freepik--Character--inject-44"><path d="M319.11,419a38.36,38.36,0,0,1-22.46,49.38,38.8,38.8,0,0,1-6.51,1.82,38.32,38.32,0,1,1,29-51.2Z" style="fill:#407BFF"></path><path d="M311.68,422.25a29.26,29.26,0,1,1-37.67-17A29.23,29.23,0,0,1,311.68,422.25Z" style="fill:#407BFF"></path><path d="M310.55,422.25a2.47,2.47,0,0,1-.21-.42c-.15-.31-.34-.73-.59-1.26q-.18-.42-.42-.93c-.17-.34-.39-.69-.61-1.08a20.39,20.39,0,0,0-1.64-2.59,27.66,27.66,0,0,0-5.77-6.09,29,29,0,0,0-36.94.73,29.65,29.65,0,0,0-2.95,2.88c-.46.52-.87,1.09-1.31,1.64a15.08,15.08,0,0,0-1.22,1.74,35.12,35.12,0,0,0-2.09,3.76,33.88,33.88,0,0,0-1.48,4.14,27.91,27.91,0,0,0-1.08,8.91,28.71,28.71,0,0,0,6.43,17.09,28.14,28.14,0,0,0,6.68,6,33.62,33.62,0,0,0,3.84,2.13,32.24,32.24,0,0,0,4.06,1.45,26.68,26.68,0,0,0,8.24,1.1,29.1,29.1,0,0,0,28.27-23.8,27.78,27.78,0,0,0,.33-8.38,20.67,20.67,0,0,0-.48-3c-.09-.43-.16-.84-.25-1.2l-.3-1c-.16-.56-.29-1-.39-1.33a2.64,2.64,0,0,1-.12-.47,3.35,3.35,0,0,1,.18.44l.45,1.32.33,1c.1.36.18.77.28,1.2a20.3,20.3,0,0,1,.54,3.05,27.66,27.66,0,0,1-.23,8.47,29.5,29.5,0,0,1-13.66,20,30,30,0,0,1-19.14,4.08,31.21,31.21,0,0,1-4.21-.88,34.12,34.12,0,0,1-4.14-1.48,32.68,32.68,0,0,1-3.92-2.17,28.3,28.3,0,0,1-6.83-6.12,31.18,31.18,0,0,1-4.72-8.18,31.49,31.49,0,0,1-1.85-9.26,28.78,28.78,0,0,1,1.11-9.1,27.32,27.32,0,0,1,3.66-8.06,17,17,0,0,1,1.24-1.77c.45-.56.88-1.14,1.34-1.67a30.83,30.83,0,0,1,3-2.93,29.64,29.64,0,0,1,14.07-6.62,29.5,29.5,0,0,1,23.46,6.05,27.78,27.78,0,0,1,5.75,6.22,19.64,19.64,0,0,1,1.6,2.65c.22.39.43.75.59,1.09s.28.66.4.95l.52,1.29A2.36,2.36,0,0,1,310.55,422.25Z" style="fill:#263238"></path><g style="opacity:0.30000000000000004"><path d="M310.45,422.62c-.16.07-.73-1.09-2-3a31.12,31.12,0,0,0-6.29-7.22,29.59,29.59,0,0,0-5.46-3.63,29.12,29.12,0,0,0-7-2.51,27.19,27.19,0,0,0-4-.58,26.8,26.8,0,0,0-4.2,0,27.88,27.88,0,0,0-4.29.67,29.3,29.3,0,0,0-4.26,1.37,31.11,31.11,0,0,0-4,2,29.28,29.28,0,0,0-3.52,2.55,26.89,26.89,0,0,0-3,3,25.89,25.89,0,0,0-2.43,3.22,29.21,29.21,0,0,0-3.22,6.75,29.92,29.92,0,0,0-1.32,6.43,31.16,31.16,0,0,0,.63,9.55c.49,2.24.9,3.46.74,3.53s-.81-1.06-1.58-3.3a27.37,27.37,0,0,1-1.36-9.89,29.09,29.09,0,0,1,1.13-6.87,29.5,29.5,0,0,1,3.25-7.31,27,27,0,0,1,2.55-3.51,27.56,27.56,0,0,1,3.17-3.23,29.46,29.46,0,0,1,3.78-2.78,31,31,0,0,1,4.3-2.2,32.62,32.62,0,0,1,4.59-1.47,28.9,28.9,0,0,1,4.64-.69,28.36,28.36,0,0,1,4.52,0,27.9,27.9,0,0,1,4.28.7,29.55,29.55,0,0,1,7.46,2.88,30.32,30.32,0,0,1,5.64,4.08,27.35,27.35,0,0,1,6,8C310.27,421.3,310.57,422.57,310.45,422.62Z"></path></g><g style="opacity:0.30000000000000004"><path d="M292.41,447.73l1.86,4.75L290,454.14l-1.81-4.62c-4.29,1.39-8.83,1.66-11.88.76l.3-6.09A18.37,18.37,0,0,0,286,444l-2.78-7.07c-5.15.7-11,1.2-13.4-4.86-1.76-4.49,0-9.63,6.38-13l-1.85-4.7,4.24-1.67,1.81,4.62a20.63,20.63,0,0,1,9.62-.79l-.07,6a18.59,18.59,0,0,0-7.35.34l2.83,7.2c5.13-.74,10.92-1.2,13.26,4.77C300.46,439.24,298.74,444.31,292.41,447.73Zm-11.59-17.06-2.37-6c-2,1.39-2.45,3-1.9,4.37S278.72,430.81,280.82,430.67ZM292.11,438c-.58-1.49-2.12-1.81-4.2-1.73l2.3,5.85C292.15,440.84,292.65,439.37,292.11,438Z"></path></g><rect x="301.18" y="361.23" width="85.19" height="15.47" style="fill:#407BFF"></rect><path d="M309.52,376.81c-.19,0-.35-3.44-.35-7.67s.16-7.68.35-7.68.36,3.44.36,7.68S309.72,376.81,309.52,376.81Z" style="fill:#263238"></path><path d="M304.86,376.81c-.19,0-.35-3.44-.35-7.67s.16-7.68.35-7.68.36,3.44.36,7.68S305.06,376.81,304.86,376.81Z" style="fill:#263238"></path><path d="M319.76,376.81c-.2,0-.36-3.44-.36-7.67s.16-7.68.36-7.68.35,3.44.35,7.68S320,376.81,319.76,376.81Z" style="fill:#263238"></path><path d="M315.1,376.81c-.2,0-.35-3.44-.35-7.67s.15-7.68.35-7.68.35,3.44.35,7.68S315.3,376.81,315.1,376.81Z" style="fill:#263238"></path><path d="M330,376.81c-.19,0-.35-3.44-.35-7.67s.16-7.68.35-7.68.36,3.44.36,7.68S330.19,376.81,330,376.81Z" style="fill:#263238"></path><path d="M325.34,376.81c-.2,0-.36-3.44-.36-7.67s.16-7.68.36-7.68.35,3.44.35,7.68S325.53,376.81,325.34,376.81Z" style="fill:#263238"></path><path d="M340.23,376.81c-.2,0-.35-3.44-.35-7.67s.15-7.68.35-7.68.36,3.44.36,7.68S340.43,376.81,340.23,376.81Z" style="fill:#263238"></path><path d="M335.57,376.81c-.19,0-.35-3.44-.35-7.67s.16-7.68.35-7.68.36,3.44.36,7.68S335.77,376.81,335.57,376.81Z" style="fill:#263238"></path><path d="M350.47,376.81c-.2,0-.36-3.44-.36-7.67s.16-7.68.36-7.68.35,3.44.35,7.68S350.66,376.81,350.47,376.81Z" style="fill:#263238"></path><path d="M345.81,376.81c-.2,0-.36-3.44-.36-7.67s.16-7.68.36-7.68.35,3.44.35,7.68S346,376.81,345.81,376.81Z" style="fill:#263238"></path><path d="M360.7,376.81c-.19,0-.35-3.44-.35-7.67s.16-7.68.35-7.68.36,3.44.36,7.68S360.9,376.81,360.7,376.81Z" style="fill:#263238"></path><path d="M356,376.81c-.19,0-.35-3.44-.35-7.67s.16-7.68.35-7.68.36,3.44.36,7.68S356.24,376.81,356,376.81Z" style="fill:#263238"></path><path d="M370.94,376.81c-.2,0-.36-3.44-.36-7.67s.16-7.68.36-7.68.35,3.44.35,7.68S371.13,376.81,370.94,376.81Z" style="fill:#263238"></path><path d="M366.28,376.81c-.2,0-.36-3.44-.36-7.67s.16-7.68.36-7.68.35,3.44.35,7.68S366.47,376.81,366.28,376.81Z" style="fill:#263238"></path><path d="M381.17,376.81c-.19,0-.35-3.44-.35-7.67s.16-7.68.35-7.68.36,3.44.36,7.68S381.37,376.81,381.17,376.81Z" style="fill:#263238"></path><path d="M376.51,376.81c-.19,0-.35-3.44-.35-7.67s.16-7.68.35-7.68.36,3.44.36,7.68S376.71,376.81,376.51,376.81Z" style="fill:#263238"></path><path d="M386.36,361.23c0,.2-19.16.36-42.79.36s-42.79-.16-42.79-.36,19.16-.35,42.79-.35S386.36,361,386.36,361.23Z" style="fill:#263238"></path><rect x="295.6" y="376.95" width="85.19" height="15.47" style="fill:#407BFF"></rect><path d="M304,392.52c-.2,0-.36-3.43-.36-7.67s.16-7.67.36-7.67.35,3.43.35,7.67S304.14,392.52,304,392.52Z" style="fill:#263238"></path><path d="M299.29,392.52c-.2,0-.36-3.43-.36-7.67s.16-7.67.36-7.67.35,3.43.35,7.67S299.48,392.52,299.29,392.52Z" style="fill:#263238"></path><path d="M314.18,392.52c-.19,0-.35-3.43-.35-7.67s.16-7.67.35-7.67.36,3.43.36,7.67S314.38,392.52,314.18,392.52Z" style="fill:#263238"></path><path d="M309.52,392.52c-.19,0-.35-3.43-.35-7.67s.16-7.67.35-7.67.36,3.43.36,7.67S309.72,392.52,309.52,392.52Z" style="fill:#263238"></path><path d="M324.42,392.52c-.2,0-.36-3.43-.36-7.67s.16-7.67.36-7.67.35,3.43.35,7.67S324.61,392.52,324.42,392.52Z" style="fill:#263238"></path><path d="M319.76,392.52c-.2,0-.36-3.43-.36-7.67s.16-7.67.36-7.67.35,3.43.35,7.67S320,392.52,319.76,392.52Z" style="fill:#263238"></path><path d="M334.65,392.52c-.19,0-.35-3.43-.35-7.67s.16-7.67.35-7.67.36,3.43.36,7.67S334.85,392.52,334.65,392.52Z" style="fill:#263238"></path><path d="M330,392.52c-.19,0-.35-3.43-.35-7.67s.16-7.67.35-7.67.36,3.43.36,7.67S330.19,392.52,330,392.52Z" style="fill:#263238"></path><path d="M344.89,392.52c-.2,0-.35-3.43-.35-7.67s.15-7.67.35-7.67.35,3.43.35,7.67S345.09,392.52,344.89,392.52Z" style="fill:#263238"></path><path d="M340.23,392.52c-.2,0-.35-3.43-.35-7.67s.15-7.67.35-7.67.36,3.43.36,7.67S340.43,392.52,340.23,392.52Z" style="fill:#263238"></path><path d="M355.13,392.52c-.2,0-.36-3.43-.36-7.67s.16-7.67.36-7.67.35,3.43.35,7.67S355.32,392.52,355.13,392.52Z" style="fill:#263238"></path><path d="M350.47,392.52c-.2,0-.36-3.43-.36-7.67s.16-7.67.36-7.67.35,3.43.35,7.67S350.66,392.52,350.47,392.52Z" style="fill:#263238"></path><path d="M365.36,392.52c-.19,0-.35-3.43-.35-7.67s.16-7.67.35-7.67.36,3.43.36,7.67S365.56,392.52,365.36,392.52Z" style="fill:#263238"></path><path d="M360.7,392.52c-.19,0-.35-3.43-.35-7.67s.16-7.67.35-7.67.36,3.43.36,7.67S360.9,392.52,360.7,392.52Z" style="fill:#263238"></path><path d="M375.6,392.52c-.2,0-.36-3.43-.36-7.67s.16-7.67.36-7.67.35,3.43.35,7.67S375.79,392.52,375.6,392.52Z" style="fill:#263238"></path><path d="M370.94,392.52c-.2,0-.36-3.43-.36-7.67s.16-7.67.36-7.67.35,3.43.35,7.67S371.13,392.52,370.94,392.52Z" style="fill:#263238"></path><path d="M380.79,377c0,.19-19.16.35-42.79.35s-42.8-.16-42.8-.35,19.16-.36,42.8-.36S380.79,376.75,380.79,377Z" style="fill:#263238"></path><rect x="302.56" y="392.52" width="85.19" height="15.47" style="fill:#407BFF"></rect><path d="M310.91,408.1c-.2,0-.36-3.44-.36-7.67s.16-7.68.36-7.68.35,3.44.35,7.68S311.1,408.1,310.91,408.1Z" style="fill:#263238"></path><path d="M306.25,408.1c-.2,0-.36-3.44-.36-7.67s.16-7.68.36-7.68.35,3.44.35,7.68S306.45,408.1,306.25,408.1Z" style="fill:#263238"></path><path d="M321.14,408.1c-.19,0-.35-3.44-.35-7.67s.16-7.68.35-7.68.36,3.44.36,7.68S321.34,408.1,321.14,408.1Z" style="fill:#263238"></path><path d="M316.49,408.1c-.2,0-.36-3.44-.36-7.67s.16-7.68.36-7.68.35,3.44.35,7.68S316.68,408.1,316.49,408.1Z" style="fill:#263238"></path><path d="M331.38,408.1c-.2,0-.35-3.44-.35-7.67s.15-7.68.35-7.68.35,3.44.35,7.68S331.58,408.1,331.38,408.1Z" style="fill:#263238"></path><path d="M326.72,408.1c-.2,0-.35-3.44-.35-7.67s.15-7.68.35-7.68.36,3.44.36,7.68S326.92,408.1,326.72,408.1Z" style="fill:#263238"></path><path d="M341.62,408.1c-.2,0-.36-3.44-.36-7.67s.16-7.68.36-7.68.35,3.44.35,7.68S341.81,408.1,341.62,408.1Z" style="fill:#263238"></path><path d="M337,408.1c-.2,0-.36-3.44-.36-7.67s.16-7.68.36-7.68.35,3.44.35,7.68S337.15,408.1,337,408.1Z" style="fill:#263238"></path><path d="M351.85,408.1c-.19,0-.35-3.44-.35-7.67s.16-7.68.35-7.68.36,3.44.36,7.68S352.05,408.1,351.85,408.1Z" style="fill:#263238"></path><path d="M347.19,408.1c-.19,0-.35-3.44-.35-7.67s.16-7.68.35-7.68.36,3.44.36,7.68S347.39,408.1,347.19,408.1Z" style="fill:#263238"></path><path d="M362.09,408.1c-.2,0-.36-3.44-.36-7.67s.16-7.68.36-7.68.35,3.44.35,7.68S362.28,408.1,362.09,408.1Z" style="fill:#263238"></path><path d="M357.43,408.1c-.2,0-.36-3.44-.36-7.67s.16-7.68.36-7.68.35,3.44.35,7.68S357.62,408.1,357.43,408.1Z" style="fill:#263238"></path><path d="M372.32,408.1c-.19,0-.35-3.44-.35-7.67s.16-7.68.35-7.68.36,3.44.36,7.68S372.52,408.1,372.32,408.1Z" style="fill:#263238"></path><path d="M367.66,408.1c-.19,0-.35-3.44-.35-7.67s.16-7.68.35-7.68.36,3.44.36,7.68S367.86,408.1,367.66,408.1Z" style="fill:#263238"></path><path d="M382.56,408.1c-.2,0-.36-3.44-.36-7.67s.16-7.68.36-7.68.35,3.44.35,7.68S382.75,408.1,382.56,408.1Z" style="fill:#263238"></path><path d="M377.9,408.1c-.2,0-.36-3.44-.36-7.67s.16-7.68.36-7.68.35,3.44.35,7.68S378.09,408.1,377.9,408.1Z" style="fill:#263238"></path><path d="M387.75,392.52c0,.2-19.21.36-42.89.36s-42.9-.16-42.9-.36,19.2-.35,42.9-.35S387.75,392.33,387.75,392.52Z" style="fill:#263238"></path><rect x="295.88" y="407.87" width="85.19" height="15.47" style="fill:#407BFF"></rect><path d="M304.23,423.45c-.19,0-.35-3.44-.35-7.68s.16-7.67.35-7.67.36,3.43.36,7.67S304.43,423.45,304.23,423.45Z" style="fill:#263238"></path><path d="M299.57,423.45c-.19,0-.35-3.44-.35-7.68s.16-7.67.35-7.67.36,3.43.36,7.67S299.77,423.45,299.57,423.45Z" style="fill:#263238"></path><path d="M314.47,423.45c-.2,0-.36-3.44-.36-7.68s.16-7.67.36-7.67.35,3.43.35,7.67S314.66,423.45,314.47,423.45Z" style="fill:#263238"></path><path d="M309.81,423.45c-.2,0-.36-3.44-.36-7.68s.16-7.67.36-7.67.35,3.43.35,7.67S310,423.45,309.81,423.45Z" style="fill:#263238"></path><path d="M324.7,423.45c-.19,0-.35-3.44-.35-7.68s.16-7.67.35-7.67.36,3.43.36,7.67S324.9,423.45,324.7,423.45Z" style="fill:#263238"></path><path d="M320,423.45c-.19,0-.35-3.44-.35-7.68s.16-7.67.35-7.67.36,3.43.36,7.67S320.24,423.45,320,423.45Z" style="fill:#263238"></path><path d="M334.94,423.45c-.2,0-.36-3.44-.36-7.68s.16-7.67.36-7.67.35,3.43.35,7.67S335.13,423.45,334.94,423.45Z" style="fill:#263238"></path><path d="M330.28,423.45c-.2,0-.36-3.44-.36-7.68s.16-7.67.36-7.67.35,3.43.35,7.67S330.47,423.45,330.28,423.45Z" style="fill:#263238"></path><path d="M345.17,423.45c-.19,0-.35-3.44-.35-7.68s.16-7.67.35-7.67.36,3.43.36,7.67S345.37,423.45,345.17,423.45Z" style="fill:#263238"></path><path d="M340.51,423.45c-.19,0-.35-3.44-.35-7.68s.16-7.67.35-7.67.36,3.43.36,7.67S340.71,423.45,340.51,423.45Z" style="fill:#263238"></path><path d="M355.41,423.45c-.2,0-.36-3.44-.36-7.68s.16-7.67.36-7.67.35,3.43.35,7.67S355.61,423.45,355.41,423.45Z" style="fill:#263238"></path><path d="M350.75,423.45c-.2,0-.35-3.44-.35-7.68s.15-7.67.35-7.67.35,3.43.35,7.67S351,423.45,350.75,423.45Z" style="fill:#263238"></path><path d="M365.64,423.45c-.19,0-.35-3.44-.35-7.68s.16-7.67.35-7.67.36,3.43.36,7.67S365.84,423.45,365.64,423.45Z" style="fill:#263238"></path><path d="M361,423.45c-.2,0-.36-3.44-.36-7.68s.16-7.67.36-7.67.35,3.43.35,7.67S361.18,423.45,361,423.45Z" style="fill:#263238"></path><path d="M375.88,423.45c-.2,0-.35-3.44-.35-7.68s.15-7.67.35-7.67.36,3.43.36,7.67S376.08,423.45,375.88,423.45Z" style="fill:#263238"></path><path d="M371.22,423.45c-.19,0-.35-3.44-.35-7.68s.16-7.67.35-7.67.36,3.43.36,7.67S371.42,423.45,371.22,423.45Z" style="fill:#263238"></path><path d="M381.07,407.87c0,.2-19.16.35-42.79.35s-42.79-.15-42.79-.35,19.15-.35,42.79-.35S381.07,407.67,381.07,407.87Z" style="fill:#263238"></path><rect x="304.42" y="423.56" width="85.19" height="15.47" style="fill:#407BFF"></rect><path d="M312.77,439.14c-.2,0-.36-3.44-.36-7.68s.16-7.67.36-7.67.35,3.44.35,7.67S313,439.14,312.77,439.14Z" style="fill:#263238"></path><path d="M308.11,439.14c-.2,0-.36-3.44-.36-7.68s.16-7.67.36-7.67.35,3.44.35,7.67S308.3,439.14,308.11,439.14Z" style="fill:#263238"></path><path d="M323,439.14c-.19,0-.35-3.44-.35-7.68s.16-7.67.35-7.67.36,3.44.36,7.67S323.2,439.14,323,439.14Z" style="fill:#263238"></path><path d="M318.34,439.14c-.19,0-.35-3.44-.35-7.68s.16-7.67.35-7.67.36,3.44.36,7.67S318.54,439.14,318.34,439.14Z" style="fill:#263238"></path><path d="M333.24,439.14c-.2,0-.35-3.44-.35-7.68s.15-7.67.35-7.67.35,3.44.35,7.67S333.44,439.14,333.24,439.14Z" style="fill:#263238"></path><path d="M328.58,439.14c-.2,0-.35-3.44-.35-7.68s.15-7.67.35-7.67.35,3.44.35,7.67S328.78,439.14,328.58,439.14Z" style="fill:#263238"></path><path d="M343.48,439.14c-.2,0-.36-3.44-.36-7.68s.16-7.67.36-7.67.35,3.44.35,7.67S343.67,439.14,343.48,439.14Z" style="fill:#263238"></path><path d="M338.82,439.14c-.2,0-.36-3.44-.36-7.68s.16-7.67.36-7.67.35,3.44.35,7.67S339,439.14,338.82,439.14Z" style="fill:#263238"></path><path d="M353.71,439.14c-.19,0-.35-3.44-.35-7.68s.16-7.67.35-7.67.36,3.44.36,7.67S353.91,439.14,353.71,439.14Z" style="fill:#263238"></path><path d="M349.05,439.14c-.19,0-.35-3.44-.35-7.68s.16-7.67.35-7.67.36,3.44.36,7.67S349.25,439.14,349.05,439.14Z" style="fill:#263238"></path><path d="M364,439.14c-.2,0-.36-3.44-.36-7.68s.16-7.67.36-7.67.35,3.44.35,7.67S364.14,439.14,364,439.14Z" style="fill:#263238"></path><path d="M359.29,439.14c-.2,0-.36-3.44-.36-7.68s.16-7.67.36-7.67.35,3.44.35,7.67S359.48,439.14,359.29,439.14Z" style="fill:#263238"></path><path d="M374.18,439.14c-.19,0-.35-3.44-.35-7.68s.16-7.67.35-7.67.36,3.44.36,7.67S374.38,439.14,374.18,439.14Z" style="fill:#263238"></path><path d="M369.52,439.14c-.19,0-.35-3.44-.35-7.68s.16-7.67.35-7.67.36,3.44.36,7.67S369.72,439.14,369.52,439.14Z" style="fill:#263238"></path><path d="M384.42,439.14c-.2,0-.36-3.44-.36-7.68s.16-7.67.36-7.67.35,3.44.35,7.67S384.61,439.14,384.42,439.14Z" style="fill:#263238"></path><path d="M379.76,439.14c-.2,0-.36-3.44-.36-7.68s.16-7.67.36-7.67.35,3.44.35,7.67S380,439.14,379.76,439.14Z" style="fill:#263238"></path><path d="M389.61,423.56c0,.2-19.16.36-42.79.36s-42.79-.16-42.79-.36,19.15-.35,42.79-.35S389.61,423.37,389.61,423.56Z" style="fill:#263238"></path><rect x="299.08" y="439.21" width="85.19" height="15.47" style="fill:#407BFF"></rect><path d="M307.43,454.78c-.2,0-.36-3.43-.36-7.67s.16-7.67.36-7.67.35,3.43.35,7.67S307.62,454.78,307.43,454.78Z" style="fill:#263238"></path><path d="M302.77,454.78c-.2,0-.36-3.43-.36-7.67s.16-7.67.36-7.67.35,3.43.35,7.67S303,454.78,302.77,454.78Z" style="fill:#263238"></path><path d="M317.66,454.78c-.19,0-.35-3.43-.35-7.67s.16-7.67.35-7.67.36,3.43.36,7.67S317.86,454.78,317.66,454.78Z" style="fill:#263238"></path><path d="M313,454.78c-.19,0-.35-3.43-.35-7.67s.16-7.67.35-7.67.36,3.43.36,7.67S313.2,454.78,313,454.78Z" style="fill:#263238"></path><path d="M327.9,454.78c-.2,0-.36-3.43-.36-7.67s.16-7.67.36-7.67.35,3.43.35,7.67S328.09,454.78,327.9,454.78Z" style="fill:#263238"></path><path d="M323.24,454.78c-.2,0-.36-3.43-.36-7.67s.16-7.67.36-7.67.35,3.43.35,7.67S323.43,454.78,323.24,454.78Z" style="fill:#263238"></path><path d="M338.13,454.78c-.19,0-.35-3.43-.35-7.67s.16-7.67.35-7.67.36,3.43.36,7.67S338.33,454.78,338.13,454.78Z" style="fill:#263238"></path><path d="M333.47,454.78c-.19,0-.35-3.43-.35-7.67s.16-7.67.35-7.67.36,3.43.36,7.67S333.67,454.78,333.47,454.78Z" style="fill:#263238"></path><path d="M348.37,454.78c-.2,0-.36-3.43-.36-7.67s.16-7.67.36-7.67.35,3.43.35,7.67S348.57,454.78,348.37,454.78Z" style="fill:#263238"></path><path d="M343.71,454.78c-.2,0-.35-3.43-.35-7.67s.15-7.67.35-7.67.35,3.43.35,7.67S343.91,454.78,343.71,454.78Z" style="fill:#263238"></path><path d="M358.61,454.78c-.2,0-.36-3.43-.36-7.67s.16-7.67.36-7.67.35,3.43.35,7.67S358.8,454.78,358.61,454.78Z" style="fill:#263238"></path><path d="M354,454.78c-.2,0-.36-3.43-.36-7.67s.16-7.67.36-7.67.35,3.43.35,7.67S354.14,454.78,354,454.78Z" style="fill:#263238"></path><path d="M368.84,454.78c-.2,0-.35-3.43-.35-7.67s.15-7.67.35-7.67.36,3.43.36,7.67S369,454.78,368.84,454.78Z" style="fill:#263238"></path><path d="M364.18,454.78c-.19,0-.35-3.43-.35-7.67s.16-7.67.35-7.67.36,3.43.36,7.67S364.38,454.78,364.18,454.78Z" style="fill:#263238"></path><path d="M379.08,454.78c-.2,0-.36-3.43-.36-7.67s.16-7.67.36-7.67.35,3.43.35,7.67S379.27,454.78,379.08,454.78Z" style="fill:#263238"></path><path d="M374.42,454.78c-.2,0-.36-3.43-.36-7.67s.16-7.67.36-7.67.35,3.43.35,7.67S374.61,454.78,374.42,454.78Z" style="fill:#263238"></path><path d="M384.27,439.21c0,.19-19.21.35-42.9.35s-42.89-.16-42.89-.35,19.2-.36,42.89-.36S384.27,439,384.27,439.21Z" style="fill:#263238"></path><rect x="292.4" y="454.55" width="85.19" height="15.47" style="fill:#407BFF"></rect><path d="M300.75,470.13c-.2,0-.36-3.44-.36-7.67s.16-7.68.36-7.68.35,3.44.35,7.68S301,470.13,300.75,470.13Z" style="fill:#263238"></path><path d="M296.09,470.13c-.2,0-.35-3.44-.35-7.67s.15-7.68.35-7.68.35,3.44.35,7.68S296.29,470.13,296.09,470.13Z" style="fill:#263238"></path><path d="M311,470.13c-.19,0-.35-3.44-.35-7.67s.16-7.68.35-7.68.36,3.44.36,7.68S311.18,470.13,311,470.13Z" style="fill:#263238"></path><path d="M306.33,470.13c-.2,0-.36-3.44-.36-7.67s.16-7.68.36-7.68.35,3.44.35,7.68S306.52,470.13,306.33,470.13Z" style="fill:#263238"></path><path d="M321.22,470.13c-.2,0-.35-3.44-.35-7.67s.15-7.68.35-7.68.36,3.44.36,7.68S321.42,470.13,321.22,470.13Z" style="fill:#263238"></path><path d="M316.56,470.13c-.19,0-.35-3.44-.35-7.67s.16-7.68.35-7.68.36,3.44.36,7.68S316.76,470.13,316.56,470.13Z" style="fill:#263238"></path><path d="M331.46,470.13c-.2,0-.36-3.44-.36-7.67s.16-7.68.36-7.68.35,3.44.35,7.68S331.65,470.13,331.46,470.13Z" style="fill:#263238"></path><path d="M326.8,470.13c-.2,0-.36-3.44-.36-7.67s.16-7.68.36-7.68.35,3.44.35,7.68S327,470.13,326.8,470.13Z" style="fill:#263238"></path><path d="M341.69,470.13c-.19,0-.35-3.44-.35-7.67s.16-7.68.35-7.68.36,3.44.36,7.68S341.89,470.13,341.69,470.13Z" style="fill:#263238"></path><path d="M337,470.13c-.19,0-.35-3.44-.35-7.67s.16-7.68.35-7.68.36,3.44.36,7.68S337.23,470.13,337,470.13Z" style="fill:#263238"></path><path d="M351.93,470.13c-.2,0-.36-3.44-.36-7.67s.16-7.68.36-7.68.35,3.44.35,7.68S352.12,470.13,351.93,470.13Z" style="fill:#263238"></path><path d="M347.27,470.13c-.2,0-.36-3.44-.36-7.67s.16-7.68.36-7.68.35,3.44.35,7.68S347.46,470.13,347.27,470.13Z" style="fill:#263238"></path><path d="M362.16,470.13c-.19,0-.35-3.44-.35-7.67s.16-7.68.35-7.68.36,3.44.36,7.68S362.36,470.13,362.16,470.13Z" style="fill:#263238"></path><path d="M357.5,470.13c-.19,0-.35-3.44-.35-7.67s.16-7.68.35-7.68.36,3.44.36,7.68S357.7,470.13,357.5,470.13Z" style="fill:#263238"></path><path d="M372.4,470.13c-.2,0-.36-3.44-.36-7.67s.16-7.68.36-7.68.35,3.44.35,7.68S372.59,470.13,372.4,470.13Z" style="fill:#263238"></path><path d="M367.74,470.13c-.2,0-.36-3.44-.36-7.67s.16-7.68.36-7.68.35,3.44.35,7.68S367.94,470.13,367.74,470.13Z" style="fill:#263238"></path><path d="M377.59,454.55c0,.2-19.16.36-42.79.36s-42.79-.16-42.79-.36,19.15-.35,42.79-.35S377.59,454.36,377.59,454.55Z" style="fill:#263238"></path><g style="opacity:0.30000000000000004"><path d="M302.56,392.52c12.72,3.13,26.28,3.73,39.35,2.87s26.28-2.8,39.38-2.64Z"></path></g><g style="opacity:0.30000000000000004"><path d="M303.33,377.12c12.72,3.13,26.28,3.74,39.35,2.87s26.27-2.79,39.37-2.64Z"></path></g><g style="opacity:0.30000000000000004"><path d="M307.45,408c12.73,3.12,26.28,3.73,39.36,2.86s26.27-2.79,39.37-2.63Z"></path></g><g style="opacity:0.30000000000000004"><path d="M304.11,423.47c12.73,3.13,26.28,3.73,39.35,2.86s26.28-2.79,39.38-2.63Z"></path></g><g style="opacity:0.30000000000000004"><path d="M305.13,438.85c12.72,3.13,26.28,3.73,39.35,2.86s26.27-2.79,39.37-2.63Z"></path></g><g style="opacity:0.30000000000000004"><path d="M301,454.53c12.72,3.12,26.27,3.73,39.35,2.86s26.27-2.79,39.37-2.63Z"></path></g><path d="M302.74,371.81c-.2,0-.36-1.89-.36-4.23s.16-4.24.36-4.24.35,1.9.35,4.24S302.93,371.81,302.74,371.81Z" style="fill:#fff"></path><path d="M297.37,388.34c-.2,0-.36-2-.36-4.54s.16-4.55.36-4.55.35,2,.35,4.55S297.56,388.34,297.37,388.34Z" style="fill:#fff"></path><path d="M305,404.25c-.19,0-.35-1.8-.35-4s.16-4,.35-4,.36,1.81.36,4S305.21,404.25,305,404.25Z" style="fill:#fff"></path><path d="M297.16,418.92c-.2,0-.35-1.62-.35-3.61s.15-3.62.35-3.62.35,1.62.35,3.62S297.36,418.92,297.16,418.92Z" style="fill:#fff"></path><path d="M328.36,378.22c0,.2-6.29.35-14.05.35s-14.05-.15-14.05-.35,6.29-.36,14.05-.36S328.36,378,328.36,378.22Z" style="fill:#fff"></path><path d="M337.45,363.34c0,.2-6.34.36-14.15.36s-14.16-.16-14.16-.36,6.34-.35,14.16-.35S337.45,363.15,337.45,363.34Z" style="fill:#fff"></path><path d="M351.09,363.55c0,.2-2.09.35-4.65.35s-4.65-.15-4.65-.35,2.08-.35,4.65-.35S351.09,363.35,351.09,363.55Z" style="fill:#fff"></path><path d="M305.63,438.47a67.41,67.41,0,0,1,0-11.83,67.41,67.41,0,0,1,0,11.83Z" style="fill:#fff"></path><path d="M370.36,421.73c0,.15-15.49.26-34.59.26s-34.6-.11-34.6-.26,15.49-.26,34.6-.26S370.36,421.59,370.36,421.73Z" style="fill:#fff"></path><path d="M356.52,453c0,.15-12.24.26-27.34.26s-27.34-.11-27.34-.26,12.24-.26,27.34-.26S356.52,452.84,356.52,453Z" style="fill:#fff"></path><path d="M293.58,467a21.65,21.65,0,0,1,0-6.69,21.65,21.65,0,0,1,0,6.69Z" style="fill:#fff"></path><path d="M353.85,468.38c0,.15-12.7.26-28.35.26s-28.35-.11-28.35-.26,12.69-.26,28.35-.26S353.85,468.24,353.85,468.38Z" style="fill:#fff"></path><path d="M292.4,470a1,1,0,0,1,0-.28c0-.22,0-.48,0-.81,0-.77,0-1.81,0-3.13,0-2.76-.06-6.65-.09-11.39v-.2h.2l6.08,0-.23.23c0-4.65,0-9.89,0-15.45v-.26h5.89l-.26.26c0-5.6,0-10.91,0-15.69l.23.24-8.23,0h-.2v-.2c0-4.7.07-8.56.09-11.29,0-1.3,0-2.34.05-3.1l0-.8a.14.14,0,1,1,.06,0l0,.8c0,.76,0,1.8.06,3.1,0,2.73.05,6.59.09,11.29l-.21-.2,8.23,0h.24v.24c0,4.78,0,10.09,0,15.69v.26h-5.89l.26-.26c0,5.56,0,10.8,0,15.45v.23h-.23l-6.08-.09.21-.21c0,4.74-.07,8.63-.09,11.39,0,1.32,0,2.36-.06,3.13,0,.33,0,.59,0,.81A1,1,0,0,1,292.4,470Z" style="fill:#263238"></path><g style="opacity:0.30000000000000004"><path d="M385.2,359.9,318,361a107.49,107.49,0,0,0,50.2,15.6c-1.23,23.12,9.65,45.19,11.53,68.26a8.65,8.65,0,0,0,.67,3.24,2.75,2.75,0,0,0,2.64,1.64c1.77-.25,2.34-2.49,2.49-4.27A488.86,488.86,0,0,0,385.2,359.9Z"></path></g><path d="M314.19,170.19A10,10,0,0,1,310.91,160a1.33,1.33,0,0,0-.73-2,7.4,7.4,0,0,1-3.42-4.72,5.75,5.75,0,0,1,1.79-5.45c-2.85-1.19-3.86-5.18-2.34-7.88a7.73,7.73,0,0,1,8-3.42,4.41,4.41,0,0,1,.94-5.17,8.73,8.73,0,0,1,5.11-2.16c2.51-.32,5.48.14,6.79,2.31.22-1.54,1.83-2.5,3.35-2.79a8.49,8.49,0,0,1,9.48,6.17,7.72,7.72,0,0,1,4.44-1.52,3.63,3.63,0,0,1,3.49,2.72c.74-1.39,2.49-1.88,4.05-1.94a5.65,5.65,0,0,1,3.27.71,2.77,2.77,0,0,1,1.32,2.9,4.57,4.57,0,0,1,5.42,2.52,4.62,4.62,0,0,1-2,5.65,5.65,5.65,0,0,1-.13,9.62,1.55,1.55,0,0,1,.88,2.27,3,3,0,0,1-2.43,1.29c.2,3.3.39,6.59.59,9.88a20.52,20.52,0,0,1-.28,6.36,6.85,6.85,0,0,1-3.84,4.79" style="fill:#263238"></path><path d="M313.68,160.68c-.06-8,7.92-16.55,15.88-16.27l25.94,3.07.22,4.29L355,210.32l-24.64,15.09L328.94,201s-10.24-1-13.26-14.09C314.17,180.4,313.74,169.56,313.68,160.68Z" style="fill:#ffbe9d"></path><path d="M316.65,170.68a1.7,1.7,0,0,0,1.75,1.6,1.63,1.63,0,0,0,1.64-1.66,1.69,1.69,0,0,0-1.75-1.6A1.63,1.63,0,0,0,316.65,170.68Z" style="fill:#263238"></path><path d="M316.41,166.14c.22.21,1.44-.84,3.26-1s3.23.69,3.41.45-.15-.49-.77-.87a4.62,4.62,0,0,0-2.74-.64,4.43,4.43,0,0,0-2.58,1C316.46,165.63,316.3,166.05,316.41,166.14Z" style="fill:#263238"></path><path d="M334,170.68a1.7,1.7,0,0,0,1.75,1.6,1.63,1.63,0,0,0,1.64-1.66,1.69,1.69,0,0,0-1.75-1.6A1.63,1.63,0,0,0,334,170.68Z" style="fill:#263238"></path><path d="M334.33,165.6c.22.21,1.44-.83,3.26-1s3.22.7,3.41.46-.15-.49-.77-.88a4.7,4.7,0,0,0-2.74-.64,4.47,4.47,0,0,0-2.58,1C334.38,165.1,334.22,165.51,334.33,165.6Z" style="fill:#263238"></path><path d="M328.68,179.25a12,12,0,0,0-3-.32c-.47,0-.92-.08-1-.39a2.49,2.49,0,0,1,.21-1.41c.36-1.16.74-2.38,1.13-3.66,1.56-5.2,2.65-9.47,2.44-9.53s-1.64,4.11-3.2,9.31c-.37,1.29-.73,2.51-1.07,3.68a2.81,2.81,0,0,0-.11,1.85,1.18,1.18,0,0,0,.81.63,2.86,2.86,0,0,0,.8.05A11.38,11.38,0,0,0,328.68,179.25Z" style="fill:#263238"></path><path d="M328.94,201a33.62,33.62,0,0,0,17.36-6s-3.82,10.28-17.13,10Z" style="fill:#eb996e"></path><path d="M329.76,183.61a3.29,3.29,0,0,1,2.86-1.43,3,3,0,0,1,2.15,1,1.92,1.92,0,0,1,.3,2.17,2.2,2.2,0,0,1-2.35.77,6.65,6.65,0,0,1-2.43-1.23,2.06,2.06,0,0,1-.56-.5.63.63,0,0,1,0-.68" style="fill:#eb996e"></path><path d="M334.14,180.14c-.3,0-.17,2-1.76,3.52s-3.72,1.46-3.71,1.74c0,.13.49.36,1.39.32a5,5,0,0,0,3.1-1.34,4.36,4.36,0,0,0,1.35-2.95C334.53,180.6,334.27,180.12,334.14,180.14Z" style="fill:#263238"></path><path d="M333.32,159.1c.21.49,2,.12,4.17.23s3.93.57,4.18.1c.11-.22-.22-.67-.95-1.1a7.25,7.25,0,0,0-6.36-.25C333.59,158.45,333.23,158.87,333.32,159.1Z" style="fill:#263238"></path><path d="M316.71,160.79c.35.4,1.57-.12,3.08-.25s2.81.08,3.07-.38c.12-.22-.11-.62-.7-1a4.42,4.42,0,0,0-5,.51C316.7,160.16,316.55,160.6,316.71,160.79Z" style="fill:#263238"></path><path d="M318.05,145a6.67,6.67,0,0,0,2.31,6.88,6.58,6.58,0,0,0,7.22.37,2.5,2.5,0,0,0,.3,3.3,4.69,4.69,0,0,0,3.37,1.13,8.91,8.91,0,0,0,6.71-3.21,6.51,6.51,0,0,0,9.57,4.42,6,6,0,1,0,10.29,5,6.73,6.73,0,0,0,1.9-10.49,4,4,0,0,0,2.32-3.26,8.1,8.1,0,0,0-.71-4.1,12.81,12.81,0,0,0-6.87-7.26,8.55,8.55,0,0,0-9.41,2,1.86,1.86,0,0,1-.89.71c-.51.13-1-.26-1.38-.61-1.73-1.59-3.53-3.31-5.83-3.77a6.28,6.28,0,0,0-6.86,3.74c-1.76-2.61-5.26-4.09-8.21-3s-4.67,5-3.06,7.69" style="fill:#263238"></path><path d="M351.45,165.94a28.52,28.52,0,0,0,2.1,7.8c.45,1.06,1.13,2.21,2.25,2.38a2.44,2.44,0,0,0,2.43-1.59,6.45,6.45,0,0,0,.28-3.09,85.05,85.05,0,0,0-1.92-10.95" style="fill:#263238"></path><path d="M354.49,167.84c.15-.09,6.5-2.81,7.08,3.95s-6.29,6-6.32,5.76S354.49,167.84,354.49,167.84Z" style="fill:#ffbe9d"></path><path d="M357.08,174.81s.13.08.33.15a1.2,1.2,0,0,0,.88-.06,2.93,2.93,0,0,0,1.12-2.73,4,4,0,0,0-.48-1.66,1.35,1.35,0,0,0-1-.83.6.6,0,0,0-.66.39c-.07.19,0,.33-.05.34s-.16-.1-.13-.38a.75.75,0,0,1,.23-.45.85.85,0,0,1,.63-.23,1.66,1.66,0,0,1,1.32.94,4.07,4.07,0,0,1,.57,1.85,3.08,3.08,0,0,1-1.46,3.07,1.22,1.22,0,0,1-1.09-.09C357.11,175,357.06,174.83,357.08,174.81Z" style="fill:#eb996e"></path><path d="M338.2,152.11l-.21.06a6.22,6.22,0,0,1-.62.14,9.24,9.24,0,0,1-2.39.16,6.57,6.57,0,0,1-1.69-.32,4.79,4.79,0,0,1-3.07-2.94,3.67,3.67,0,0,1,0-2.59l.23.18a8.9,8.9,0,0,1-5.26,2,8.58,8.58,0,0,1-3.11-.41,5.48,5.48,0,0,1-1.48-.72,3.09,3.09,0,0,1-1.07-1.32,4.58,4.58,0,0,1-.3-2,12.89,12.89,0,0,1,.25-1.88,6.38,6.38,0,0,1,.58-1.76,2.11,2.11,0,0,1,1.41-1.16l.09.31a5.31,5.31,0,0,1-3.47.1,5.77,5.77,0,0,1-2.69-1.7,4.81,4.81,0,0,1-1.17-2.58,5.59,5.59,0,0,1,.22-2.42,5.53,5.53,0,0,1,1.95-2.78,3.76,3.76,0,0,1,1.08-.58,10.56,10.56,0,0,0-1,.66,5.65,5.65,0,0,0-1.83,2.76,5.54,5.54,0,0,0-.17,2.33,4.52,4.52,0,0,0,1.14,2.42,5.5,5.5,0,0,0,2.56,1.6,5,5,0,0,0,3.27-.12l.1.31a1.85,1.85,0,0,0-1.19,1,6.41,6.41,0,0,0-.54,1.67,6.49,6.49,0,0,0,0,3.63,3.53,3.53,0,0,0,2.34,1.86,8.29,8.29,0,0,0,3,.4,8.62,8.62,0,0,0,5.09-1.91l.47-.39-.24.56a3.37,3.37,0,0,0,0,2.38,4.6,4.6,0,0,0,2.88,2.83,6.53,6.53,0,0,0,1.64.35,10.38,10.38,0,0,0,2.36-.08C337.9,152.15,338.19,152.09,338.2,152.11Z" style="fill:#fff"></path><path d="M317.16,150.62s-.13.12-.43.24a3.64,3.64,0,0,1-1.35.25,3.52,3.52,0,0,1-2-.61,1.69,1.69,0,0,1-.7-1.07,1.28,1.28,0,0,1,.53-1.29l.15.31-.12,0a5.34,5.34,0,0,1-4.49-.43,4.23,4.23,0,0,1-1.08-.88c-.22-.24-.32-.4-.3-.41a10,10,0,0,0,1.5,1.08,5.29,5.29,0,0,0,4.25.31l.11,0,1.58-.56-1.43.86a1,1,0,0,0-.37.95,1.42,1.42,0,0,0,.56.87,3.33,3.33,0,0,0,1.78.62A6.32,6.32,0,0,0,317.16,150.62Z" style="fill:#fff"></path><path d="M361.54,176.45a3.16,3.16,0,0,1,1.14.71,7,7,0,0,1,2.12,3,6.3,6.3,0,0,1-.57,5.4,6.11,6.11,0,0,1-6,2.79,5.55,5.55,0,0,1-3.19-1.56,7.23,7.23,0,0,1-1.78-2.77,6.35,6.35,0,0,1,.43-5.41,5.53,5.53,0,0,1,2.83-2.34,2.63,2.63,0,0,1,1.33-.22c0,.07-.47.11-1.23.47a5.56,5.56,0,0,0-2.52,2.33,5.93,5.93,0,0,0-.25,5,5.76,5.76,0,0,0,4.47,3.87,5.51,5.51,0,0,0,5.33-2.45,5.89,5.89,0,0,0,.65-4.92,7.27,7.27,0,0,0-1.85-2.95C361.91,176.76,361.51,176.5,361.54,176.45Z" style="fill:#455a64"></path><path d="M323.71,174.52a14.64,14.64,0,0,0-.18-1.92,7.76,7.76,0,0,0-9.81-6A7.88,7.88,0,0,0,310,169a7.67,7.67,0,0,0-.6,9.1,7,7,0,0,0,1.51,1.74,7.32,7.32,0,0,0,1.88,1.18,7.73,7.73,0,0,0,7.38-.61,7.86,7.86,0,0,0,3.13-4,12.89,12.89,0,0,0,.43-1.88,6.23,6.23,0,0,1-.12,1.1,4.32,4.32,0,0,1-.2.81,7.77,7.77,0,0,1-3.13,4.2,8,8,0,0,1-3.43,1.29,8.1,8.1,0,0,1-4.17-.61,7.53,7.53,0,0,1-2-1.21,7.25,7.25,0,0,1-1.58-1.81,7.92,7.92,0,0,1,.62-9.43,8,8,0,0,1,3.9-2.53,7.93,7.93,0,0,1,4.21-.05,7.91,7.91,0,0,1,5.79,6.3,6.81,6.81,0,0,1,.09.82,4.3,4.3,0,0,1,0,.61A4.23,4.23,0,0,1,323.71,174.52Z" style="fill:#263238"></path><path d="M344,174.51a14.64,14.64,0,0,0-.18-1.92,7.84,7.84,0,0,0-2.58-4.44,7.74,7.74,0,0,0-3.16-1.65,7.94,7.94,0,0,0-4.07.08,7.85,7.85,0,0,0-3.75,2.45,7.71,7.71,0,0,0-.6,9.1,7.78,7.78,0,0,0,3.4,2.92,7.71,7.71,0,0,0,7.37-.61,7.83,7.83,0,0,0,3.14-4.05,17,17,0,0,0,.43-1.88,6.23,6.23,0,0,1-.12,1.1,5.28,5.28,0,0,1-.2.81,7.82,7.82,0,0,1-3.13,4.2,7.89,7.89,0,0,1-7.6.68,7.21,7.21,0,0,1-1.95-1.21,7.39,7.39,0,0,1-1.58-1.8,7.94,7.94,0,0,1,.62-9.44,7.28,7.28,0,0,1,1.8-1.58,7.54,7.54,0,0,1,2.09-1,7.93,7.93,0,0,1,4.21,0,7.87,7.87,0,0,1,5.79,6.3,5.36,5.36,0,0,1,.1.82,3.07,3.07,0,0,1,0,.61A3.45,3.45,0,0,1,344,174.51Z" style="fill:#263238"></path><path d="M328.69,171.84s-.27-.19-.71-.43a4,4,0,0,0-3.78,0c-.44.25-.67.48-.71.44s.16-.31.6-.62a3.57,3.57,0,0,1,2-.6,3.52,3.52,0,0,1,2,.58C328.53,171.54,328.72,171.83,328.69,171.84Z" style="fill:#263238"></path><path d="M355.17,168.28c0,.08-2.54.71-5.72,1.42s-5.77,1.21-5.78,1.13a117.22,117.22,0,0,1,11.5-2.55Z" style="fill:#263238"></path><path d="M314.88,179.69a1.28,1.28,0,0,1-.39,0,4.87,4.87,0,0,1-1-.32,5.69,5.69,0,0,1-2.62-2.33,5.44,5.44,0,0,1-.49-4.46c.09-.23.15-.36.17-.35s-.14.54-.19,1.41a5.78,5.78,0,0,0,3.21,5.54C314.35,179.54,314.9,179.63,314.88,179.69Z" style="fill:#fff"></path><path d="M330.47,178.74s-.13-.11-.3-.35a5.94,5.94,0,0,1-.62-1.1,7.48,7.48,0,0,1,1.16-7.86,5.91,5.91,0,0,1,.91-.88,1.37,1.37,0,0,1,.39-.25s-.5.44-1.13,1.26a7.73,7.73,0,0,0-1.13,7.65C330.12,178.18,330.51,178.71,330.47,178.74Z" style="fill:#fff"></path><path d="M333,180.37c0,.07-.31,0-.61-.19s-.5-.37-.46-.44.32,0,.61.19S333.05,180.3,333,180.37Z" style="fill:#fff"></path><path d="M380.33,323c-1.62-8.35-6.8-36.47-6.79-42.15,0-.94,1.46-3.86,1.73-4.76,1.51-5.08,6.77-23.75,5.59-33.59-.95-7.86-7.6-17.93-9.6-23.31-.94-2.53-8.41-5.14-10.91-6.17l-5.3-7.49s1.15,3.48-3.53,6.6a14.19,14.19,0,0,1-8.54,2.26,21.7,21.7,0,0,1-15.59-7.67l-.87.68c-17.12,5.52-16.94,5.55-20.22,6.93-4.24,1.79,9.17,45.21,9.17,45.21s7.92,29.32,3.65,38.41c-2.4,5.11-10.5,13.57-12.55,18.32,0,0-3.56,5-3.63,6.24S324,332.88,340.71,333.8C371.59,335.51,380.33,323,380.33,323Z" style="fill:#f5f5f5"></path><path d="M373.93,269.83a8.29,8.29,0,0,1,.2-1.52c.18-1,.38-2.37.57-4.11a58.54,58.54,0,0,0,.37-6.14,67,67,0,0,0-.4-7.51,65.6,65.6,0,0,0-1.35-7.41,60.35,60.35,0,0,0-1.77-5.89c-.59-1.65-1.11-3-1.5-3.87a8.46,8.46,0,0,1-.55-1.42,8.44,8.44,0,0,1,.73,1.34c.45.87,1,2.18,1.67,3.82a54.76,54.76,0,0,1,1.89,5.91,56.07,56.07,0,0,1,1.76,15,54.06,54.06,0,0,1-.48,6.17,40.22,40.22,0,0,1-.74,4.11A10,10,0,0,1,373.93,269.83Z" style="fill:#263238"></path><path d="M355.05,205.49l.05-3.83,4.49,7.33,9.16,3.37c2.87,3.32,12.2,40.65,10.31,46.82l-3.25,36.51,9.28,13.95-16.66,1.78s-3.57-3.53-2.68-12.88c2.26-23.68-.08-50.69-.42-56.67C364.82,232.86,355.05,205.49,355.05,205.49Z" style="fill:#407BFF"></path><path d="M359.59,209s15,4.91,17,7.74c5.36,7.69,37.6,60.34,21.77,76-10.37,10.28-24.92-11.42-24.92-11.42Z" style="fill:#407BFF"></path><path d="M396.42,271.85a8.55,8.55,0,0,1-1.37-.24l-3.75-.81c-3.18-.67-7.64-1.61-12.75-2.38l.27-.16c-.5,1.27-1,2.59-1.53,3.93-1.32,3.33-2.56,6.48-3.65,9.25l0-.23,5.65,7.05,1.57,2a4.51,4.51,0,0,1,.52.75,5.37,5.37,0,0,1-.64-.66c-.43-.51-1-1.15-1.67-1.94l-5.79-6.93-.09-.1,0-.13L376.8,272c.53-1.34,1-2.66,1.54-3.93l.08-.19.2,0c5.14.8,9.59,1.81,12.76,2.57,1.58.38,2.84.71,3.71.95A8.57,8.57,0,0,1,396.42,271.85Z" style="fill:#263238"></path><path d="M381,267.64a9.79,9.79,0,0,1,.15-1.68c.14-1.17.33-2.7.56-4.56a72.56,72.56,0,0,0,.49-15.06A41.35,41.35,0,0,0,378,232c-.84-1.74-1.61-3.11-2.14-4a11.35,11.35,0,0,1-.8-1.48,1.52,1.52,0,0,1,.27.34c.17.23.41.58.7,1a45.9,45.9,0,0,1,2.3,4,39.2,39.2,0,0,1,4.35,14.51,65.2,65.2,0,0,1-.65,15.16c-.27,1.92-.53,3.47-.72,4.54A11.58,11.58,0,0,1,381,267.64Z" style="fill:#263238"></path><path d="M367.44,261.38a2.2,2.2,0,0,1,0-.61c0-.45.07-1,.12-1.72.14-1.56.33-3.7.57-6.32s.56-5.86.9-9.37c.17-1.76.36-3.61.55-5.53a19.85,19.85,0,0,0,.15-2.89,5.26,5.26,0,0,0-.79-2.74,3.13,3.13,0,0,0-2.64-1.54l-.95.06.79-.53,4-2.67-.08.34-7.71-13.24c-.92-1.61-1.65-2.91-2.2-3.86l-.57-1a2.31,2.31,0,0,1-.17-.37,1.3,1.3,0,0,1,.25.33l.64,1c.57.94,1.35,2.22,2.32,3.79,2,3.31,4.72,7.87,7.87,13.14l.12.2-.19.14-3.94,2.68-.16-.47a3.62,3.62,0,0,1,3.11,1.76,5.77,5.77,0,0,1,.87,3,20.64,20.64,0,0,1-.16,3c-.21,1.91-.4,3.76-.58,5.52-.38,3.51-.73,6.67-1,9.36s-.55,4.74-.73,6.3c-.09.7-.16,1.27-.22,1.71A3.09,3.09,0,0,1,367.44,261.38Z" style="fill:#263238"></path><path d="M448,398.77l10,21.69s25.09-3.32,27.34.51l-41,21.38-17-33.15Z" style="fill:#455a64"></path><path d="M444.64,425.1a1.9,1.9,0,0,0-.19,2.53,1.83,1.83,0,0,0,2.51.21,2,2,0,0,0,.19-2.68,1.9,1.9,0,0,0-2.64.07" style="fill:#e0e0e0"></path><path d="M444.34,442.35,443,439.71l40.24-20a3.54,3.54,0,0,1,2.47,1.33Z" style="fill:#263238"></path><path d="M458.47,420.4c.1.21-.87.82-1.54,2s-.77,2.29-1,2.3-.52-1.31.31-2.7S458.42,420.19,458.47,420.4Z" style="fill:#263238"></path><path d="M463.76,420c.14.18-.56,1-.82,2.18s0,2.22-.2,2.32-.92-1-.57-2.49S463.65,419.8,463.76,420Z" style="fill:#263238"></path><path d="M468.89,424c-.16.14-1-.73-1-2.11s.68-2.31.85-2.18-.11,1-.06,2.15S469.08,423.84,468.89,424Z" style="fill:#263238"></path><path d="M455.61,415.68c0,.23-1.07.42-2.18,1.08s-1.82,1.48-2,1.36.3-1.28,1.61-2S455.63,415.47,455.61,415.68Z" style="fill:#263238"></path><path d="M454,410.71c.05.09-.69.62-2.09,1.05a10.19,10.19,0,0,1-2.52.44,11.11,11.11,0,0,1-1.52,0A2.57,2.57,0,0,1,447,412a1,1,0,0,1-.65-1,1.28,1.28,0,0,1,.66-.92,2.9,2.9,0,0,1,.84-.29,8.28,8.28,0,0,1,1.52-.21,8,8,0,0,1,2.57.28c1.42.41,2.13,1,2.08,1.07s-.85-.28-2.21-.52a9.12,9.12,0,0,0-2.39-.1,9,9,0,0,0-1.39.23c-.5.11-.87.3-.89.55s0,.13.17.21a2.39,2.39,0,0,0,.64.13,14,14,0,0,0,1.42.07,13.64,13.64,0,0,0,2.41-.25A16.21,16.21,0,0,1,454,410.71Z" style="fill:#263238"></path><path d="M408.93,433.63l-1.27,23.87s23.73,8.81,23.93,13.24l-46.27-.3.45-37.28Z" style="fill:#455a64"></path><path d="M393.67,455.33a1.91,1.91,0,0,0-1.36,2.16,1.83,1.83,0,0,0,2.12,1.36,2,2,0,0,0,1.43-2.29,1.91,1.91,0,0,0-2.37-1.17" style="fill:#e0e0e0"></path><path d="M385.32,470.44l0-3,44.9,1.2a3.53,3.53,0,0,1,1.56,2.33Z" style="fill:#263238"></path><path d="M408.08,457.66c0,.23-1.15.31-2.29,1s-1.74,1.67-2,1.57.15-1.4,1.54-2.24S408.14,457.45,408.08,457.66Z" style="fill:#263238"></path><path d="M413,459.77c.05.22-.95.59-1.74,1.54s-1,2-1.26,2-.35-1.31.66-2.47S413,459.55,413,459.77Z" style="fill:#263238"></path><path d="M415.63,465.68c-.21.05-.51-1.1.1-2.34s1.68-1.72,1.78-1.52-.58.84-1.07,1.87S415.86,465.66,415.63,465.68Z" style="fill:#263238"></path><path d="M407.77,452.15c-.1.2-1.14-.13-2.43-.06s-2.31.45-2.42.25.86-1,2.38-1S407.88,452,407.77,452.15Z" style="fill:#263238"></path><path d="M408.69,447a4.34,4.34,0,0,1-2.34-.05,10.09,10.09,0,0,1-2.44-.79,11.88,11.88,0,0,1-1.33-.74,2.74,2.74,0,0,1-.69-.56,1,1,0,0,1-.09-1.22,1.26,1.26,0,0,1,1-.5,2.9,2.9,0,0,1,.88.14,7.91,7.91,0,0,1,1.44.52,8.24,8.24,0,0,1,2.13,1.45c1.07,1,1.43,1.88,1.35,1.93s-.62-.65-1.71-1.5a9.26,9.26,0,0,0-2.07-1.21,7.68,7.68,0,0,0-1.33-.44c-.5-.14-.92-.15-1.05.07s-.05.12.05.26a2.06,2.06,0,0,0,.51.41,11.34,11.34,0,0,0,1.23.73,12.87,12.87,0,0,0,2.24.91A17.06,17.06,0,0,1,408.69,447Z" style="fill:#263238"></path><path d="M303.13,319s94.74-11.22,100.2-11.22c12.82,0,18.83,9.39,20.75,16.93C425.5,330.29,454,410.9,454,410.9l-21,10.92-31-55-15.78-27.45-81.3,12.56Z" style="fill:#263238"></path><path d="M390.08,336.82s12.7,0,19.56,10.17c4,6,2.62,16.65,2.7,24.71.11,11-2.54,77.81-2.54,77.81l-26,.44-5.44-69.67.32-12.88-51.89-4.22s-4.72-15.72,6.9-28.13C335.19,333.45,390.08,336.82,390.08,336.82Z" style="fill:#263238"></path><path d="M303.16,320.3S295.07,339,306,355c7.22,10.55,21.06,8.13,21.06,8.13l18.38-23-14.67-22.92Z" style="fill:#263238"></path><path d="M327.05,363.1a2.41,2.41,0,0,1,.34-.18l1-.48,4-1.81,14.75-6.57,21.89-9.68,12.94-5.7c1.13-.48,2.22-1,3.43-1.45a21.69,21.69,0,0,1,3.69-.94,27.92,27.92,0,0,1,7.75-.07,24.62,24.62,0,0,1,7.45,2.12,13.43,13.43,0,0,1,3.21,2.09,12.07,12.07,0,0,1,2.35,2.95,16.7,16.7,0,0,1,2.17,6.94c.1,1.21,0,2.36,0,3.52s0,2.29,0,3.42c-.1,9-.2,17.12-.27,23.94s-.18,12.3-.23,16.14c0,1.88-.07,3.35-.09,4.38l0,1.15a1.88,1.88,0,0,1,0,.38,1.65,1.65,0,0,1,0-.39c0-.28,0-.66,0-1.14,0-1,0-2.5,0-4.38,0-3.84,0-9.35.07-16.14s.1-14.94.16-23.94l0-3.42c0-1.15.06-2.33,0-3.48a16.22,16.22,0,0,0-2.12-6.72,11.18,11.18,0,0,0-2.26-2.82,12.3,12.3,0,0,0-3.08-2,24,24,0,0,0-7.3-2.07,27.62,27.62,0,0,0-7.6.06,21.59,21.59,0,0,0-3.6.92c-1.16.39-2.28,1-3.4,1.43l-12.95,5.67-21.94,9.58-14.8,6.42c-1.74.73-3.09,1.31-4,1.72l-1.06.43A1.64,1.64,0,0,1,327.05,363.1Z" style="fill:#455a64"></path><path d="M329,202.55l-4.49,4.82-16.68,5.3a297.3,297.3,0,0,0,3.95,36.51c3.67,20.56,5.64,41.52,5.74,41.85.81-1.53-8.38,11.09-13.45,23.48-4,9.74-6.18,30.06-6.18,30.06l42,12.86L347,281.35l-1.86-35.19Z" style="fill:#407BFF"></path><g style="opacity:0.30000000000000004"><path d="M310.39,301.49c.59,1.29,2.39,1.74,3.78,1.5,9.95-1.73,24.62-9.24,32.29-15.81.07-.33.55-6.2.55-6.2v-3Z"></path></g><path d="M307.86,212.67a17.67,17.67,0,0,0-9.94,11.71s-1.78,5.5-3.1,11.66c-3.22,15-10.15,43.06-10.43,50.5-.5,13.47,9.63,17.29,15.1,18.47S343,285.4,343,285.4l-6.31-18.94-24.8,6.4s5.3-17.3,6.83-24.38S307.86,212.67,307.86,212.67Z" style="fill:#407BFF"></path><path d="M303.79,304.24l.2-.1.59-.24c.52-.21,1.28-.51,2.27-.93,2-.82,4.83-2.06,8.34-3.72,7-3.31,16.69-8.29,27.65-14.08l-.12.31c-1-3.11-2.12-6.34-3.22-9.65s-2.1-6.28-3.1-9.29l.31.16-25.93,7h0a15.5,15.5,0,0,0-6.57,2.26,24.53,24.53,0,0,0-4.22,3.21,27,27,0,0,0-2.3,2.47l-.55.69c-.12.15-.19.23-.2.22a18.6,18.6,0,0,1,2.9-3.53,23.77,23.77,0,0,1,4.22-3.32,15.39,15.39,0,0,1,6.69-2.37h0l25.9-7.16.23-.06.08.23,3.1,9.29c1.1,3.3,2.18,6.53,3.21,9.65l.07.2-.19.1c-11,5.77-20.67,10.7-27.75,13.93-3.54,1.62-6.41,2.82-8.41,3.59-1,.39-1.78.67-2.31.85l-.61.2C303.87,304.23,303.8,304.25,303.79,304.24Z" style="fill:#263238"></path><path d="M319.62,245.1c.14,0-1.48,6.29-3.63,14s-4,13.85-4.14,13.81,1.49-6.28,3.64-13.95S319.49,245.06,319.62,245.1Z" style="fill:#263238"></path><path d="M345.15,265a3,3,0,0,1-.32-.63q-.31-.69-.81-1.83c-.71-1.59-1.73-3.9-3-6.72a240.8,240.8,0,0,0-11.4-21.48l-1.15-1.9-.16-.26.28-.11,4.73-2-.07.43A13,13,0,0,0,328,227.9l-.17,0,0-.17a59.09,59.09,0,0,0-1.47-8.34c-.59-2.48-1.09-4.68-1.38-6.52a31.59,31.59,0,0,1-.43-4.33c0-.51,0-.9,0-1.16a1.6,1.6,0,0,1,0-.4,15.12,15.12,0,0,1,.11,1.55,35.88,35.88,0,0,0,.56,4.29c.33,1.82.86,4,1.48,6.48a55.17,55.17,0,0,1,1.56,8.39l-.18-.21a13.23,13.23,0,0,1,5.46,2.71l.32.27-.39.16-4.72,2,.12-.38,1.16,1.91a208.66,208.66,0,0,1,11.28,21.59c1.28,2.84,2.26,5.17,2.9,6.79.3.77.54,1.4.73,1.87A4.19,4.19,0,0,1,345.15,265Z" style="fill:#263238"></path><path d="M310.7,317.17a2.65,2.65,0,0,1-.38.52c-.29.36-.65.83-1.11,1.4l-4.1,5-.11-.3,19.94,3.75-.26.1.31-.44,5.57-7.74.17.39L316.38,318l-4.16-.58-1.12-.17-.4-.09a1.44,1.44,0,0,1,.37,0l1.09.09,4.15.44,14.48,1.67.41.05-.24.34-5.54,7.75-.32.44-.1.14-.16,0-19.91-3.9-.31-.06.21-.24,4.28-5c.48-.54.87-1,1.17-1.32S310.69,317.15,310.7,317.17Z" style="fill:#263238"></path><path d="M318,230c-.09,0-.25-1-.78-2.44a18.06,18.06,0,0,0-3-5.31,18.29,18.29,0,0,0-4.62-4c-1.35-.81-2.27-1.16-2.24-1.25a2,2,0,0,1,.68.17,11,11,0,0,1,1.74.76,16.09,16.09,0,0,1,7.79,9.5,10,10,0,0,1,.4,1.86C318,229.75,318,230,318,230Z" style="fill:#263238"></path><g style="opacity:0.30000000000000004"><polygon points="307.53 324.48 306.21 327.06 324.92 331.08 329.6 321.25 324.89 327.81 307.53 324.48"></polygon></g><path d="M378.15,267.6a17.22,17.22,0,0,1-.21-6.4,11.72,11.72,0,0,0,.13-3.87c-.24-1.28-1.42-2.62-2.71-2.51l-1.93,9.32Z" style="fill:#ffbe9d"></path><path d="M377.25,245.72l-6.84,33-16.2-1,4.8-32.6a1.76,1.76,0,0,1,1.74-1.5l14.79,0A1.75,1.75,0,0,1,377.25,245.72Z" style="fill:#263238"></path><path d="M359,254.28a6.29,6.29,0,0,0,.25-1l.54-2.67c.22-1.15.48-2.48.77-4a3.92,3.92,0,0,1,.12-.54,1,1,0,0,1,.28-.41,1,1,0,0,1,.46-.24,2.69,2.69,0,0,1,.58,0l2.56,0c3.5,0,6.68,0,9-.09l2.73-.07a7.17,7.17,0,0,0,1-.07,4.36,4.36,0,0,0-1-.06l-2.72,0c-2.29,0-5.47,0-9,0H362a3.66,3.66,0,0,0-.65,0,1.28,1.28,0,0,0-.6.31,1.34,1.34,0,0,0-.37.55,3.73,3.73,0,0,0-.13.59c-.26,1.48-.49,2.83-.69,4s-.33,2-.44,2.68A5.94,5.94,0,0,0,359,254.28Z" style="fill:#455a64"></path><path d="M367.69,247.09a.8.8,0,0,1,1-.48.78.78,0,0,1,.57.64.88.88,0,0,1-.44.82.83.83,0,0,1-.92-.08A.77.77,0,0,1,367.69,247.09Z" style="fill:#fafafa"></path><path d="M368.14,257c.37.1,8.95,4.52,8.95,4.52l4.47,4.72a9.14,9.14,0,0,1,.3,7c-1.31,4.26-3.44,5.75-8.37,7l-9.32-1.47-4.7-3.86a2.94,2.94,0,0,1-.94-3.16l.07-.19-.54-.89a1.64,1.64,0,0,1,.08-1.8h0a1.62,1.62,0,0,1,2.26-.34l5.31,3.88,3.65.48.55-1.2-5.35-2.78-6.81-5.26a2,2,0,0,1-.3-2.88h0a2,2,0,0,1,2.54-.43l6.32,3.72,6.6,2.91-1-2.62-7.76-5.74S363.5,255.85,368.14,257Z" style="fill:#ffbe9d"></path><path d="M367.32,252.51s-1.79-1-4.76.21-6.75,3.08-6.75,3.08l-5.68,1.63.67-1.41s5.61.57,5.34-3.51l-3.38.15-2.91-1.5-5.71,5.57L342,264.59,337,267.64l4.45,13.71,8-5,11.13-.22,4.08-3.29.45-4.19,4-4.06s.51-2-1.33-2.24-6.27,4.21-6.27,4.21l-4.44.11s-.77-.7-.14-1.1,13.72-6.82,14.3-8.27,1.17-2.38-.13-2.79a7.22,7.22,0,0,0-3.46.34S368.31,252.83,367.32,252.51Z" style="fill:#ffbe9d"></path><path d="M356.49,260.55a57,57,0,0,0,5.84-2.72,61.13,61.13,0,0,0,5.68-3,61.57,61.57,0,0,0-5.83,2.72C359,259.12,356.45,260.47,356.49,260.55Z" style="fill:#eb996e"></path><path d="M353.85,271a3,3,0,0,0,.67.21c.44.12,1.07.28,1.86.42a12.94,12.94,0,0,0,2.84.19,8.14,8.14,0,0,0,3.37-.93,14.72,14.72,0,0,0,4.71-4.17c.49-.64.87-1.17,1.12-1.54a2.37,2.37,0,0,0,.37-.6s-.65.76-1.68,2a15.85,15.85,0,0,1-4.67,4,8.24,8.24,0,0,1-3.24.92,13.52,13.52,0,0,1-2.78-.12C354.84,271.17,353.86,271,353.85,271Z" style="fill:#eb996e"></path></g></svg>